<?xml version="1.0" encoding="utf-8"?>
<svg xmlns="http://www.w3.org/2000/svg" xmlns:xlink="http://www.w3.org/1999/xlink" width="200" height="200" viewBox="0 0 200 200">

	<g id="qr">
		<rect fill="#ffffffff" height="200" width="200" y="0" x="0"/>
		<rect fill="#000000ff" height="5" width="5" y="7" x="7"/>
		<rect fill="#000000ff" height="5" width="5" y="12" x="7"/>
		<rect fill="#000000ff" height="5" width="5" y="17" x="7"/>
		<rect fill="#000000ff" height="5" width="5" y="22" x="7"/>
		<rect fill="#000000ff" height="5" width="5" y="27" x="7"/>
		<rect fill="#000000ff" height="5" width="5" y="32" x="7"/>
		<rect fill="#000000ff" height="5" width="5" y="37" x="7"/>
		<rect fill="#000000ff" height="5" width="5" y="52" x="7"/>
		<rect fill="#000000ff" height="5" width="5" y="67" x="7"/>
		<rect fill="#000000ff" height="5" width="5" y="97" x="7"/>
		<rect fill="#000000ff" height="5" width="5" y="122" x="7"/>
		<rect fill="#000000ff" height="5" width="5" y="132" x="7"/>
		<rect fill="#000000ff" height="5" width="5" y="137" x="7"/>
		<rect fill="#000000ff" height="5" width="5" y="142" x="7"/>
		<rect fill="#000000ff" height="5" width="5" y="147" x="7"/>
		<rect fill="#000000ff" height="5" width="5" y="157" x="7"/>
		<rect fill="#000000ff" height="5" width="5" y="162" x="7"/>
		<rect fill="#000000ff" height="5" width="5" y="167" x="7"/>
		<rect fill="#000000ff" height="5" width="5" y="172" x="7"/>
		<rect fill="#000000ff" height="5" width="5" y="177" x="7"/>
		<rect fill="#000000ff" height="5" width="5" y="182" x="7"/>
		<rect fill="#000000ff" height="5" width="5" y="187" x="7"/>
		<rect fill="#000000ff" height="5" width="5" y="7" x="12"/>
		<rect fill="#000000ff" height="5" width="5" y="37" x="12"/>
		<rect fill="#000000ff" height="5" width="5" y="77" x="12"/>
		<rect fill="#000000ff" height="5" width="5" y="82" x="12"/>
		<rect fill="#000000ff" height="5" width="5" y="97" x="12"/>
		<rect fill="#000000ff" height="5" width="5" y="117" x="12"/>
		<rect fill="#000000ff" height="5" width="5" y="122" x="12"/>
		<rect fill="#000000ff" height="5" width="5" y="132" x="12"/>
		<rect fill="#000000ff" height="5" width="5" y="157" x="12"/>
		<rect fill="#000000ff" height="5" width="5" y="187" x="12"/>
		<rect fill="#000000ff" height="5" width="5" y="7" x="17"/>
		<rect fill="#000000ff" height="5" width="5" y="17" x="17"/>
		<rect fill="#000000ff" height="5" width="5" y="22" x="17"/>
		<rect fill="#000000ff" height="5" width="5" y="27" x="17"/>
		<rect fill="#000000ff" height="5" width="5" y="37" x="17"/>
		<rect fill="#000000ff" height="5" width="5" y="47" x="17"/>
		<rect fill="#000000ff" height="5" width="5" y="57" x="17"/>
		<rect fill="#000000ff" height="5" width="5" y="67" x="17"/>
		<rect fill="#000000ff" height="5" width="5" y="77" x="17"/>
		<rect fill="#000000ff" height="5" width="5" y="92" x="17"/>
		<rect fill="#000000ff" height="5" width="5" y="102" x="17"/>
		<rect fill="#000000ff" height="5" width="5" y="107" x="17"/>
		<rect fill="#000000ff" height="5" width="5" y="112" x="17"/>
		<rect fill="#000000ff" height="5" width="5" y="117" x="17"/>
		<rect fill="#000000ff" height="5" width="5" y="137" x="17"/>
		<rect fill="#000000ff" height="5" width="5" y="142" x="17"/>
		<rect fill="#000000ff" height="5" width="5" y="147" x="17"/>
		<rect fill="#000000ff" height="5" width="5" y="157" x="17"/>
		<rect fill="#000000ff" height="5" width="5" y="167" x="17"/>
		<rect fill="#000000ff" height="5" width="5" y="172" x="17"/>
		<rect fill="#000000ff" height="5" width="5" y="177" x="17"/>
		<rect fill="#000000ff" height="5" width="5" y="187" x="17"/>
		<rect fill="#000000ff" height="5" width="5" y="7" x="22"/>
		<rect fill="#000000ff" height="5" width="5" y="17" x="22"/>
		<rect fill="#000000ff" height="5" width="5" y="22" x="22"/>
		<rect fill="#000000ff" height="5" width="5" y="27" x="22"/>
		<rect fill="#000000ff" height="5" width="5" y="37" x="22"/>
		<rect fill="#000000ff" height="5" width="5" y="47" x="22"/>
		<rect fill="#000000ff" height="5" width="5" y="67" x="22"/>
		<rect fill="#000000ff" height="5" width="5" y="72" x="22"/>
		<rect fill="#000000ff" height="5" width="5" y="77" x="22"/>
		<rect fill="#000000ff" height="5" width="5" y="82" x="22"/>
		<rect fill="#000000ff" height="5" width="5" y="92" x="22"/>
		<rect fill="#000000ff" height="5" width="5" y="97" x="22"/>
		<rect fill="#000000ff" height="5" width="5" y="107" x="22"/>
		<rect fill="#000000ff" height="5" width="5" y="132" x="22"/>
		<rect fill="#000000ff" height="5" width="5" y="142" x="22"/>
		<rect fill="#000000ff" height="5" width="5" y="157" x="22"/>
		<rect fill="#000000ff" height="5" width="5" y="167" x="22"/>
		<rect fill="#000000ff" height="5" width="5" y="172" x="22"/>
		<rect fill="#000000ff" height="5" width="5" y="177" x="22"/>
		<rect fill="#000000ff" height="5" width="5" y="187" x="22"/>
		<rect fill="#000000ff" height="5" width="5" y="7" x="27"/>
		<rect fill="#000000ff" height="5" width="5" y="17" x="27"/>
		<rect fill="#000000ff" height="5" width="5" y="22" x="27"/>
		<rect fill="#000000ff" height="5" width="5" y="27" x="27"/>
		<rect fill="#000000ff" height="5" width="5" y="37" x="27"/>
		<rect fill="#000000ff" height="5" width="5" y="47" x="27"/>
		<rect fill="#000000ff" height="5" width="5" y="52" x="27"/>
		<rect fill="#000000ff" height="5" width="5" y="57" x="27"/>
		<rect fill="#000000ff" height="5" width="5" y="62" x="27"/>
		<rect fill="#000000ff" height="5" width="5" y="67" x="27"/>
		<rect fill="#000000ff" height="5" width="5" y="72" x="27"/>
		<rect fill="#000000ff" height="5" width="5" y="77" x="27"/>
		<rect fill="#000000ff" height="5" width="5" y="82" x="27"/>
		<rect fill="#000000ff" height="5" width="5" y="92" x="27"/>
		<rect fill="#000000ff" height="5" width="5" y="117" x="27"/>
		<rect fill="#000000ff" height="5" width="5" y="132" x="27"/>
		<rect fill="#000000ff" height="5" width="5" y="137" x="27"/>
		<rect fill="#000000ff" height="5" width="5" y="142" x="27"/>
		<rect fill="#000000ff" height="5" width="5" y="147" x="27"/>
		<rect fill="#000000ff" height="5" width="5" y="157" x="27"/>
		<rect fill="#000000ff" height="5" width="5" y="167" x="27"/>
		<rect fill="#000000ff" height="5" width="5" y="172" x="27"/>
		<rect fill="#000000ff" height="5" width="5" y="177" x="27"/>
		<rect fill="#000000ff" height="5" width="5" y="187" x="27"/>
		<rect fill="#000000ff" height="5" width="5" y="7" x="32"/>
		<rect fill="#000000ff" height="5" width="5" y="37" x="32"/>
		<rect fill="#000000ff" height="5" width="5" y="57" x="32"/>
		<rect fill="#000000ff" height="5" width="5" y="62" x="32"/>
		<rect fill="#000000ff" height="5" width="5" y="72" x="32"/>
		<rect fill="#000000ff" height="5" width="5" y="77" x="32"/>
		<rect fill="#000000ff" height="5" width="5" y="82" x="32"/>
		<rect fill="#000000ff" height="5" width="5" y="87" x="32"/>
		<rect fill="#000000ff" height="5" width="5" y="92" x="32"/>
		<rect fill="#000000ff" height="5" width="5" y="112" x="32"/>
		<rect fill="#000000ff" height="5" width="5" y="122" x="32"/>
		<rect fill="#000000ff" height="5" width="5" y="132" x="32"/>
		<rect fill="#000000ff" height="5" width="5" y="157" x="32"/>
		<rect fill="#000000ff" height="5" width="5" y="187" x="32"/>
		<rect fill="#000000ff" height="5" width="5" y="7" x="37"/>
		<rect fill="#000000ff" height="5" width="5" y="12" x="37"/>
		<rect fill="#000000ff" height="5" width="5" y="17" x="37"/>
		<rect fill="#000000ff" height="5" width="5" y="22" x="37"/>
		<rect fill="#000000ff" height="5" width="5" y="27" x="37"/>
		<rect fill="#000000ff" height="5" width="5" y="32" x="37"/>
		<rect fill="#000000ff" height="5" width="5" y="37" x="37"/>
		<rect fill="#000000ff" height="5" width="5" y="47" x="37"/>
		<rect fill="#000000ff" height="5" width="5" y="57" x="37"/>
		<rect fill="#000000ff" height="5" width="5" y="67" x="37"/>
		<rect fill="#000000ff" height="5" width="5" y="77" x="37"/>
		<rect fill="#000000ff" height="5" width="5" y="87" x="37"/>
		<rect fill="#000000ff" height="5" width="5" y="97" x="37"/>
		<rect fill="#000000ff" height="5" width="5" y="107" x="37"/>
		<rect fill="#000000ff" height="5" width="5" y="117" x="37"/>
		<rect fill="#000000ff" height="5" width="5" y="127" x="37"/>
		<rect fill="#000000ff" height="5" width="5" y="137" x="37"/>
		<rect fill="#000000ff" height="5" width="5" y="147" x="37"/>
		<rect fill="#000000ff" height="5" width="5" y="157" x="37"/>
		<rect fill="#000000ff" height="5" width="5" y="162" x="37"/>
		<rect fill="#000000ff" height="5" width="5" y="167" x="37"/>
		<rect fill="#000000ff" height="5" width="5" y="172" x="37"/>
		<rect fill="#000000ff" height="5" width="5" y="177" x="37"/>
		<rect fill="#000000ff" height="5" width="5" y="182" x="37"/>
		<rect fill="#000000ff" height="5" width="5" y="187" x="37"/>
		<rect fill="#000000ff" height="5" width="5" y="57" x="42"/>
		<rect fill="#000000ff" height="5" width="5" y="82" x="42"/>
		<rect fill="#000000ff" height="5" width="5" y="97" x="42"/>
		<rect fill="#000000ff" height="5" width="5" y="107" x="42"/>
		<rect fill="#000000ff" height="5" width="5" y="122" x="42"/>
		<rect fill="#000000ff" height="5" width="5" y="132" x="42"/>
		<rect fill="#000000ff" height="5" width="5" y="142" x="42"/>
		<rect fill="#000000ff" height="5" width="5" y="147" x="42"/>
		<rect fill="#000000ff" height="5" width="5" y="7" x="47"/>
		<rect fill="#000000ff" height="5" width="5" y="12" x="47"/>
		<rect fill="#000000ff" height="5" width="5" y="17" x="47"/>
		<rect fill="#000000ff" height="5" width="5" y="32" x="47"/>
		<rect fill="#000000ff" height="5" width="5" y="37" x="47"/>
		<rect fill="#000000ff" height="5" width="5" y="42" x="47"/>
		<rect fill="#000000ff" height="5" width="5" y="47" x="47"/>
		<rect fill="#000000ff" height="5" width="5" y="57" x="47"/>
		<rect fill="#000000ff" height="5" width="5" y="67" x="47"/>
		<rect fill="#000000ff" height="5" width="5" y="77" x="47"/>
		<rect fill="#000000ff" height="5" width="5" y="82" x="47"/>
		<rect fill="#000000ff" height="5" width="5" y="87" x="47"/>
		<rect fill="#000000ff" height="5" width="5" y="92" x="47"/>
		<rect fill="#000000ff" height="5" width="5" y="97" x="47"/>
		<rect fill="#000000ff" height="5" width="5" y="102" x="47"/>
		<rect fill="#000000ff" height="5" width="5" y="127" x="47"/>
		<rect fill="#000000ff" height="5" width="5" y="132" x="47"/>
		<rect fill="#000000ff" height="5" width="5" y="137" x="47"/>
		<rect fill="#000000ff" height="5" width="5" y="147" x="47"/>
		<rect fill="#000000ff" height="5" width="5" y="152" x="47"/>
		<rect fill="#000000ff" height="5" width="5" y="167" x="47"/>
		<rect fill="#000000ff" height="5" width="5" y="172" x="47"/>
		<rect fill="#000000ff" height="5" width="5" y="177" x="47"/>
		<rect fill="#000000ff" height="5" width="5" y="17" x="52"/>
		<rect fill="#000000ff" height="5" width="5" y="32" x="52"/>
		<rect fill="#000000ff" height="5" width="5" y="42" x="52"/>
		<rect fill="#000000ff" height="5" width="5" y="52" x="52"/>
		<rect fill="#000000ff" height="5" width="5" y="57" x="52"/>
		<rect fill="#000000ff" height="5" width="5" y="62" x="52"/>
		<rect fill="#000000ff" height="5" width="5" y="67" x="52"/>
		<rect fill="#000000ff" height="5" width="5" y="77" x="52"/>
		<rect fill="#000000ff" height="5" width="5" y="82" x="52"/>
		<rect fill="#000000ff" height="5" width="5" y="97" x="52"/>
		<rect fill="#000000ff" height="5" width="5" y="107" x="52"/>
		<rect fill="#000000ff" height="5" width="5" y="112" x="52"/>
		<rect fill="#000000ff" height="5" width="5" y="117" x="52"/>
		<rect fill="#000000ff" height="5" width="5" y="122" x="52"/>
		<rect fill="#000000ff" height="5" width="5" y="127" x="52"/>
		<rect fill="#000000ff" height="5" width="5" y="132" x="52"/>
		<rect fill="#000000ff" height="5" width="5" y="152" x="52"/>
		<rect fill="#000000ff" height="5" width="5" y="167" x="52"/>
		<rect fill="#000000ff" height="5" width="5" y="12" x="57"/>
		<rect fill="#000000ff" height="5" width="5" y="17" x="57"/>
		<rect fill="#000000ff" height="5" width="5" y="22" x="57"/>
		<rect fill="#000000ff" height="5" width="5" y="27" x="57"/>
		<rect fill="#000000ff" height="5" width="5" y="32" x="57"/>
		<rect fill="#000000ff" height="5" width="5" y="37" x="57"/>
		<rect fill="#000000ff" height="5" width="5" y="42" x="57"/>
		<rect fill="#000000ff" height="5" width="5" y="47" x="57"/>
		<rect fill="#000000ff" height="5" width="5" y="57" x="57"/>
		<rect fill="#000000ff" height="5" width="5" y="62" x="57"/>
		<rect fill="#000000ff" height="5" width="5" y="67" x="57"/>
		<rect fill="#000000ff" height="5" width="5" y="72" x="57"/>
		<rect fill="#000000ff" height="5" width="5" y="82" x="57"/>
		<rect fill="#000000ff" height="5" width="5" y="87" x="57"/>
		<rect fill="#000000ff" height="5" width="5" y="97" x="57"/>
		<rect fill="#000000ff" height="5" width="5" y="102" x="57"/>
		<rect fill="#000000ff" height="5" width="5" y="117" x="57"/>
		<rect fill="#000000ff" height="5" width="5" y="127" x="57"/>
		<rect fill="#000000ff" height="5" width="5" y="132" x="57"/>
		<rect fill="#000000ff" height="5" width="5" y="147" x="57"/>
		<rect fill="#000000ff" height="5" width="5" y="152" x="57"/>
		<rect fill="#000000ff" height="5" width="5" y="157" x="57"/>
		<rect fill="#000000ff" height="5" width="5" y="162" x="57"/>
		<rect fill="#000000ff" height="5" width="5" y="172" x="57"/>
		<rect fill="#000000ff" height="5" width="5" y="182" x="57"/>
		<rect fill="#000000ff" height="5" width="5" y="17" x="62"/>
		<rect fill="#000000ff" height="5" width="5" y="22" x="62"/>
		<rect fill="#000000ff" height="5" width="5" y="27" x="62"/>
		<rect fill="#000000ff" height="5" width="5" y="42" x="62"/>
		<rect fill="#000000ff" height="5" width="5" y="47" x="62"/>
		<rect fill="#000000ff" height="5" width="5" y="57" x="62"/>
		<rect fill="#000000ff" height="5" width="5" y="72" x="62"/>
		<rect fill="#000000ff" height="5" width="5" y="77" x="62"/>
		<rect fill="#000000ff" height="5" width="5" y="82" x="62"/>
		<rect fill="#000000ff" height="5" width="5" y="102" x="62"/>
		<rect fill="#000000ff" height="5" width="5" y="112" x="62"/>
		<rect fill="#000000ff" height="5" width="5" y="132" x="62"/>
		<rect fill="#000000ff" height="5" width="5" y="137" x="62"/>
		<rect fill="#000000ff" height="5" width="5" y="147" x="62"/>
		<rect fill="#000000ff" height="5" width="5" y="152" x="62"/>
		<rect fill="#000000ff" height="5" width="5" y="12" x="67"/>
		<rect fill="#000000ff" height="5" width="5" y="17" x="67"/>
		<rect fill="#000000ff" height="5" width="5" y="22" x="67"/>
		<rect fill="#000000ff" height="5" width="5" y="27" x="67"/>
		<rect fill="#000000ff" height="5" width="5" y="37" x="67"/>
		<rect fill="#000000ff" height="5" width="5" y="42" x="67"/>
		<rect fill="#000000ff" height="5" width="5" y="47" x="67"/>
		<rect fill="#000000ff" height="5" width="5" y="52" x="67"/>
		<rect fill="#000000ff" height="5" width="5" y="72" x="67"/>
		<rect fill="#000000ff" height="5" width="5" y="77" x="67"/>
		<rect fill="#000000ff" height="5" width="5" y="82" x="67"/>
		<rect fill="#000000ff" height="5" width="5" y="97" x="67"/>
		<rect fill="#000000ff" height="5" width="5" y="117" x="67"/>
		<rect fill="#000000ff" height="5" width="5" y="122" x="67"/>
		<rect fill="#000000ff" height="5" width="5" y="127" x="67"/>
		<rect fill="#000000ff" height="5" width="5" y="147" x="67"/>
		<rect fill="#000000ff" height="5" width="5" y="157" x="67"/>
		<rect fill="#000000ff" height="5" width="5" y="167" x="67"/>
		<rect fill="#000000ff" height="5" width="5" y="172" x="67"/>
		<rect fill="#000000ff" height="5" width="5" y="177" x="67"/>
		<rect fill="#000000ff" height="5" width="5" y="182" x="67"/>
		<rect fill="#000000ff" height="5" width="5" y="187" x="67"/>
		<rect fill="#000000ff" height="5" width="5" y="27" x="72"/>
		<rect fill="#000000ff" height="5" width="5" y="47" x="72"/>
		<rect fill="#000000ff" height="5" width="5" y="52" x="72"/>
		<rect fill="#000000ff" height="5" width="5" y="62" x="72"/>
		<rect fill="#000000ff" height="5" width="5" y="67" x="72"/>
		<rect fill="#000000ff" height="5" width="5" y="82" x="72"/>
		<rect fill="#000000ff" height="5" width="5" y="87" x="72"/>
		<rect fill="#000000ff" height="5" width="5" y="97" x="72"/>
		<rect fill="#000000ff" height="5" width="5" y="102" x="72"/>
		<rect fill="#000000ff" height="5" width="5" y="107" x="72"/>
		<rect fill="#000000ff" height="5" width="5" y="112" x="72"/>
		<rect fill="#000000ff" height="5" width="5" y="117" x="72"/>
		<rect fill="#000000ff" height="5" width="5" y="122" x="72"/>
		<rect fill="#000000ff" height="5" width="5" y="127" x="72"/>
		<rect fill="#000000ff" height="5" width="5" y="142" x="72"/>
		<rect fill="#000000ff" height="5" width="5" y="162" x="72"/>
		<rect fill="#000000ff" height="5" width="5" y="167" x="72"/>
		<rect fill="#000000ff" height="5" width="5" y="177" x="72"/>
		<rect fill="#000000ff" height="5" width="5" y="187" x="72"/>
		<rect fill="#000000ff" height="5" width="5" y="17" x="77"/>
		<rect fill="#000000ff" height="5" width="5" y="22" x="77"/>
		<rect fill="#000000ff" height="5" width="5" y="32" x="77"/>
		<rect fill="#000000ff" height="5" width="5" y="37" x="77"/>
		<rect fill="#000000ff" height="5" width="5" y="42" x="77"/>
		<rect fill="#000000ff" height="5" width="5" y="52" x="77"/>
		<rect fill="#000000ff" height="5" width="5" y="67" x="77"/>
		<rect fill="#000000ff" height="5" width="5" y="72" x="77"/>
		<rect fill="#000000ff" height="5" width="5" y="77" x="77"/>
		<rect fill="#000000ff" height="5" width="5" y="82" x="77"/>
		<rect fill="#000000ff" height="5" width="5" y="92" x="77"/>
		<rect fill="#000000ff" height="5" width="5" y="117" x="77"/>
		<rect fill="#000000ff" height="5" width="5" y="127" x="77"/>
		<rect fill="#000000ff" height="5" width="5" y="132" x="77"/>
		<rect fill="#000000ff" height="5" width="5" y="137" x="77"/>
		<rect fill="#000000ff" height="5" width="5" y="152" x="77"/>
		<rect fill="#000000ff" height="5" width="5" y="167" x="77"/>
		<rect fill="#000000ff" height="5" width="5" y="172" x="77"/>
		<rect fill="#000000ff" height="5" width="5" y="187" x="77"/>
		<rect fill="#000000ff" height="5" width="5" y="7" x="82"/>
		<rect fill="#000000ff" height="5" width="5" y="17" x="82"/>
		<rect fill="#000000ff" height="5" width="5" y="47" x="82"/>
		<rect fill="#000000ff" height="5" width="5" y="52" x="82"/>
		<rect fill="#000000ff" height="5" width="5" y="57" x="82"/>
		<rect fill="#000000ff" height="5" width="5" y="67" x="82"/>
		<rect fill="#000000ff" height="5" width="5" y="77" x="82"/>
		<rect fill="#000000ff" height="5" width="5" y="82" x="82"/>
		<rect fill="#000000ff" height="5" width="5" y="87" x="82"/>
		<rect fill="#000000ff" height="5" width="5" y="97" x="82"/>
		<rect fill="#000000ff" height="5" width="5" y="107" x="82"/>
		<rect fill="#000000ff" height="5" width="5" y="117" x="82"/>
		<rect fill="#000000ff" height="5" width="5" y="122" x="82"/>
		<rect fill="#000000ff" height="5" width="5" y="137" x="82"/>
		<rect fill="#000000ff" height="5" width="5" y="142" x="82"/>
		<rect fill="#000000ff" height="5" width="5" y="162" x="82"/>
		<rect fill="#000000ff" height="5" width="5" y="177" x="82"/>
		<rect fill="#000000ff" height="5" width="5" y="17" x="87"/>
		<rect fill="#000000ff" height="5" width="5" y="37" x="87"/>
		<rect fill="#000000ff" height="5" width="5" y="47" x="87"/>
		<rect fill="#000000ff" height="5" width="5" y="72" x="87"/>
		<rect fill="#000000ff" height="5" width="5" y="82" x="87"/>
		<rect fill="#000000ff" height="5" width="5" y="87" x="87"/>
		<rect fill="#000000ff" height="5" width="5" y="97" x="87"/>
		<rect fill="#000000ff" height="5" width="5" y="102" x="87"/>
		<rect fill="#000000ff" height="5" width="5" y="107" x="87"/>
		<rect fill="#000000ff" height="5" width="5" y="112" x="87"/>
		<rect fill="#000000ff" height="5" width="5" y="117" x="87"/>
		<rect fill="#000000ff" height="5" width="5" y="132" x="87"/>
		<rect fill="#000000ff" height="5" width="5" y="147" x="87"/>
		<rect fill="#000000ff" height="5" width="5" y="152" x="87"/>
		<rect fill="#000000ff" height="5" width="5" y="157" x="87"/>
		<rect fill="#000000ff" height="5" width="5" y="167" x="87"/>
		<rect fill="#000000ff" height="5" width="5" y="187" x="87"/>
		<rect fill="#000000ff" height="5" width="5" y="12" x="92"/>
		<rect fill="#000000ff" height="5" width="5" y="32" x="92"/>
		<rect fill="#000000ff" height="5" width="5" y="42" x="92"/>
		<rect fill="#000000ff" height="5" width="5" y="67" x="92"/>
		<rect fill="#000000ff" height="5" width="5" y="77" x="92"/>
		<rect fill="#000000ff" height="5" width="5" y="82" x="92"/>
		<rect fill="#000000ff" height="5" width="5" y="87" x="92"/>
		<rect fill="#000000ff" height="5" width="5" y="92" x="92"/>
		<rect fill="#000000ff" height="5" width="5" y="112" x="92"/>
		<rect fill="#000000ff" height="5" width="5" y="117" x="92"/>
		<rect fill="#000000ff" height="5" width="5" y="122" x="92"/>
		<rect fill="#000000ff" height="5" width="5" y="127" x="92"/>
		<rect fill="#000000ff" height="5" width="5" y="137" x="92"/>
		<rect fill="#000000ff" height="5" width="5" y="142" x="92"/>
		<rect fill="#000000ff" height="5" width="5" y="147" x="92"/>
		<rect fill="#000000ff" height="5" width="5" y="152" x="92"/>
		<rect fill="#000000ff" height="5" width="5" y="167" x="92"/>
		<rect fill="#000000ff" height="5" width="5" y="12" x="97"/>
		<rect fill="#000000ff" height="5" width="5" y="22" x="97"/>
		<rect fill="#000000ff" height="5" width="5" y="32" x="97"/>
		<rect fill="#000000ff" height="5" width="5" y="37" x="97"/>
		<rect fill="#000000ff" height="5" width="5" y="47" x="97"/>
		<rect fill="#000000ff" height="5" width="5" y="57" x="97"/>
		<rect fill="#000000ff" height="5" width="5" y="62" x="97"/>
		<rect fill="#000000ff" height="5" width="5" y="82" x="97"/>
		<rect fill="#000000ff" height="5" width="5" y="87" x="97"/>
		<rect fill="#000000ff" height="5" width="5" y="122" x="97"/>
		<rect fill="#000000ff" height="5" width="5" y="137" x="97"/>
		<rect fill="#000000ff" height="5" width="5" y="142" x="97"/>
		<rect fill="#000000ff" height="5" width="5" y="147" x="97"/>
		<rect fill="#000000ff" height="5" width="5" y="152" x="97"/>
		<rect fill="#000000ff" height="5" width="5" y="157" x="97"/>
		<rect fill="#000000ff" height="5" width="5" y="172" x="97"/>
		<rect fill="#000000ff" height="5" width="5" y="177" x="97"/>
		<rect fill="#000000ff" height="5" width="5" y="182" x="97"/>
		<rect fill="#000000ff" height="5" width="5" y="12" x="102"/>
		<rect fill="#000000ff" height="5" width="5" y="22" x="102"/>
		<rect fill="#000000ff" height="5" width="5" y="27" x="102"/>
		<rect fill="#000000ff" height="5" width="5" y="52" x="102"/>
		<rect fill="#000000ff" height="5" width="5" y="57" x="102"/>
		<rect fill="#000000ff" height="5" width="5" y="62" x="102"/>
		<rect fill="#000000ff" height="5" width="5" y="112" x="102"/>
		<rect fill="#000000ff" height="5" width="5" y="117" x="102"/>
		<rect fill="#000000ff" height="5" width="5" y="127" x="102"/>
		<rect fill="#000000ff" height="5" width="5" y="137" x="102"/>
		<rect fill="#000000ff" height="5" width="5" y="142" x="102"/>
		<rect fill="#000000ff" height="5" width="5" y="147" x="102"/>
		<rect fill="#000000ff" height="5" width="5" y="157" x="102"/>
		<rect fill="#000000ff" height="5" width="5" y="162" x="102"/>
		<rect fill="#000000ff" height="5" width="5" y="167" x="102"/>
		<rect fill="#000000ff" height="5" width="5" y="177" x="102"/>
		<rect fill="#000000ff" height="5" width="5" y="187" x="102"/>
		<rect fill="#000000ff" height="5" width="5" y="12" x="107"/>
		<rect fill="#000000ff" height="5" width="5" y="22" x="107"/>
		<rect fill="#000000ff" height="5" width="5" y="32" x="107"/>
		<rect fill="#000000ff" height="5" width="5" y="37" x="107"/>
		<rect fill="#000000ff" height="5" width="5" y="42" x="107"/>
		<rect fill="#000000ff" height="5" width="5" y="67" x="107"/>
		<rect fill="#000000ff" height="5" width="5" y="97" x="107"/>
		<rect fill="#000000ff" height="5" width="5" y="102" x="107"/>
		<rect fill="#000000ff" height="5" width="5" y="107" x="107"/>
		<rect fill="#000000ff" height="5" width="5" y="112" x="107"/>
		<rect fill="#000000ff" height="5" width="5" y="147" x="107"/>
		<rect fill="#000000ff" height="5" width="5" y="182" x="107"/>
		<rect fill="#000000ff" height="5" width="5" y="7" x="112"/>
		<rect fill="#000000ff" height="5" width="5" y="17" x="112"/>
		<rect fill="#000000ff" height="5" width="5" y="27" x="112"/>
		<rect fill="#000000ff" height="5" width="5" y="32" x="112"/>
		<rect fill="#000000ff" height="5" width="5" y="42" x="112"/>
		<rect fill="#000000ff" height="5" width="5" y="47" x="112"/>
		<rect fill="#000000ff" height="5" width="5" y="67" x="112"/>
		<rect fill="#000000ff" height="5" width="5" y="77" x="112"/>
		<rect fill="#000000ff" height="5" width="5" y="87" x="112"/>
		<rect fill="#000000ff" height="5" width="5" y="92" x="112"/>
		<rect fill="#000000ff" height="5" width="5" y="102" x="112"/>
		<rect fill="#000000ff" height="5" width="5" y="107" x="112"/>
		<rect fill="#000000ff" height="5" width="5" y="112" x="112"/>
		<rect fill="#000000ff" height="5" width="5" y="122" x="112"/>
		<rect fill="#000000ff" height="5" width="5" y="127" x="112"/>
		<rect fill="#000000ff" height="5" width="5" y="137" x="112"/>
		<rect fill="#000000ff" height="5" width="5" y="142" x="112"/>
		<rect fill="#000000ff" height="5" width="5" y="147" x="112"/>
		<rect fill="#000000ff" height="5" width="5" y="162" x="112"/>
		<rect fill="#000000ff" height="5" width="5" y="167" x="112"/>
		<rect fill="#000000ff" height="5" width="5" y="177" x="112"/>
		<rect fill="#000000ff" height="5" width="5" y="182" x="112"/>
		<rect fill="#000000ff" height="5" width="5" y="22" x="117"/>
		<rect fill="#000000ff" height="5" width="5" y="27" x="117"/>
		<rect fill="#000000ff" height="5" width="5" y="37" x="117"/>
		<rect fill="#000000ff" height="5" width="5" y="67" x="117"/>
		<rect fill="#000000ff" height="5" width="5" y="72" x="117"/>
		<rect fill="#000000ff" height="5" width="5" y="82" x="117"/>
		<rect fill="#000000ff" height="5" width="5" y="92" x="117"/>
		<rect fill="#000000ff" height="5" width="5" y="122" x="117"/>
		<rect fill="#000000ff" height="5" width="5" y="127" x="117"/>
		<rect fill="#000000ff" height="5" width="5" y="167" x="117"/>
		<rect fill="#000000ff" height="5" width="5" y="182" x="117"/>
		<rect fill="#000000ff" height="5" width="5" y="187" x="117"/>
		<rect fill="#000000ff" height="5" width="5" y="7" x="122"/>
		<rect fill="#000000ff" height="5" width="5" y="12" x="122"/>
		<rect fill="#000000ff" height="5" width="5" y="22" x="122"/>
		<rect fill="#000000ff" height="5" width="5" y="52" x="122"/>
		<rect fill="#000000ff" height="5" width="5" y="62" x="122"/>
		<rect fill="#000000ff" height="5" width="5" y="67" x="122"/>
		<rect fill="#000000ff" height="5" width="5" y="77" x="122"/>
		<rect fill="#000000ff" height="5" width="5" y="82" x="122"/>
		<rect fill="#000000ff" height="5" width="5" y="87" x="122"/>
		<rect fill="#000000ff" height="5" width="5" y="92" x="122"/>
		<rect fill="#000000ff" height="5" width="5" y="112" x="122"/>
		<rect fill="#000000ff" height="5" width="5" y="117" x="122"/>
		<rect fill="#000000ff" height="5" width="5" y="127" x="122"/>
		<rect fill="#000000ff" height="5" width="5" y="137" x="122"/>
		<rect fill="#000000ff" height="5" width="5" y="172" x="122"/>
		<rect fill="#000000ff" height="5" width="5" y="177" x="122"/>
		<rect fill="#000000ff" height="5" width="5" y="182" x="122"/>
		<rect fill="#000000ff" height="5" width="5" y="7" x="127"/>
		<rect fill="#000000ff" height="5" width="5" y="22" x="127"/>
		<rect fill="#000000ff" height="5" width="5" y="27" x="127"/>
		<rect fill="#000000ff" height="5" width="5" y="37" x="127"/>
		<rect fill="#000000ff" height="5" width="5" y="62" x="127"/>
		<rect fill="#000000ff" height="5" width="5" y="77" x="127"/>
		<rect fill="#000000ff" height="5" width="5" y="82" x="127"/>
		<rect fill="#000000ff" height="5" width="5" y="87" x="127"/>
		<rect fill="#000000ff" height="5" width="5" y="92" x="127"/>
		<rect fill="#000000ff" height="5" width="5" y="102" x="127"/>
		<rect fill="#000000ff" height="5" width="5" y="112" x="127"/>
		<rect fill="#000000ff" height="5" width="5" y="122" x="127"/>
		<rect fill="#000000ff" height="5" width="5" y="127" x="127"/>
		<rect fill="#000000ff" height="5" width="5" y="132" x="127"/>
		<rect fill="#000000ff" height="5" width="5" y="137" x="127"/>
		<rect fill="#000000ff" height="5" width="5" y="157" x="127"/>
		<rect fill="#000000ff" height="5" width="5" y="177" x="127"/>
		<rect fill="#000000ff" height="5" width="5" y="187" x="127"/>
		<rect fill="#000000ff" height="5" width="5" y="12" x="132"/>
		<rect fill="#000000ff" height="5" width="5" y="32" x="132"/>
		<rect fill="#000000ff" height="5" width="5" y="42" x="132"/>
		<rect fill="#000000ff" height="5" width="5" y="57" x="132"/>
		<rect fill="#000000ff" height="5" width="5" y="62" x="132"/>
		<rect fill="#000000ff" height="5" width="5" y="67" x="132"/>
		<rect fill="#000000ff" height="5" width="5" y="77" x="132"/>
		<rect fill="#000000ff" height="5" width="5" y="87" x="132"/>
		<rect fill="#000000ff" height="5" width="5" y="117" x="132"/>
		<rect fill="#000000ff" height="5" width="5" y="127" x="132"/>
		<rect fill="#000000ff" height="5" width="5" y="137" x="132"/>
		<rect fill="#000000ff" height="5" width="5" y="147" x="132"/>
		<rect fill="#000000ff" height="5" width="5" y="157" x="132"/>
		<rect fill="#000000ff" height="5" width="5" y="162" x="132"/>
		<rect fill="#000000ff" height="5" width="5" y="167" x="132"/>
		<rect fill="#000000ff" height="5" width="5" y="12" x="137"/>
		<rect fill="#000000ff" height="5" width="5" y="27" x="137"/>
		<rect fill="#000000ff" height="5" width="5" y="37" x="137"/>
		<rect fill="#000000ff" height="5" width="5" y="42" x="137"/>
		<rect fill="#000000ff" height="5" width="5" y="52" x="137"/>
		<rect fill="#000000ff" height="5" width="5" y="67" x="137"/>
		<rect fill="#000000ff" height="5" width="5" y="72" x="137"/>
		<rect fill="#000000ff" height="5" width="5" y="77" x="137"/>
		<rect fill="#000000ff" height="5" width="5" y="92" x="137"/>
		<rect fill="#000000ff" height="5" width="5" y="97" x="137"/>
		<rect fill="#000000ff" height="5" width="5" y="112" x="137"/>
		<rect fill="#000000ff" height="5" width="5" y="122" x="137"/>
		<rect fill="#000000ff" height="5" width="5" y="132" x="137"/>
		<rect fill="#000000ff" height="5" width="5" y="137" x="137"/>
		<rect fill="#000000ff" height="5" width="5" y="142" x="137"/>
		<rect fill="#000000ff" height="5" width="5" y="147" x="137"/>
		<rect fill="#000000ff" height="5" width="5" y="152" x="137"/>
		<rect fill="#000000ff" height="5" width="5" y="157" x="137"/>
		<rect fill="#000000ff" height="5" width="5" y="167" x="137"/>
		<rect fill="#000000ff" height="5" width="5" y="172" x="137"/>
		<rect fill="#000000ff" height="5" width="5" y="177" x="137"/>
		<rect fill="#000000ff" height="5" width="5" y="182" x="137"/>
		<rect fill="#000000ff" height="5" width="5" y="22" x="142"/>
		<rect fill="#000000ff" height="5" width="5" y="47" x="142"/>
		<rect fill="#000000ff" height="5" width="5" y="52" x="142"/>
		<rect fill="#000000ff" height="5" width="5" y="62" x="142"/>
		<rect fill="#000000ff" height="5" width="5" y="67" x="142"/>
		<rect fill="#000000ff" height="5" width="5" y="77" x="142"/>
		<rect fill="#000000ff" height="5" width="5" y="87" x="142"/>
		<rect fill="#000000ff" height="5" width="5" y="92" x="142"/>
		<rect fill="#000000ff" height="5" width="5" y="97" x="142"/>
		<rect fill="#000000ff" height="5" width="5" y="107" x="142"/>
		<rect fill="#000000ff" height="5" width="5" y="127" x="142"/>
		<rect fill="#000000ff" height="5" width="5" y="137" x="142"/>
		<rect fill="#000000ff" height="5" width="5" y="147" x="142"/>
		<rect fill="#000000ff" height="5" width="5" y="157" x="142"/>
		<rect fill="#000000ff" height="5" width="5" y="162" x="142"/>
		<rect fill="#000000ff" height="5" width="5" y="177" x="142"/>
		<rect fill="#000000ff" height="5" width="5" y="187" x="142"/>
		<rect fill="#000000ff" height="5" width="5" y="7" x="147"/>
		<rect fill="#000000ff" height="5" width="5" y="22" x="147"/>
		<rect fill="#000000ff" height="5" width="5" y="27" x="147"/>
		<rect fill="#000000ff" height="5" width="5" y="37" x="147"/>
		<rect fill="#000000ff" height="5" width="5" y="52" x="147"/>
		<rect fill="#000000ff" height="5" width="5" y="62" x="147"/>
		<rect fill="#000000ff" height="5" width="5" y="67" x="147"/>
		<rect fill="#000000ff" height="5" width="5" y="72" x="147"/>
		<rect fill="#000000ff" height="5" width="5" y="77" x="147"/>
		<rect fill="#000000ff" height="5" width="5" y="82" x="147"/>
		<rect fill="#000000ff" height="5" width="5" y="87" x="147"/>
		<rect fill="#000000ff" height="5" width="5" y="97" x="147"/>
		<rect fill="#000000ff" height="5" width="5" y="102" x="147"/>
		<rect fill="#000000ff" height="5" width="5" y="117" x="147"/>
		<rect fill="#000000ff" height="5" width="5" y="127" x="147"/>
		<rect fill="#000000ff" height="5" width="5" y="142" x="147"/>
		<rect fill="#000000ff" height="5" width="5" y="147" x="147"/>
		<rect fill="#000000ff" height="5" width="5" y="152" x="147"/>
		<rect fill="#000000ff" height="5" width="5" y="157" x="147"/>
		<rect fill="#000000ff" height="5" width="5" y="162" x="147"/>
		<rect fill="#000000ff" height="5" width="5" y="167" x="147"/>
		<rect fill="#000000ff" height="5" width="5" y="172" x="147"/>
		<rect fill="#000000ff" height="5" width="5" y="47" x="152"/>
		<rect fill="#000000ff" height="5" width="5" y="57" x="152"/>
		<rect fill="#000000ff" height="5" width="5" y="62" x="152"/>
		<rect fill="#000000ff" height="5" width="5" y="67" x="152"/>
		<rect fill="#000000ff" height="5" width="5" y="87" x="152"/>
		<rect fill="#000000ff" height="5" width="5" y="97" x="152"/>
		<rect fill="#000000ff" height="5" width="5" y="102" x="152"/>
		<rect fill="#000000ff" height="5" width="5" y="112" x="152"/>
		<rect fill="#000000ff" height="5" width="5" y="117" x="152"/>
		<rect fill="#000000ff" height="5" width="5" y="122" x="152"/>
		<rect fill="#000000ff" height="5" width="5" y="127" x="152"/>
		<rect fill="#000000ff" height="5" width="5" y="132" x="152"/>
		<rect fill="#000000ff" height="5" width="5" y="137" x="152"/>
		<rect fill="#000000ff" height="5" width="5" y="142" x="152"/>
		<rect fill="#000000ff" height="5" width="5" y="147" x="152"/>
		<rect fill="#000000ff" height="5" width="5" y="167" x="152"/>
		<rect fill="#000000ff" height="5" width="5" y="182" x="152"/>
		<rect fill="#000000ff" height="5" width="5" y="187" x="152"/>
		<rect fill="#000000ff" height="5" width="5" y="7" x="157"/>
		<rect fill="#000000ff" height="5" width="5" y="12" x="157"/>
		<rect fill="#000000ff" height="5" width="5" y="17" x="157"/>
		<rect fill="#000000ff" height="5" width="5" y="22" x="157"/>
		<rect fill="#000000ff" height="5" width="5" y="27" x="157"/>
		<rect fill="#000000ff" height="5" width="5" y="32" x="157"/>
		<rect fill="#000000ff" height="5" width="5" y="37" x="157"/>
		<rect fill="#000000ff" height="5" width="5" y="47" x="157"/>
		<rect fill="#000000ff" height="5" width="5" y="57" x="157"/>
		<rect fill="#000000ff" height="5" width="5" y="67" x="157"/>
		<rect fill="#000000ff" height="5" width="5" y="72" x="157"/>
		<rect fill="#000000ff" height="5" width="5" y="77" x="157"/>
		<rect fill="#000000ff" height="5" width="5" y="97" x="157"/>
		<rect fill="#000000ff" height="5" width="5" y="102" x="157"/>
		<rect fill="#000000ff" height="5" width="5" y="107" x="157"/>
		<rect fill="#000000ff" height="5" width="5" y="117" x="157"/>
		<rect fill="#000000ff" height="5" width="5" y="122" x="157"/>
		<rect fill="#000000ff" height="5" width="5" y="127" x="157"/>
		<rect fill="#000000ff" height="5" width="5" y="132" x="157"/>
		<rect fill="#000000ff" height="5" width="5" y="137" x="157"/>
		<rect fill="#000000ff" height="5" width="5" y="147" x="157"/>
		<rect fill="#000000ff" height="5" width="5" y="157" x="157"/>
		<rect fill="#000000ff" height="5" width="5" y="167" x="157"/>
		<rect fill="#000000ff" height="5" width="5" y="172" x="157"/>
		<rect fill="#000000ff" height="5" width="5" y="177" x="157"/>
		<rect fill="#000000ff" height="5" width="5" y="182" x="157"/>
		<rect fill="#000000ff" height="5" width="5" y="7" x="162"/>
		<rect fill="#000000ff" height="5" width="5" y="37" x="162"/>
		<rect fill="#000000ff" height="5" width="5" y="47" x="162"/>
		<rect fill="#000000ff" height="5" width="5" y="57" x="162"/>
		<rect fill="#000000ff" height="5" width="5" y="62" x="162"/>
		<rect fill="#000000ff" height="5" width="5" y="72" x="162"/>
		<rect fill="#000000ff" height="5" width="5" y="82" x="162"/>
		<rect fill="#000000ff" height="5" width="5" y="92" x="162"/>
		<rect fill="#000000ff" height="5" width="5" y="102" x="162"/>
		<rect fill="#000000ff" height="5" width="5" y="112" x="162"/>
		<rect fill="#000000ff" height="5" width="5" y="117" x="162"/>
		<rect fill="#000000ff" height="5" width="5" y="122" x="162"/>
		<rect fill="#000000ff" height="5" width="5" y="137" x="162"/>
		<rect fill="#000000ff" height="5" width="5" y="147" x="162"/>
		<rect fill="#000000ff" height="5" width="5" y="167" x="162"/>
		<rect fill="#000000ff" height="5" width="5" y="172" x="162"/>
		<rect fill="#000000ff" height="5" width="5" y="177" x="162"/>
		<rect fill="#000000ff" height="5" width="5" y="7" x="167"/>
		<rect fill="#000000ff" height="5" width="5" y="17" x="167"/>
		<rect fill="#000000ff" height="5" width="5" y="22" x="167"/>
		<rect fill="#000000ff" height="5" width="5" y="27" x="167"/>
		<rect fill="#000000ff" height="5" width="5" y="37" x="167"/>
		<rect fill="#000000ff" height="5" width="5" y="57" x="167"/>
		<rect fill="#000000ff" height="5" width="5" y="67" x="167"/>
		<rect fill="#000000ff" height="5" width="5" y="87" x="167"/>
		<rect fill="#000000ff" height="5" width="5" y="92" x="167"/>
		<rect fill="#000000ff" height="5" width="5" y="97" x="167"/>
		<rect fill="#000000ff" height="5" width="5" y="117" x="167"/>
		<rect fill="#000000ff" height="5" width="5" y="132" x="167"/>
		<rect fill="#000000ff" height="5" width="5" y="137" x="167"/>
		<rect fill="#000000ff" height="5" width="5" y="147" x="167"/>
		<rect fill="#000000ff" height="5" width="5" y="152" x="167"/>
		<rect fill="#000000ff" height="5" width="5" y="157" x="167"/>
		<rect fill="#000000ff" height="5" width="5" y="162" x="167"/>
		<rect fill="#000000ff" height="5" width="5" y="167" x="167"/>
		<rect fill="#000000ff" height="5" width="5" y="172" x="167"/>
		<rect fill="#000000ff" height="5" width="5" y="177" x="167"/>
		<rect fill="#000000ff" height="5" width="5" y="182" x="167"/>
		<rect fill="#000000ff" height="5" width="5" y="7" x="172"/>
		<rect fill="#000000ff" height="5" width="5" y="17" x="172"/>
		<rect fill="#000000ff" height="5" width="5" y="22" x="172"/>
		<rect fill="#000000ff" height="5" width="5" y="27" x="172"/>
		<rect fill="#000000ff" height="5" width="5" y="37" x="172"/>
		<rect fill="#000000ff" height="5" width="5" y="52" x="172"/>
		<rect fill="#000000ff" height="5" width="5" y="62" x="172"/>
		<rect fill="#000000ff" height="5" width="5" y="72" x="172"/>
		<rect fill="#000000ff" height="5" width="5" y="77" x="172"/>
		<rect fill="#000000ff" height="5" width="5" y="82" x="172"/>
		<rect fill="#000000ff" height="5" width="5" y="102" x="172"/>
		<rect fill="#000000ff" height="5" width="5" y="107" x="172"/>
		<rect fill="#000000ff" height="5" width="5" y="122" x="172"/>
		<rect fill="#000000ff" height="5" width="5" y="127" x="172"/>
		<rect fill="#000000ff" height="5" width="5" y="132" x="172"/>
		<rect fill="#000000ff" height="5" width="5" y="157" x="172"/>
		<rect fill="#000000ff" height="5" width="5" y="162" x="172"/>
		<rect fill="#000000ff" height="5" width="5" y="167" x="172"/>
		<rect fill="#000000ff" height="5" width="5" y="177" x="172"/>
		<rect fill="#000000ff" height="5" width="5" y="182" x="172"/>
		<rect fill="#000000ff" height="5" width="5" y="7" x="177"/>
		<rect fill="#000000ff" height="5" width="5" y="17" x="177"/>
		<rect fill="#000000ff" height="5" width="5" y="22" x="177"/>
		<rect fill="#000000ff" height="5" width="5" y="27" x="177"/>
		<rect fill="#000000ff" height="5" width="5" y="37" x="177"/>
		<rect fill="#000000ff" height="5" width="5" y="47" x="177"/>
		<rect fill="#000000ff" height="5" width="5" y="57" x="177"/>
		<rect fill="#000000ff" height="5" width="5" y="77" x="177"/>
		<rect fill="#000000ff" height="5" width="5" y="82" x="177"/>
		<rect fill="#000000ff" height="5" width="5" y="87" x="177"/>
		<rect fill="#000000ff" height="5" width="5" y="97" x="177"/>
		<rect fill="#000000ff" height="5" width="5" y="102" x="177"/>
		<rect fill="#000000ff" height="5" width="5" y="117" x="177"/>
		<rect fill="#000000ff" height="5" width="5" y="127" x="177"/>
		<rect fill="#000000ff" height="5" width="5" y="137" x="177"/>
		<rect fill="#000000ff" height="5" width="5" y="147" x="177"/>
		<rect fill="#000000ff" height="5" width="5" y="157" x="177"/>
		<rect fill="#000000ff" height="5" width="5" y="162" x="177"/>
		<rect fill="#000000ff" height="5" width="5" y="177" x="177"/>
		<rect fill="#000000ff" height="5" width="5" y="182" x="177"/>
		<rect fill="#000000ff" height="5" width="5" y="7" x="182"/>
		<rect fill="#000000ff" height="5" width="5" y="37" x="182"/>
		<rect fill="#000000ff" height="5" width="5" y="47" x="182"/>
		<rect fill="#000000ff" height="5" width="5" y="52" x="182"/>
		<rect fill="#000000ff" height="5" width="5" y="57" x="182"/>
		<rect fill="#000000ff" height="5" width="5" y="72" x="182"/>
		<rect fill="#000000ff" height="5" width="5" y="87" x="182"/>
		<rect fill="#000000ff" height="5" width="5" y="97" x="182"/>
		<rect fill="#000000ff" height="5" width="5" y="112" x="182"/>
		<rect fill="#000000ff" height="5" width="5" y="117" x="182"/>
		<rect fill="#000000ff" height="5" width="5" y="127" x="182"/>
		<rect fill="#000000ff" height="5" width="5" y="132" x="182"/>
		<rect fill="#000000ff" height="5" width="5" y="137" x="182"/>
		<rect fill="#000000ff" height="5" width="5" y="147" x="182"/>
		<rect fill="#000000ff" height="5" width="5" y="152" x="182"/>
		<rect fill="#000000ff" height="5" width="5" y="157" x="182"/>
		<rect fill="#000000ff" height="5" width="5" y="167" x="182"/>
		<rect fill="#000000ff" height="5" width="5" y="172" x="182"/>
		<rect fill="#000000ff" height="5" width="5" y="182" x="182"/>
		<rect fill="#000000ff" height="5" width="5" y="187" x="182"/>
		<rect fill="#000000ff" height="5" width="5" y="7" x="187"/>
		<rect fill="#000000ff" height="5" width="5" y="12" x="187"/>
		<rect fill="#000000ff" height="5" width="5" y="17" x="187"/>
		<rect fill="#000000ff" height="5" width="5" y="22" x="187"/>
		<rect fill="#000000ff" height="5" width="5" y="27" x="187"/>
		<rect fill="#000000ff" height="5" width="5" y="32" x="187"/>
		<rect fill="#000000ff" height="5" width="5" y="37" x="187"/>
		<rect fill="#000000ff" height="5" width="5" y="47" x="187"/>
		<rect fill="#000000ff" height="5" width="5" y="67" x="187"/>
		<rect fill="#000000ff" height="5" width="5" y="72" x="187"/>
		<rect fill="#000000ff" height="5" width="5" y="87" x="187"/>
		<rect fill="#000000ff" height="5" width="5" y="92" x="187"/>
		<rect fill="#000000ff" height="5" width="5" y="97" x="187"/>
		<rect fill="#000000ff" height="5" width="5" y="117" x="187"/>
		<rect fill="#000000ff" height="5" width="5" y="127" x="187"/>
		<rect fill="#000000ff" height="5" width="5" y="132" x="187"/>
		<rect fill="#000000ff" height="5" width="5" y="147" x="187"/>
		<rect fill="#000000ff" height="5" width="5" y="152" x="187"/>
		<rect fill="#000000ff" height="5" width="5" y="157" x="187"/>
		<rect fill="#000000ff" height="5" width="5" y="167" x="187"/>
		<rect fill="#000000ff" height="5" width="5" y="172" x="187"/>
		<rect fill="#000000ff" height="5" width="5" y="177" x="187"/>
		<rect fill="#000000ff" height="5" width="5" y="187" x="187"/>

	</g>
</svg>