<?xml version="1.0" encoding="utf-8"?>
<svg xmlns="http://www.w3.org/2000/svg" xmlns:xlink="http://www.w3.org/1999/xlink" width="300" height="300" viewBox="0 0 300 300">

	<g id="qr">
		<rect fill="#ffffffff" height="300" width="300" y="0" x="0"/>
		<rect fill="#ffc800ff" height="7" width="7" y="20" x="20"/>
		<rect fill="#ffc800ff" height="7" width="7" y="27" x="20"/>
		<rect fill="#ffc800ff" height="7" width="7" y="34" x="20"/>
		<rect fill="#ffc800ff" height="7" width="7" y="41" x="20"/>
		<rect fill="#ffc800ff" height="7" width="7" y="48" x="20"/>
		<rect fill="#ffc800ff" height="7" width="7" y="55" x="20"/>
		<rect fill="#ffc800ff" height="7" width="7" y="62" x="20"/>
		<rect fill="#ffc800ff" height="7" width="7" y="230" x="20"/>
		<rect fill="#ffc800ff" height="7" width="7" y="237" x="20"/>
		<rect fill="#ffc800ff" height="7" width="7" y="244" x="20"/>
		<rect fill="#ffc800ff" height="7" width="7" y="251" x="20"/>
		<rect fill="#ffc800ff" height="7" width="7" y="258" x="20"/>
		<rect fill="#ffc800ff" height="7" width="7" y="265" x="20"/>
		<rect fill="#ffc800ff" height="7" width="7" y="272" x="20"/>
		<rect fill="#ffc800ff" height="7" width="7" y="20" x="27"/>
		<rect fill="#ffc800ff" height="7" width="7" y="62" x="27"/>
		<rect fill="#ffc800ff" height="7" width="7" y="230" x="27"/>
		<rect fill="#ffc800ff" height="7" width="7" y="272" x="27"/>
		<rect fill="#ffc800ff" height="7" width="7" y="20" x="34"/>
		<rect fill="#ffafafff" height="7" width="7" y="34" x="34"/>
		<rect fill="#ffafafff" height="7" width="7" y="41" x="34"/>
		<rect fill="#ffafafff" height="7" width="7" y="48" x="34"/>
		<rect fill="#ffc800ff" height="7" width="7" y="62" x="34"/>
		<rect fill="#ffc800ff" height="7" width="7" y="230" x="34"/>
		<rect fill="#ffafafff" height="7" width="7" y="244" x="34"/>
		<rect fill="#ffafafff" height="7" width="7" y="251" x="34"/>
		<rect fill="#ffafafff" height="7" width="7" y="258" x="34"/>
		<rect fill="#ffc800ff" height="7" width="7" y="272" x="34"/>
		<rect fill="#ffc800ff" height="7" width="7" y="20" x="41"/>
		<rect fill="#ffafafff" height="7" width="7" y="34" x="41"/>
		<rect fill="#ffafafff" height="7" width="7" y="41" x="41"/>
		<rect fill="#ffafafff" height="7" width="7" y="48" x="41"/>
		<rect fill="#ffc800ff" height="7" width="7" y="62" x="41"/>
		<rect fill="#ffc800ff" height="7" width="7" y="230" x="41"/>
		<rect fill="#ffafafff" height="7" width="7" y="244" x="41"/>
		<rect fill="#ffafafff" height="7" width="7" y="251" x="41"/>
		<rect fill="#ffafafff" height="7" width="7" y="258" x="41"/>
		<rect fill="#ffc800ff" height="7" width="7" y="272" x="41"/>
		<rect fill="#ffc800ff" height="7" width="7" y="20" x="48"/>
		<rect fill="#ffafafff" height="7" width="7" y="34" x="48"/>
		<rect fill="#ffafafff" height="7" width="7" y="41" x="48"/>
		<rect fill="#ffafafff" height="7" width="7" y="48" x="48"/>
		<rect fill="#ffc800ff" height="7" width="7" y="62" x="48"/>
		<rect fill="#ffc800ff" height="7" width="7" y="230" x="48"/>
		<rect fill="#ffafafff" height="7" width="7" y="244" x="48"/>
		<rect fill="#ffafafff" height="7" width="7" y="251" x="48"/>
		<rect fill="#ffafafff" height="7" width="7" y="258" x="48"/>
		<rect fill="#ffc800ff" height="7" width="7" y="272" x="48"/>
		<rect fill="#ffc800ff" height="7" width="7" y="20" x="55"/>
		<rect fill="#ffc800ff" height="7" width="7" y="62" x="55"/>
		<rect fill="#ffc800ff" height="7" width="7" y="230" x="55"/>
		<rect fill="#ffc800ff" height="7" width="7" y="272" x="55"/>
		<rect fill="#ffc800ff" height="7" width="7" y="20" x="62"/>
		<rect fill="#ffc800ff" height="7" width="7" y="27" x="62"/>
		<rect fill="#ffc800ff" height="7" width="7" y="34" x="62"/>
		<rect fill="#ffc800ff" height="7" width="7" y="41" x="62"/>
		<rect fill="#ffc800ff" height="7" width="7" y="48" x="62"/>
		<rect fill="#ffc800ff" height="7" width="7" y="55" x="62"/>
		<rect fill="#ffc800ff" height="7" width="7" y="62" x="62"/>
		<rect fill="#ffc800ff" height="7" width="7" y="230" x="62"/>
		<rect fill="#ffc800ff" height="7" width="7" y="237" x="62"/>
		<rect fill="#ffc800ff" height="7" width="7" y="244" x="62"/>
		<rect fill="#ffc800ff" height="7" width="7" y="251" x="62"/>
		<rect fill="#ffc800ff" height="7" width="7" y="258" x="62"/>
		<rect fill="#ffc800ff" height="7" width="7" y="265" x="62"/>
		<rect fill="#ffc800ff" height="7" width="7" y="272" x="62"/>
		<rect fill="#ffc800ff" height="7" width="7" y="20" x="230"/>
		<rect fill="#ffc800ff" height="7" width="7" y="27" x="230"/>
		<rect fill="#ffc800ff" height="7" width="7" y="34" x="230"/>
		<rect fill="#ffc800ff" height="7" width="7" y="41" x="230"/>
		<rect fill="#ffc800ff" height="7" width="7" y="48" x="230"/>
		<rect fill="#ffc800ff" height="7" width="7" y="55" x="230"/>
		<rect fill="#ffc800ff" height="7" width="7" y="62" x="230"/>
		<rect fill="#ffc800ff" height="7" width="7" y="20" x="237"/>
		<rect fill="#ffc800ff" height="7" width="7" y="62" x="237"/>
		<rect fill="#ffc800ff" height="7" width="7" y="20" x="244"/>
		<rect fill="#ffafafff" height="7" width="7" y="34" x="244"/>
		<rect fill="#ffafafff" height="7" width="7" y="41" x="244"/>
		<rect fill="#ffafafff" height="7" width="7" y="48" x="244"/>
		<rect fill="#ffc800ff" height="7" width="7" y="62" x="244"/>
		<rect fill="#ffc800ff" height="7" width="7" y="20" x="251"/>
		<rect fill="#ffafafff" height="7" width="7" y="34" x="251"/>
		<rect fill="#ffafafff" height="7" width="7" y="41" x="251"/>
		<rect fill="#ffafafff" height="7" width="7" y="48" x="251"/>
		<rect fill="#ffc800ff" height="7" width="7" y="62" x="251"/>
		<rect fill="#ffc800ff" height="7" width="7" y="20" x="258"/>
		<rect fill="#ffafafff" height="7" width="7" y="34" x="258"/>
		<rect fill="#ffafafff" height="7" width="7" y="41" x="258"/>
		<rect fill="#ffafafff" height="7" width="7" y="48" x="258"/>
		<rect fill="#ffc800ff" height="7" width="7" y="62" x="258"/>
		<rect fill="#ffc800ff" height="7" width="7" y="20" x="265"/>
		<rect fill="#ffc800ff" height="7" width="7" y="62" x="265"/>
		<rect fill="#ffc800ff" height="7" width="7" y="20" x="272"/>
		<rect fill="#ffc800ff" height="7" width="7" y="27" x="272"/>
		<rect fill="#ffc800ff" height="7" width="7" y="34" x="272"/>
		<rect fill="#ffc800ff" height="7" width="7" y="41" x="272"/>
		<rect fill="#ffc800ff" height="7" width="7" y="48" x="272"/>
		<rect fill="#ffc800ff" height="7" width="7" y="55" x="272"/>
		<rect fill="#ffc800ff" height="7" width="7" y="62" x="272"/>
		<rect fill="#000000ff" height="7" width="7" y="83" x="20"/>
		<rect fill="#000000ff" height="7" width="7" y="104" x="20"/>
		<rect fill="#000000ff" height="7" width="7" y="146" x="20"/>
		<rect fill="#000000ff" height="7" width="7" y="181" x="20"/>
		<rect fill="#000000ff" height="7" width="7" y="195" x="20"/>
		<rect fill="#000000ff" height="7" width="7" y="202" x="20"/>
		<rect fill="#000000ff" height="7" width="7" y="209" x="20"/>
		<rect fill="#000000ff" height="7" width="7" y="216" x="20"/>
		<rect fill="#000000ff" height="7" width="7" y="118" x="27"/>
		<rect fill="#000000ff" height="7" width="7" y="125" x="27"/>
		<rect fill="#000000ff" height="7" width="7" y="146" x="27"/>
		<rect fill="#000000ff" height="7" width="7" y="174" x="27"/>
		<rect fill="#000000ff" height="7" width="7" y="181" x="27"/>
		<rect fill="#000000ff" height="7" width="7" y="195" x="27"/>
		<rect fill="#000000ff" height="7" width="7" y="76" x="34"/>
		<rect fill="#000000ff" height="7" width="7" y="90" x="34"/>
		<rect fill="#000000ff" height="7" width="7" y="104" x="34"/>
		<rect fill="#000000ff" height="7" width="7" y="118" x="34"/>
		<rect fill="#000000ff" height="7" width="7" y="139" x="34"/>
		<rect fill="#000000ff" height="7" width="7" y="153" x="34"/>
		<rect fill="#000000ff" height="7" width="7" y="160" x="34"/>
		<rect fill="#000000ff" height="7" width="7" y="167" x="34"/>
		<rect fill="#000000ff" height="7" width="7" y="174" x="34"/>
		<rect fill="#000000ff" height="7" width="7" y="202" x="34"/>
		<rect fill="#000000ff" height="7" width="7" y="209" x="34"/>
		<rect fill="#000000ff" height="7" width="7" y="216" x="34"/>
		<rect fill="#000000ff" height="7" width="7" y="76" x="41"/>
		<rect fill="#000000ff" height="7" width="7" y="104" x="41"/>
		<rect fill="#000000ff" height="7" width="7" y="111" x="41"/>
		<rect fill="#000000ff" height="7" width="7" y="118" x="41"/>
		<rect fill="#000000ff" height="7" width="7" y="125" x="41"/>
		<rect fill="#000000ff" height="7" width="7" y="139" x="41"/>
		<rect fill="#000000ff" height="7" width="7" y="146" x="41"/>
		<rect fill="#000000ff" height="7" width="7" y="160" x="41"/>
		<rect fill="#000000ff" height="7" width="7" y="195" x="41"/>
		<rect fill="#000000ff" height="7" width="7" y="209" x="41"/>
		<rect fill="#000000ff" height="7" width="7" y="76" x="48"/>
		<rect fill="#000000ff" height="7" width="7" y="83" x="48"/>
		<rect fill="#000000ff" height="7" width="7" y="90" x="48"/>
		<rect fill="#000000ff" height="7" width="7" y="97" x="48"/>
		<rect fill="#000000ff" height="7" width="7" y="104" x="48"/>
		<rect fill="#000000ff" height="7" width="7" y="111" x="48"/>
		<rect fill="#000000ff" height="7" width="7" y="118" x="48"/>
		<rect fill="#000000ff" height="7" width="7" y="125" x="48"/>
		<rect fill="#000000ff" height="7" width="7" y="139" x="48"/>
		<rect fill="#000000ff" height="7" width="7" y="174" x="48"/>
		<rect fill="#000000ff" height="7" width="7" y="195" x="48"/>
		<rect fill="#000000ff" height="7" width="7" y="202" x="48"/>
		<rect fill="#000000ff" height="7" width="7" y="209" x="48"/>
		<rect fill="#000000ff" height="7" width="7" y="216" x="48"/>
		<rect fill="#000000ff" height="7" width="7" y="90" x="55"/>
		<rect fill="#000000ff" height="7" width="7" y="97" x="55"/>
		<rect fill="#000000ff" height="7" width="7" y="111" x="55"/>
		<rect fill="#000000ff" height="7" width="7" y="118" x="55"/>
		<rect fill="#000000ff" height="7" width="7" y="125" x="55"/>
		<rect fill="#000000ff" height="7" width="7" y="132" x="55"/>
		<rect fill="#000000ff" height="7" width="7" y="139" x="55"/>
		<rect fill="#000000ff" height="7" width="7" y="167" x="55"/>
		<rect fill="#000000ff" height="7" width="7" y="181" x="55"/>
		<rect fill="#000000ff" height="7" width="7" y="195" x="55"/>
		<rect fill="#000000ff" height="7" width="7" y="76" x="62"/>
		<rect fill="#000000ff" height="7" width="7" y="90" x="62"/>
		<rect fill="#000000ff" height="7" width="7" y="104" x="62"/>
		<rect fill="#000000ff" height="7" width="7" y="118" x="62"/>
		<rect fill="#000000ff" height="7" width="7" y="132" x="62"/>
		<rect fill="#000000ff" height="7" width="7" y="146" x="62"/>
		<rect fill="#000000ff" height="7" width="7" y="160" x="62"/>
		<rect fill="#000000ff" height="7" width="7" y="174" x="62"/>
		<rect fill="#000000ff" height="7" width="7" y="188" x="62"/>
		<rect fill="#000000ff" height="7" width="7" y="202" x="62"/>
		<rect fill="#000000ff" height="7" width="7" y="216" x="62"/>
		<rect fill="#000000ff" height="7" width="7" y="90" x="69"/>
		<rect fill="#000000ff" height="7" width="7" y="125" x="69"/>
		<rect fill="#000000ff" height="7" width="7" y="146" x="69"/>
		<rect fill="#000000ff" height="7" width="7" y="160" x="69"/>
		<rect fill="#000000ff" height="7" width="7" y="181" x="69"/>
		<rect fill="#000000ff" height="7" width="7" y="195" x="69"/>
		<rect fill="#000000ff" height="7" width="7" y="209" x="69"/>
		<rect fill="#000000ff" height="7" width="7" y="216" x="69"/>
		<rect fill="#000000ff" height="7" width="7" y="20" x="76"/>
		<rect fill="#000000ff" height="7" width="7" y="27" x="76"/>
		<rect fill="#000000ff" height="7" width="7" y="34" x="76"/>
		<rect fill="#000000ff" height="7" width="7" y="55" x="76"/>
		<rect fill="#000000ff" height="7" width="7" y="62" x="76"/>
		<rect fill="#000000ff" height="7" width="7" y="69" x="76"/>
		<rect fill="#000000ff" height="7" width="7" y="76" x="76"/>
		<rect fill="#000000ff" height="7" width="7" y="90" x="76"/>
		<rect fill="#000000ff" height="7" width="7" y="104" x="76"/>
		<rect fill="#000000ff" height="7" width="7" y="118" x="76"/>
		<rect fill="#000000ff" height="7" width="7" y="125" x="76"/>
		<rect fill="#000000ff" height="7" width="7" y="132" x="76"/>
		<rect fill="#000000ff" height="7" width="7" y="139" x="76"/>
		<rect fill="#000000ff" height="7" width="7" y="146" x="76"/>
		<rect fill="#000000ff" height="7" width="7" y="153" x="76"/>
		<rect fill="#000000ff" height="7" width="7" y="188" x="76"/>
		<rect fill="#000000ff" height="7" width="7" y="195" x="76"/>
		<rect fill="#000000ff" height="7" width="7" y="202" x="76"/>
		<rect fill="#000000ff" height="7" width="7" y="216" x="76"/>
		<rect fill="#000000ff" height="7" width="7" y="223" x="76"/>
		<rect fill="#000000ff" height="7" width="7" y="244" x="76"/>
		<rect fill="#000000ff" height="7" width="7" y="251" x="76"/>
		<rect fill="#000000ff" height="7" width="7" y="258" x="76"/>
		<rect fill="#000000ff" height="7" width="7" y="34" x="83"/>
		<rect fill="#000000ff" height="7" width="7" y="55" x="83"/>
		<rect fill="#000000ff" height="7" width="7" y="69" x="83"/>
		<rect fill="#000000ff" height="7" width="7" y="83" x="83"/>
		<rect fill="#000000ff" height="7" width="7" y="90" x="83"/>
		<rect fill="#000000ff" height="7" width="7" y="97" x="83"/>
		<rect fill="#000000ff" height="7" width="7" y="104" x="83"/>
		<rect fill="#000000ff" height="7" width="7" y="118" x="83"/>
		<rect fill="#000000ff" height="7" width="7" y="125" x="83"/>
		<rect fill="#000000ff" height="7" width="7" y="146" x="83"/>
		<rect fill="#000000ff" height="7" width="7" y="160" x="83"/>
		<rect fill="#000000ff" height="7" width="7" y="167" x="83"/>
		<rect fill="#000000ff" height="7" width="7" y="174" x="83"/>
		<rect fill="#000000ff" height="7" width="7" y="181" x="83"/>
		<rect fill="#000000ff" height="7" width="7" y="188" x="83"/>
		<rect fill="#000000ff" height="7" width="7" y="195" x="83"/>
		<rect fill="#000000ff" height="7" width="7" y="223" x="83"/>
		<rect fill="#000000ff" height="7" width="7" y="244" x="83"/>
		<rect fill="#000000ff" height="7" width="7" y="27" x="90"/>
		<rect fill="#000000ff" height="7" width="7" y="34" x="90"/>
		<rect fill="#000000ff" height="7" width="7" y="41" x="90"/>
		<rect fill="#000000ff" height="7" width="7" y="48" x="90"/>
		<rect fill="#000000ff" height="7" width="7" y="55" x="90"/>
		<rect fill="#000000ff" height="7" width="7" y="62" x="90"/>
		<rect fill="#000000ff" height="7" width="7" y="69" x="90"/>
		<rect fill="#000000ff" height="7" width="7" y="76" x="90"/>
		<rect fill="#000000ff" height="7" width="7" y="90" x="90"/>
		<rect fill="#000000ff" height="7" width="7" y="97" x="90"/>
		<rect fill="#000000ff" height="7" width="7" y="104" x="90"/>
		<rect fill="#000000ff" height="7" width="7" y="111" x="90"/>
		<rect fill="#000000ff" height="7" width="7" y="125" x="90"/>
		<rect fill="#000000ff" height="7" width="7" y="132" x="90"/>
		<rect fill="#000000ff" height="7" width="7" y="146" x="90"/>
		<rect fill="#000000ff" height="7" width="7" y="153" x="90"/>
		<rect fill="#000000ff" height="7" width="7" y="174" x="90"/>
		<rect fill="#000000ff" height="7" width="7" y="188" x="90"/>
		<rect fill="#000000ff" height="7" width="7" y="195" x="90"/>
		<rect fill="#000000ff" height="7" width="7" y="216" x="90"/>
		<rect fill="#000000ff" height="7" width="7" y="223" x="90"/>
		<rect fill="#000000ff" height="7" width="7" y="230" x="90"/>
		<rect fill="#000000ff" height="7" width="7" y="237" x="90"/>
		<rect fill="#000000ff" height="7" width="7" y="251" x="90"/>
		<rect fill="#000000ff" height="7" width="7" y="265" x="90"/>
		<rect fill="#000000ff" height="7" width="7" y="34" x="97"/>
		<rect fill="#000000ff" height="7" width="7" y="41" x="97"/>
		<rect fill="#000000ff" height="7" width="7" y="48" x="97"/>
		<rect fill="#000000ff" height="7" width="7" y="69" x="97"/>
		<rect fill="#000000ff" height="7" width="7" y="76" x="97"/>
		<rect fill="#000000ff" height="7" width="7" y="90" x="97"/>
		<rect fill="#000000ff" height="7" width="7" y="111" x="97"/>
		<rect fill="#000000ff" height="7" width="7" y="118" x="97"/>
		<rect fill="#000000ff" height="7" width="7" y="125" x="97"/>
		<rect fill="#000000ff" height="7" width="7" y="153" x="97"/>
		<rect fill="#000000ff" height="7" width="7" y="167" x="97"/>
		<rect fill="#000000ff" height="7" width="7" y="195" x="97"/>
		<rect fill="#000000ff" height="7" width="7" y="202" x="97"/>
		<rect fill="#000000ff" height="7" width="7" y="216" x="97"/>
		<rect fill="#000000ff" height="7" width="7" y="223" x="97"/>
		<rect fill="#000000ff" height="7" width="7" y="27" x="104"/>
		<rect fill="#000000ff" height="7" width="7" y="34" x="104"/>
		<rect fill="#000000ff" height="7" width="7" y="41" x="104"/>
		<rect fill="#000000ff" height="7" width="7" y="48" x="104"/>
		<rect fill="#000000ff" height="7" width="7" y="62" x="104"/>
		<rect fill="#000000ff" height="7" width="7" y="69" x="104"/>
		<rect fill="#000000ff" height="7" width="7" y="76" x="104"/>
		<rect fill="#000000ff" height="7" width="7" y="83" x="104"/>
		<rect fill="#000000ff" height="7" width="7" y="111" x="104"/>
		<rect fill="#000000ff" height="7" width="7" y="118" x="104"/>
		<rect fill="#000000ff" height="7" width="7" y="125" x="104"/>
		<rect fill="#000000ff" height="7" width="7" y="146" x="104"/>
		<rect fill="#000000ff" height="7" width="7" y="174" x="104"/>
		<rect fill="#000000ff" height="7" width="7" y="181" x="104"/>
		<rect fill="#000000ff" height="7" width="7" y="188" x="104"/>
		<rect fill="#000000ff" height="7" width="7" y="216" x="104"/>
		<rect fill="#000000ff" height="7" width="7" y="230" x="104"/>
		<rect fill="#000000ff" height="7" width="7" y="244" x="104"/>
		<rect fill="#000000ff" height="7" width="7" y="251" x="104"/>
		<rect fill="#000000ff" height="7" width="7" y="258" x="104"/>
		<rect fill="#000000ff" height="7" width="7" y="265" x="104"/>
		<rect fill="#000000ff" height="7" width="7" y="272" x="104"/>
		<rect fill="#000000ff" height="7" width="7" y="48" x="111"/>
		<rect fill="#000000ff" height="7" width="7" y="76" x="111"/>
		<rect fill="#000000ff" height="7" width="7" y="83" x="111"/>
		<rect fill="#000000ff" height="7" width="7" y="97" x="111"/>
		<rect fill="#000000ff" height="7" width="7" y="104" x="111"/>
		<rect fill="#000000ff" height="7" width="7" y="125" x="111"/>
		<rect fill="#000000ff" height="7" width="7" y="132" x="111"/>
		<rect fill="#000000ff" height="7" width="7" y="146" x="111"/>
		<rect fill="#000000ff" height="7" width="7" y="153" x="111"/>
		<rect fill="#000000ff" height="7" width="7" y="160" x="111"/>
		<rect fill="#000000ff" height="7" width="7" y="167" x="111"/>
		<rect fill="#000000ff" height="7" width="7" y="174" x="111"/>
		<rect fill="#000000ff" height="7" width="7" y="181" x="111"/>
		<rect fill="#000000ff" height="7" width="7" y="188" x="111"/>
		<rect fill="#000000ff" height="7" width="7" y="209" x="111"/>
		<rect fill="#000000ff" height="7" width="7" y="237" x="111"/>
		<rect fill="#000000ff" height="7" width="7" y="244" x="111"/>
		<rect fill="#000000ff" height="7" width="7" y="258" x="111"/>
		<rect fill="#000000ff" height="7" width="7" y="272" x="111"/>
		<rect fill="#000000ff" height="7" width="7" y="34" x="118"/>
		<rect fill="#000000ff" height="7" width="7" y="41" x="118"/>
		<rect fill="#000000ff" height="7" width="7" y="55" x="118"/>
		<rect fill="#000000ff" height="7" width="7" y="62" x="118"/>
		<rect fill="#000000ff" height="7" width="7" y="69" x="118"/>
		<rect fill="#000000ff" height="7" width="7" y="83" x="118"/>
		<rect fill="#000000ff" height="7" width="7" y="104" x="118"/>
		<rect fill="#000000ff" height="7" width="7" y="111" x="118"/>
		<rect fill="#000000ff" height="7" width="7" y="118" x="118"/>
		<rect fill="#000000ff" height="7" width="7" y="125" x="118"/>
		<rect fill="#000000ff" height="7" width="7" y="139" x="118"/>
		<rect fill="#000000ff" height="7" width="7" y="174" x="118"/>
		<rect fill="#000000ff" height="7" width="7" y="188" x="118"/>
		<rect fill="#000000ff" height="7" width="7" y="195" x="118"/>
		<rect fill="#000000ff" height="7" width="7" y="202" x="118"/>
		<rect fill="#000000ff" height="7" width="7" y="223" x="118"/>
		<rect fill="#000000ff" height="7" width="7" y="244" x="118"/>
		<rect fill="#000000ff" height="7" width="7" y="251" x="118"/>
		<rect fill="#000000ff" height="7" width="7" y="272" x="118"/>
		<rect fill="#000000ff" height="7" width="7" y="20" x="125"/>
		<rect fill="#000000ff" height="7" width="7" y="34" x="125"/>
		<rect fill="#000000ff" height="7" width="7" y="76" x="125"/>
		<rect fill="#000000ff" height="7" width="7" y="83" x="125"/>
		<rect fill="#000000ff" height="7" width="7" y="90" x="125"/>
		<rect fill="#000000ff" height="7" width="7" y="104" x="125"/>
		<rect fill="#000000ff" height="7" width="7" y="118" x="125"/>
		<rect fill="#000000ff" height="7" width="7" y="125" x="125"/>
		<rect fill="#000000ff" height="7" width="7" y="132" x="125"/>
		<rect fill="#000000ff" height="7" width="7" y="146" x="125"/>
		<rect fill="#000000ff" height="7" width="7" y="160" x="125"/>
		<rect fill="#000000ff" height="7" width="7" y="174" x="125"/>
		<rect fill="#000000ff" height="7" width="7" y="181" x="125"/>
		<rect fill="#000000ff" height="7" width="7" y="202" x="125"/>
		<rect fill="#000000ff" height="7" width="7" y="209" x="125"/>
		<rect fill="#000000ff" height="7" width="7" y="237" x="125"/>
		<rect fill="#000000ff" height="7" width="7" y="258" x="125"/>
		<rect fill="#000000ff" height="7" width="7" y="34" x="132"/>
		<rect fill="#000000ff" height="7" width="7" y="62" x="132"/>
		<rect fill="#000000ff" height="7" width="7" y="76" x="132"/>
		<rect fill="#000000ff" height="7" width="7" y="111" x="132"/>
		<rect fill="#000000ff" height="7" width="7" y="125" x="132"/>
		<rect fill="#000000ff" height="7" width="7" y="132" x="132"/>
		<rect fill="#000000ff" height="7" width="7" y="146" x="132"/>
		<rect fill="#000000ff" height="7" width="7" y="153" x="132"/>
		<rect fill="#000000ff" height="7" width="7" y="160" x="132"/>
		<rect fill="#000000ff" height="7" width="7" y="167" x="132"/>
		<rect fill="#000000ff" height="7" width="7" y="174" x="132"/>
		<rect fill="#000000ff" height="7" width="7" y="195" x="132"/>
		<rect fill="#000000ff" height="7" width="7" y="216" x="132"/>
		<rect fill="#000000ff" height="7" width="7" y="223" x="132"/>
		<rect fill="#000000ff" height="7" width="7" y="230" x="132"/>
		<rect fill="#000000ff" height="7" width="7" y="244" x="132"/>
		<rect fill="#000000ff" height="7" width="7" y="272" x="132"/>
		<rect fill="#000000ff" height="7" width="7" y="27" x="139"/>
		<rect fill="#000000ff" height="7" width="7" y="55" x="139"/>
		<rect fill="#000000ff" height="7" width="7" y="69" x="139"/>
		<rect fill="#000000ff" height="7" width="7" y="104" x="139"/>
		<rect fill="#000000ff" height="7" width="7" y="118" x="139"/>
		<rect fill="#000000ff" height="7" width="7" y="125" x="139"/>
		<rect fill="#000000ff" height="7" width="7" y="132" x="139"/>
		<rect fill="#000000ff" height="7" width="7" y="139" x="139"/>
		<rect fill="#000000ff" height="7" width="7" y="167" x="139"/>
		<rect fill="#000000ff" height="7" width="7" y="174" x="139"/>
		<rect fill="#000000ff" height="7" width="7" y="181" x="139"/>
		<rect fill="#000000ff" height="7" width="7" y="188" x="139"/>
		<rect fill="#000000ff" height="7" width="7" y="202" x="139"/>
		<rect fill="#000000ff" height="7" width="7" y="209" x="139"/>
		<rect fill="#000000ff" height="7" width="7" y="216" x="139"/>
		<rect fill="#000000ff" height="7" width="7" y="223" x="139"/>
		<rect fill="#000000ff" height="7" width="7" y="244" x="139"/>
		<rect fill="#000000ff" height="7" width="7" y="27" x="146"/>
		<rect fill="#000000ff" height="7" width="7" y="41" x="146"/>
		<rect fill="#000000ff" height="7" width="7" y="55" x="146"/>
		<rect fill="#000000ff" height="7" width="7" y="62" x="146"/>
		<rect fill="#000000ff" height="7" width="7" y="76" x="146"/>
		<rect fill="#000000ff" height="7" width="7" y="90" x="146"/>
		<rect fill="#000000ff" height="7" width="7" y="97" x="146"/>
		<rect fill="#000000ff" height="7" width="7" y="125" x="146"/>
		<rect fill="#000000ff" height="7" width="7" y="132" x="146"/>
		<rect fill="#000000ff" height="7" width="7" y="181" x="146"/>
		<rect fill="#000000ff" height="7" width="7" y="202" x="146"/>
		<rect fill="#000000ff" height="7" width="7" y="209" x="146"/>
		<rect fill="#000000ff" height="7" width="7" y="216" x="146"/>
		<rect fill="#000000ff" height="7" width="7" y="223" x="146"/>
		<rect fill="#000000ff" height="7" width="7" y="230" x="146"/>
		<rect fill="#000000ff" height="7" width="7" y="251" x="146"/>
		<rect fill="#000000ff" height="7" width="7" y="258" x="146"/>
		<rect fill="#000000ff" height="7" width="7" y="265" x="146"/>
		<rect fill="#000000ff" height="7" width="7" y="27" x="153"/>
		<rect fill="#000000ff" height="7" width="7" y="41" x="153"/>
		<rect fill="#000000ff" height="7" width="7" y="48" x="153"/>
		<rect fill="#000000ff" height="7" width="7" y="83" x="153"/>
		<rect fill="#000000ff" height="7" width="7" y="90" x="153"/>
		<rect fill="#000000ff" height="7" width="7" y="97" x="153"/>
		<rect fill="#000000ff" height="7" width="7" y="167" x="153"/>
		<rect fill="#000000ff" height="7" width="7" y="174" x="153"/>
		<rect fill="#000000ff" height="7" width="7" y="188" x="153"/>
		<rect fill="#000000ff" height="7" width="7" y="202" x="153"/>
		<rect fill="#000000ff" height="7" width="7" y="209" x="153"/>
		<rect fill="#000000ff" height="7" width="7" y="216" x="153"/>
		<rect fill="#000000ff" height="7" width="7" y="230" x="153"/>
		<rect fill="#000000ff" height="7" width="7" y="237" x="153"/>
		<rect fill="#000000ff" height="7" width="7" y="244" x="153"/>
		<rect fill="#000000ff" height="7" width="7" y="258" x="153"/>
		<rect fill="#000000ff" height="7" width="7" y="272" x="153"/>
		<rect fill="#000000ff" height="7" width="7" y="27" x="160"/>
		<rect fill="#000000ff" height="7" width="7" y="41" x="160"/>
		<rect fill="#000000ff" height="7" width="7" y="55" x="160"/>
		<rect fill="#000000ff" height="7" width="7" y="62" x="160"/>
		<rect fill="#000000ff" height="7" width="7" y="69" x="160"/>
		<rect fill="#000000ff" height="7" width="7" y="104" x="160"/>
		<rect fill="#000000ff" height="7" width="7" y="146" x="160"/>
		<rect fill="#000000ff" height="7" width="7" y="153" x="160"/>
		<rect fill="#000000ff" height="7" width="7" y="160" x="160"/>
		<rect fill="#000000ff" height="7" width="7" y="167" x="160"/>
		<rect fill="#000000ff" height="7" width="7" y="216" x="160"/>
		<rect fill="#000000ff" height="7" width="7" y="265" x="160"/>
		<rect fill="#000000ff" height="7" width="7" y="20" x="167"/>
		<rect fill="#000000ff" height="7" width="7" y="34" x="167"/>
		<rect fill="#000000ff" height="7" width="7" y="48" x="167"/>
		<rect fill="#000000ff" height="7" width="7" y="55" x="167"/>
		<rect fill="#000000ff" height="7" width="7" y="69" x="167"/>
		<rect fill="#000000ff" height="7" width="7" y="76" x="167"/>
		<rect fill="#000000ff" height="7" width="7" y="104" x="167"/>
		<rect fill="#000000ff" height="7" width="7" y="118" x="167"/>
		<rect fill="#000000ff" height="7" width="7" y="132" x="167"/>
		<rect fill="#000000ff" height="7" width="7" y="139" x="167"/>
		<rect fill="#000000ff" height="7" width="7" y="153" x="167"/>
		<rect fill="#000000ff" height="7" width="7" y="160" x="167"/>
		<rect fill="#000000ff" height="7" width="7" y="167" x="167"/>
		<rect fill="#000000ff" height="7" width="7" y="181" x="167"/>
		<rect fill="#000000ff" height="7" width="7" y="188" x="167"/>
		<rect fill="#000000ff" height="7" width="7" y="202" x="167"/>
		<rect fill="#000000ff" height="7" width="7" y="209" x="167"/>
		<rect fill="#000000ff" height="7" width="7" y="216" x="167"/>
		<rect fill="#000000ff" height="7" width="7" y="237" x="167"/>
		<rect fill="#000000ff" height="7" width="7" y="244" x="167"/>
		<rect fill="#000000ff" height="7" width="7" y="258" x="167"/>
		<rect fill="#000000ff" height="7" width="7" y="265" x="167"/>
		<rect fill="#000000ff" height="7" width="7" y="41" x="174"/>
		<rect fill="#000000ff" height="7" width="7" y="48" x="174"/>
		<rect fill="#000000ff" height="7" width="7" y="62" x="174"/>
		<rect fill="#000000ff" height="7" width="7" y="104" x="174"/>
		<rect fill="#000000ff" height="7" width="7" y="111" x="174"/>
		<rect fill="#000000ff" height="7" width="7" y="125" x="174"/>
		<rect fill="#000000ff" height="7" width="7" y="139" x="174"/>
		<rect fill="#000000ff" height="7" width="7" y="181" x="174"/>
		<rect fill="#000000ff" height="7" width="7" y="188" x="174"/>
		<rect fill="#000000ff" height="7" width="7" y="244" x="174"/>
		<rect fill="#000000ff" height="7" width="7" y="265" x="174"/>
		<rect fill="#000000ff" height="7" width="7" y="272" x="174"/>
		<rect fill="#000000ff" height="7" width="7" y="20" x="181"/>
		<rect fill="#000000ff" height="7" width="7" y="27" x="181"/>
		<rect fill="#000000ff" height="7" width="7" y="41" x="181"/>
		<rect fill="#000000ff" height="7" width="7" y="83" x="181"/>
		<rect fill="#000000ff" height="7" width="7" y="97" x="181"/>
		<rect fill="#000000ff" height="7" width="7" y="104" x="181"/>
		<rect fill="#000000ff" height="7" width="7" y="118" x="181"/>
		<rect fill="#000000ff" height="7" width="7" y="125" x="181"/>
		<rect fill="#000000ff" height="7" width="7" y="132" x="181"/>
		<rect fill="#000000ff" height="7" width="7" y="139" x="181"/>
		<rect fill="#000000ff" height="7" width="7" y="167" x="181"/>
		<rect fill="#000000ff" height="7" width="7" y="174" x="181"/>
		<rect fill="#000000ff" height="7" width="7" y="188" x="181"/>
		<rect fill="#000000ff" height="7" width="7" y="202" x="181"/>
		<rect fill="#000000ff" height="7" width="7" y="251" x="181"/>
		<rect fill="#000000ff" height="7" width="7" y="258" x="181"/>
		<rect fill="#000000ff" height="7" width="7" y="265" x="181"/>
		<rect fill="#000000ff" height="7" width="7" y="20" x="188"/>
		<rect fill="#000000ff" height="7" width="7" y="41" x="188"/>
		<rect fill="#000000ff" height="7" width="7" y="48" x="188"/>
		<rect fill="#000000ff" height="7" width="7" y="62" x="188"/>
		<rect fill="#000000ff" height="7" width="7" y="97" x="188"/>
		<rect fill="#000000ff" height="7" width="7" y="118" x="188"/>
		<rect fill="#000000ff" height="7" width="7" y="125" x="188"/>
		<rect fill="#000000ff" height="7" width="7" y="132" x="188"/>
		<rect fill="#000000ff" height="7" width="7" y="139" x="188"/>
		<rect fill="#000000ff" height="7" width="7" y="153" x="188"/>
		<rect fill="#000000ff" height="7" width="7" y="167" x="188"/>
		<rect fill="#000000ff" height="7" width="7" y="181" x="188"/>
		<rect fill="#000000ff" height="7" width="7" y="188" x="188"/>
		<rect fill="#000000ff" height="7" width="7" y="195" x="188"/>
		<rect fill="#000000ff" height="7" width="7" y="202" x="188"/>
		<rect fill="#000000ff" height="7" width="7" y="230" x="188"/>
		<rect fill="#000000ff" height="7" width="7" y="258" x="188"/>
		<rect fill="#000000ff" height="7" width="7" y="272" x="188"/>
		<rect fill="#000000ff" height="7" width="7" y="27" x="195"/>
		<rect fill="#000000ff" height="7" width="7" y="55" x="195"/>
		<rect fill="#000000ff" height="7" width="7" y="69" x="195"/>
		<rect fill="#000000ff" height="7" width="7" y="90" x="195"/>
		<rect fill="#000000ff" height="7" width="7" y="97" x="195"/>
		<rect fill="#000000ff" height="7" width="7" y="104" x="195"/>
		<rect fill="#000000ff" height="7" width="7" y="118" x="195"/>
		<rect fill="#000000ff" height="7" width="7" y="132" x="195"/>
		<rect fill="#000000ff" height="7" width="7" y="174" x="195"/>
		<rect fill="#000000ff" height="7" width="7" y="188" x="195"/>
		<rect fill="#000000ff" height="7" width="7" y="202" x="195"/>
		<rect fill="#000000ff" height="7" width="7" y="216" x="195"/>
		<rect fill="#000000ff" height="7" width="7" y="230" x="195"/>
		<rect fill="#000000ff" height="7" width="7" y="237" x="195"/>
		<rect fill="#000000ff" height="7" width="7" y="244" x="195"/>
		<rect fill="#000000ff" height="7" width="7" y="27" x="202"/>
		<rect fill="#000000ff" height="7" width="7" y="48" x="202"/>
		<rect fill="#000000ff" height="7" width="7" y="62" x="202"/>
		<rect fill="#000000ff" height="7" width="7" y="69" x="202"/>
		<rect fill="#000000ff" height="7" width="7" y="83" x="202"/>
		<rect fill="#000000ff" height="7" width="7" y="104" x="202"/>
		<rect fill="#000000ff" height="7" width="7" y="111" x="202"/>
		<rect fill="#000000ff" height="7" width="7" y="118" x="202"/>
		<rect fill="#000000ff" height="7" width="7" y="139" x="202"/>
		<rect fill="#000000ff" height="7" width="7" y="146" x="202"/>
		<rect fill="#000000ff" height="7" width="7" y="167" x="202"/>
		<rect fill="#000000ff" height="7" width="7" y="181" x="202"/>
		<rect fill="#000000ff" height="7" width="7" y="195" x="202"/>
		<rect fill="#000000ff" height="7" width="7" y="202" x="202"/>
		<rect fill="#000000ff" height="7" width="7" y="209" x="202"/>
		<rect fill="#000000ff" height="7" width="7" y="216" x="202"/>
		<rect fill="#000000ff" height="7" width="7" y="223" x="202"/>
		<rect fill="#000000ff" height="7" width="7" y="230" x="202"/>
		<rect fill="#000000ff" height="7" width="7" y="244" x="202"/>
		<rect fill="#000000ff" height="7" width="7" y="251" x="202"/>
		<rect fill="#000000ff" height="7" width="7" y="258" x="202"/>
		<rect fill="#000000ff" height="7" width="7" y="265" x="202"/>
		<rect fill="#000000ff" height="7" width="7" y="41" x="209"/>
		<rect fill="#000000ff" height="7" width="7" y="76" x="209"/>
		<rect fill="#000000ff" height="7" width="7" y="83" x="209"/>
		<rect fill="#000000ff" height="7" width="7" y="97" x="209"/>
		<rect fill="#000000ff" height="7" width="7" y="104" x="209"/>
		<rect fill="#000000ff" height="7" width="7" y="118" x="209"/>
		<rect fill="#000000ff" height="7" width="7" y="132" x="209"/>
		<rect fill="#000000ff" height="7" width="7" y="139" x="209"/>
		<rect fill="#000000ff" height="7" width="7" y="146" x="209"/>
		<rect fill="#000000ff" height="7" width="7" y="160" x="209"/>
		<rect fill="#000000ff" height="7" width="7" y="188" x="209"/>
		<rect fill="#000000ff" height="7" width="7" y="202" x="209"/>
		<rect fill="#000000ff" height="7" width="7" y="216" x="209"/>
		<rect fill="#000000ff" height="7" width="7" y="230" x="209"/>
		<rect fill="#000000ff" height="7" width="7" y="237" x="209"/>
		<rect fill="#000000ff" height="7" width="7" y="258" x="209"/>
		<rect fill="#000000ff" height="7" width="7" y="272" x="209"/>
		<rect fill="#000000ff" height="7" width="7" y="20" x="216"/>
		<rect fill="#000000ff" height="7" width="7" y="41" x="216"/>
		<rect fill="#000000ff" height="7" width="7" y="48" x="216"/>
		<rect fill="#000000ff" height="7" width="7" y="62" x="216"/>
		<rect fill="#000000ff" height="7" width="7" y="83" x="216"/>
		<rect fill="#000000ff" height="7" width="7" y="97" x="216"/>
		<rect fill="#000000ff" height="7" width="7" y="104" x="216"/>
		<rect fill="#000000ff" height="7" width="7" y="111" x="216"/>
		<rect fill="#000000ff" height="7" width="7" y="118" x="216"/>
		<rect fill="#000000ff" height="7" width="7" y="125" x="216"/>
		<rect fill="#000000ff" height="7" width="7" y="132" x="216"/>
		<rect fill="#000000ff" height="7" width="7" y="146" x="216"/>
		<rect fill="#000000ff" height="7" width="7" y="153" x="216"/>
		<rect fill="#000000ff" height="7" width="7" y="174" x="216"/>
		<rect fill="#000000ff" height="7" width="7" y="188" x="216"/>
		<rect fill="#000000ff" height="7" width="7" y="209" x="216"/>
		<rect fill="#000000ff" height="7" width="7" y="216" x="216"/>
		<rect fill="#000000ff" height="7" width="7" y="223" x="216"/>
		<rect fill="#000000ff" height="7" width="7" y="230" x="216"/>
		<rect fill="#000000ff" height="7" width="7" y="237" x="216"/>
		<rect fill="#000000ff" height="7" width="7" y="244" x="216"/>
		<rect fill="#000000ff" height="7" width="7" y="251" x="216"/>
		<rect fill="#000000ff" height="7" width="7" y="76" x="223"/>
		<rect fill="#000000ff" height="7" width="7" y="90" x="223"/>
		<rect fill="#000000ff" height="7" width="7" y="97" x="223"/>
		<rect fill="#000000ff" height="7" width="7" y="104" x="223"/>
		<rect fill="#000000ff" height="7" width="7" y="132" x="223"/>
		<rect fill="#000000ff" height="7" width="7" y="146" x="223"/>
		<rect fill="#000000ff" height="7" width="7" y="153" x="223"/>
		<rect fill="#000000ff" height="7" width="7" y="167" x="223"/>
		<rect fill="#000000ff" height="7" width="7" y="174" x="223"/>
		<rect fill="#000000ff" height="7" width="7" y="181" x="223"/>
		<rect fill="#000000ff" height="7" width="7" y="188" x="223"/>
		<rect fill="#000000ff" height="7" width="7" y="195" x="223"/>
		<rect fill="#000000ff" height="7" width="7" y="202" x="223"/>
		<rect fill="#000000ff" height="7" width="7" y="209" x="223"/>
		<rect fill="#000000ff" height="7" width="7" y="216" x="223"/>
		<rect fill="#000000ff" height="7" width="7" y="244" x="223"/>
		<rect fill="#000000ff" height="7" width="7" y="265" x="223"/>
		<rect fill="#000000ff" height="7" width="7" y="272" x="223"/>
		<rect fill="#000000ff" height="7" width="7" y="76" x="230"/>
		<rect fill="#000000ff" height="7" width="7" y="90" x="230"/>
		<rect fill="#000000ff" height="7" width="7" y="104" x="230"/>
		<rect fill="#000000ff" height="7" width="7" y="111" x="230"/>
		<rect fill="#000000ff" height="7" width="7" y="118" x="230"/>
		<rect fill="#000000ff" height="7" width="7" y="146" x="230"/>
		<rect fill="#000000ff" height="7" width="7" y="153" x="230"/>
		<rect fill="#000000ff" height="7" width="7" y="160" x="230"/>
		<rect fill="#000000ff" height="7" width="7" y="174" x="230"/>
		<rect fill="#000000ff" height="7" width="7" y="181" x="230"/>
		<rect fill="#000000ff" height="7" width="7" y="188" x="230"/>
		<rect fill="#000000ff" height="7" width="7" y="195" x="230"/>
		<rect fill="#000000ff" height="7" width="7" y="202" x="230"/>
		<rect fill="#000000ff" height="7" width="7" y="216" x="230"/>
		<rect fill="#000000ff" height="7" width="7" y="230" x="230"/>
		<rect fill="#000000ff" height="7" width="7" y="244" x="230"/>
		<rect fill="#000000ff" height="7" width="7" y="251" x="230"/>
		<rect fill="#000000ff" height="7" width="7" y="258" x="230"/>
		<rect fill="#000000ff" height="7" width="7" y="265" x="230"/>
		<rect fill="#000000ff" height="7" width="7" y="76" x="237"/>
		<rect fill="#000000ff" height="7" width="7" y="90" x="237"/>
		<rect fill="#000000ff" height="7" width="7" y="97" x="237"/>
		<rect fill="#000000ff" height="7" width="7" y="111" x="237"/>
		<rect fill="#000000ff" height="7" width="7" y="125" x="237"/>
		<rect fill="#000000ff" height="7" width="7" y="139" x="237"/>
		<rect fill="#000000ff" height="7" width="7" y="153" x="237"/>
		<rect fill="#000000ff" height="7" width="7" y="167" x="237"/>
		<rect fill="#000000ff" height="7" width="7" y="174" x="237"/>
		<rect fill="#000000ff" height="7" width="7" y="181" x="237"/>
		<rect fill="#000000ff" height="7" width="7" y="202" x="237"/>
		<rect fill="#000000ff" height="7" width="7" y="216" x="237"/>
		<rect fill="#000000ff" height="7" width="7" y="244" x="237"/>
		<rect fill="#000000ff" height="7" width="7" y="251" x="237"/>
		<rect fill="#000000ff" height="7" width="7" y="258" x="237"/>
		<rect fill="#000000ff" height="7" width="7" y="90" x="244"/>
		<rect fill="#000000ff" height="7" width="7" y="104" x="244"/>
		<rect fill="#000000ff" height="7" width="7" y="132" x="244"/>
		<rect fill="#000000ff" height="7" width="7" y="139" x="244"/>
		<rect fill="#000000ff" height="7" width="7" y="146" x="244"/>
		<rect fill="#000000ff" height="7" width="7" y="174" x="244"/>
		<rect fill="#000000ff" height="7" width="7" y="195" x="244"/>
		<rect fill="#000000ff" height="7" width="7" y="202" x="244"/>
		<rect fill="#000000ff" height="7" width="7" y="216" x="244"/>
		<rect fill="#000000ff" height="7" width="7" y="223" x="244"/>
		<rect fill="#000000ff" height="7" width="7" y="230" x="244"/>
		<rect fill="#000000ff" height="7" width="7" y="237" x="244"/>
		<rect fill="#000000ff" height="7" width="7" y="244" x="244"/>
		<rect fill="#000000ff" height="7" width="7" y="251" x="244"/>
		<rect fill="#000000ff" height="7" width="7" y="258" x="244"/>
		<rect fill="#000000ff" height="7" width="7" y="265" x="244"/>
		<rect fill="#000000ff" height="7" width="7" y="83" x="251"/>
		<rect fill="#000000ff" height="7" width="7" y="97" x="251"/>
		<rect fill="#000000ff" height="7" width="7" y="111" x="251"/>
		<rect fill="#000000ff" height="7" width="7" y="118" x="251"/>
		<rect fill="#000000ff" height="7" width="7" y="125" x="251"/>
		<rect fill="#000000ff" height="7" width="7" y="153" x="251"/>
		<rect fill="#000000ff" height="7" width="7" y="160" x="251"/>
		<rect fill="#000000ff" height="7" width="7" y="181" x="251"/>
		<rect fill="#000000ff" height="7" width="7" y="188" x="251"/>
		<rect fill="#000000ff" height="7" width="7" y="195" x="251"/>
		<rect fill="#000000ff" height="7" width="7" y="230" x="251"/>
		<rect fill="#000000ff" height="7" width="7" y="237" x="251"/>
		<rect fill="#000000ff" height="7" width="7" y="244" x="251"/>
		<rect fill="#000000ff" height="7" width="7" y="258" x="251"/>
		<rect fill="#000000ff" height="7" width="7" y="265" x="251"/>
		<rect fill="#000000ff" height="7" width="7" y="76" x="258"/>
		<rect fill="#000000ff" height="7" width="7" y="90" x="258"/>
		<rect fill="#000000ff" height="7" width="7" y="118" x="258"/>
		<rect fill="#000000ff" height="7" width="7" y="125" x="258"/>
		<rect fill="#000000ff" height="7" width="7" y="132" x="258"/>
		<rect fill="#000000ff" height="7" width="7" y="146" x="258"/>
		<rect fill="#000000ff" height="7" width="7" y="153" x="258"/>
		<rect fill="#000000ff" height="7" width="7" y="174" x="258"/>
		<rect fill="#000000ff" height="7" width="7" y="188" x="258"/>
		<rect fill="#000000ff" height="7" width="7" y="202" x="258"/>
		<rect fill="#000000ff" height="7" width="7" y="216" x="258"/>
		<rect fill="#000000ff" height="7" width="7" y="230" x="258"/>
		<rect fill="#000000ff" height="7" width="7" y="237" x="258"/>
		<rect fill="#000000ff" height="7" width="7" y="258" x="258"/>
		<rect fill="#000000ff" height="7" width="7" y="265" x="258"/>
		<rect fill="#000000ff" height="7" width="7" y="76" x="265"/>
		<rect fill="#000000ff" height="7" width="7" y="83" x="265"/>
		<rect fill="#000000ff" height="7" width="7" y="90" x="265"/>
		<rect fill="#000000ff" height="7" width="7" y="111" x="265"/>
		<rect fill="#000000ff" height="7" width="7" y="132" x="265"/>
		<rect fill="#000000ff" height="7" width="7" y="146" x="265"/>
		<rect fill="#000000ff" height="7" width="7" y="167" x="265"/>
		<rect fill="#000000ff" height="7" width="7" y="174" x="265"/>
		<rect fill="#000000ff" height="7" width="7" y="188" x="265"/>
		<rect fill="#000000ff" height="7" width="7" y="195" x="265"/>
		<rect fill="#000000ff" height="7" width="7" y="202" x="265"/>
		<rect fill="#000000ff" height="7" width="7" y="216" x="265"/>
		<rect fill="#000000ff" height="7" width="7" y="223" x="265"/>
		<rect fill="#000000ff" height="7" width="7" y="230" x="265"/>
		<rect fill="#000000ff" height="7" width="7" y="244" x="265"/>
		<rect fill="#000000ff" height="7" width="7" y="251" x="265"/>
		<rect fill="#000000ff" height="7" width="7" y="265" x="265"/>
		<rect fill="#000000ff" height="7" width="7" y="272" x="265"/>
		<rect fill="#000000ff" height="7" width="7" y="76" x="272"/>
		<rect fill="#000000ff" height="7" width="7" y="104" x="272"/>
		<rect fill="#000000ff" height="7" width="7" y="111" x="272"/>
		<rect fill="#000000ff" height="7" width="7" y="132" x="272"/>
		<rect fill="#000000ff" height="7" width="7" y="139" x="272"/>
		<rect fill="#000000ff" height="7" width="7" y="146" x="272"/>
		<rect fill="#000000ff" height="7" width="7" y="174" x="272"/>
		<rect fill="#000000ff" height="7" width="7" y="188" x="272"/>
		<rect fill="#000000ff" height="7" width="7" y="195" x="272"/>
		<rect fill="#000000ff" height="7" width="7" y="216" x="272"/>
		<rect fill="#000000ff" height="7" width="7" y="223" x="272"/>
		<rect fill="#000000ff" height="7" width="7" y="230" x="272"/>
		<rect fill="#000000ff" height="7" width="7" y="244" x="272"/>
		<rect fill="#000000ff" height="7" width="7" y="251" x="272"/>
		<rect fill="#000000ff" height="7" width="7" y="258" x="272"/>
		<rect fill="#000000ff" height="7" width="7" y="272" x="272"/>

	</g>
</svg>