<?xml version="1.0" encoding="utf-8"?>
<svg xmlns="http://www.w3.org/2000/svg" xmlns:xlink="http://www.w3.org/1999/xlink" width="300" height="300" viewBox="0 0 300 300">

	<g id="qr">
		<rect fill="#ffffffff" height="300" width="300" y="0" x="0"/>
		<rect fill="#000000ff" height="5" width="5" y="21" x="21"/>
		<rect fill="#000000ff" height="5" width="5" y="28" x="21"/>
		<rect fill="#000000ff" height="5" width="5" y="35" x="21"/>
		<rect fill="#000000ff" height="5" width="5" y="42" x="21"/>
		<rect fill="#000000ff" height="5" width="5" y="49" x="21"/>
		<rect fill="#000000ff" height="5" width="5" y="56" x="21"/>
		<rect fill="#000000ff" height="5" width="5" y="63" x="21"/>
		<rect fill="#000000ff" height="5" width="5" y="84" x="21"/>
		<rect fill="#000000ff" height="5" width="5" y="105" x="21"/>
		<rect fill="#000000ff" height="5" width="5" y="147" x="21"/>
		<rect fill="#000000ff" height="5" width="5" y="182" x="21"/>
		<rect fill="#000000ff" height="5" width="5" y="196" x="21"/>
		<rect fill="#000000ff" height="5" width="5" y="203" x="21"/>
		<rect fill="#000000ff" height="5" width="5" y="210" x="21"/>
		<rect fill="#000000ff" height="5" width="5" y="217" x="21"/>
		<rect fill="#000000ff" height="5" width="5" y="231" x="21"/>
		<rect fill="#000000ff" height="5" width="5" y="238" x="21"/>
		<rect fill="#000000ff" height="5" width="5" y="245" x="21"/>
		<rect fill="#000000ff" height="5" width="5" y="252" x="21"/>
		<rect fill="#000000ff" height="5" width="5" y="259" x="21"/>
		<rect fill="#000000ff" height="5" width="5" y="266" x="21"/>
		<rect fill="#000000ff" height="5" width="5" y="273" x="21"/>
		<rect fill="#000000ff" height="5" width="5" y="21" x="28"/>
		<rect fill="#000000ff" height="5" width="5" y="63" x="28"/>
		<rect fill="#000000ff" height="5" width="5" y="119" x="28"/>
		<rect fill="#000000ff" height="5" width="5" y="126" x="28"/>
		<rect fill="#000000ff" height="5" width="5" y="147" x="28"/>
		<rect fill="#000000ff" height="5" width="5" y="175" x="28"/>
		<rect fill="#000000ff" height="5" width="5" y="182" x="28"/>
		<rect fill="#000000ff" height="5" width="5" y="196" x="28"/>
		<rect fill="#000000ff" height="5" width="5" y="231" x="28"/>
		<rect fill="#000000ff" height="5" width="5" y="273" x="28"/>
		<rect fill="#000000ff" height="5" width="5" y="21" x="35"/>
		<rect fill="#000000ff" height="5" width="5" y="35" x="35"/>
		<rect fill="#000000ff" height="5" width="5" y="42" x="35"/>
		<rect fill="#000000ff" height="5" width="5" y="49" x="35"/>
		<rect fill="#000000ff" height="5" width="5" y="63" x="35"/>
		<rect fill="#000000ff" height="5" width="5" y="77" x="35"/>
		<rect fill="#000000ff" height="5" width="5" y="91" x="35"/>
		<rect fill="#000000ff" height="5" width="5" y="105" x="35"/>
		<rect fill="#000000ff" height="5" width="5" y="119" x="35"/>
		<rect fill="#000000ff" height="5" width="5" y="140" x="35"/>
		<rect fill="#000000ff" height="5" width="5" y="154" x="35"/>
		<rect fill="#000000ff" height="5" width="5" y="161" x="35"/>
		<rect fill="#000000ff" height="5" width="5" y="168" x="35"/>
		<rect fill="#000000ff" height="5" width="5" y="175" x="35"/>
		<rect fill="#000000ff" height="5" width="5" y="203" x="35"/>
		<rect fill="#000000ff" height="5" width="5" y="210" x="35"/>
		<rect fill="#000000ff" height="5" width="5" y="217" x="35"/>
		<rect fill="#000000ff" height="5" width="5" y="231" x="35"/>
		<rect fill="#000000ff" height="5" width="5" y="245" x="35"/>
		<rect fill="#000000ff" height="5" width="5" y="252" x="35"/>
		<rect fill="#000000ff" height="5" width="5" y="259" x="35"/>
		<rect fill="#000000ff" height="5" width="5" y="273" x="35"/>
		<rect fill="#000000ff" height="5" width="5" y="21" x="42"/>
		<rect fill="#000000ff" height="5" width="5" y="35" x="42"/>
		<rect fill="#000000ff" height="5" width="5" y="42" x="42"/>
		<rect fill="#000000ff" height="5" width="5" y="49" x="42"/>
		<rect fill="#000000ff" height="5" width="5" y="63" x="42"/>
		<rect fill="#000000ff" height="5" width="5" y="77" x="42"/>
		<rect fill="#000000ff" height="5" width="5" y="105" x="42"/>
		<rect fill="#000000ff" height="5" width="5" y="112" x="42"/>
		<rect fill="#000000ff" height="5" width="5" y="119" x="42"/>
		<rect fill="#000000ff" height="5" width="5" y="126" x="42"/>
		<rect fill="#000000ff" height="5" width="5" y="140" x="42"/>
		<rect fill="#000000ff" height="5" width="5" y="147" x="42"/>
		<rect fill="#000000ff" height="5" width="5" y="161" x="42"/>
		<rect fill="#000000ff" height="5" width="5" y="196" x="42"/>
		<rect fill="#000000ff" height="5" width="5" y="210" x="42"/>
		<rect fill="#000000ff" height="5" width="5" y="231" x="42"/>
		<rect fill="#000000ff" height="5" width="5" y="245" x="42"/>
		<rect fill="#000000ff" height="5" width="5" y="252" x="42"/>
		<rect fill="#000000ff" height="5" width="5" y="259" x="42"/>
		<rect fill="#000000ff" height="5" width="5" y="273" x="42"/>
		<rect fill="#000000ff" height="5" width="5" y="21" x="49"/>
		<rect fill="#000000ff" height="5" width="5" y="35" x="49"/>
		<rect fill="#000000ff" height="5" width="5" y="42" x="49"/>
		<rect fill="#000000ff" height="5" width="5" y="49" x="49"/>
		<rect fill="#000000ff" height="5" width="5" y="63" x="49"/>
		<rect fill="#000000ff" height="5" width="5" y="77" x="49"/>
		<rect fill="#000000ff" height="5" width="5" y="84" x="49"/>
		<rect fill="#000000ff" height="5" width="5" y="91" x="49"/>
		<rect fill="#000000ff" height="5" width="5" y="98" x="49"/>
		<rect fill="#000000ff" height="5" width="5" y="105" x="49"/>
		<rect fill="#000000ff" height="5" width="5" y="112" x="49"/>
		<rect fill="#000000ff" height="5" width="5" y="119" x="49"/>
		<rect fill="#000000ff" height="5" width="5" y="126" x="49"/>
		<rect fill="#000000ff" height="5" width="5" y="140" x="49"/>
		<rect fill="#000000ff" height="5" width="5" y="175" x="49"/>
		<rect fill="#000000ff" height="5" width="5" y="196" x="49"/>
		<rect fill="#000000ff" height="5" width="5" y="203" x="49"/>
		<rect fill="#000000ff" height="5" width="5" y="210" x="49"/>
		<rect fill="#000000ff" height="5" width="5" y="217" x="49"/>
		<rect fill="#000000ff" height="5" width="5" y="231" x="49"/>
		<rect fill="#000000ff" height="5" width="5" y="245" x="49"/>
		<rect fill="#000000ff" height="5" width="5" y="252" x="49"/>
		<rect fill="#000000ff" height="5" width="5" y="259" x="49"/>
		<rect fill="#000000ff" height="5" width="5" y="273" x="49"/>
		<rect fill="#000000ff" height="5" width="5" y="21" x="56"/>
		<rect fill="#000000ff" height="5" width="5" y="63" x="56"/>
		<rect fill="#000000ff" height="5" width="5" y="91" x="56"/>
		<rect fill="#000000ff" height="5" width="5" y="98" x="56"/>
		<rect fill="#000000ff" height="5" width="5" y="112" x="56"/>
		<rect fill="#000000ff" height="5" width="5" y="119" x="56"/>
		<rect fill="#000000ff" height="5" width="5" y="126" x="56"/>
		<rect fill="#000000ff" height="5" width="5" y="133" x="56"/>
		<rect fill="#000000ff" height="5" width="5" y="140" x="56"/>
		<rect fill="#000000ff" height="5" width="5" y="168" x="56"/>
		<rect fill="#000000ff" height="5" width="5" y="182" x="56"/>
		<rect fill="#000000ff" height="5" width="5" y="196" x="56"/>
		<rect fill="#000000ff" height="5" width="5" y="231" x="56"/>
		<rect fill="#000000ff" height="5" width="5" y="273" x="56"/>
		<rect fill="#000000ff" height="5" width="5" y="21" x="63"/>
		<rect fill="#000000ff" height="5" width="5" y="28" x="63"/>
		<rect fill="#000000ff" height="5" width="5" y="35" x="63"/>
		<rect fill="#000000ff" height="5" width="5" y="42" x="63"/>
		<rect fill="#000000ff" height="5" width="5" y="49" x="63"/>
		<rect fill="#000000ff" height="5" width="5" y="56" x="63"/>
		<rect fill="#000000ff" height="5" width="5" y="63" x="63"/>
		<rect fill="#000000ff" height="5" width="5" y="77" x="63"/>
		<rect fill="#000000ff" height="5" width="5" y="91" x="63"/>
		<rect fill="#000000ff" height="5" width="5" y="105" x="63"/>
		<rect fill="#000000ff" height="5" width="5" y="119" x="63"/>
		<rect fill="#000000ff" height="5" width="5" y="133" x="63"/>
		<rect fill="#000000ff" height="5" width="5" y="147" x="63"/>
		<rect fill="#000000ff" height="5" width="5" y="161" x="63"/>
		<rect fill="#000000ff" height="5" width="5" y="175" x="63"/>
		<rect fill="#000000ff" height="5" width="5" y="189" x="63"/>
		<rect fill="#000000ff" height="5" width="5" y="203" x="63"/>
		<rect fill="#000000ff" height="5" width="5" y="217" x="63"/>
		<rect fill="#000000ff" height="5" width="5" y="231" x="63"/>
		<rect fill="#000000ff" height="5" width="5" y="238" x="63"/>
		<rect fill="#000000ff" height="5" width="5" y="245" x="63"/>
		<rect fill="#000000ff" height="5" width="5" y="252" x="63"/>
		<rect fill="#000000ff" height="5" width="5" y="259" x="63"/>
		<rect fill="#000000ff" height="5" width="5" y="266" x="63"/>
		<rect fill="#000000ff" height="5" width="5" y="273" x="63"/>
		<rect fill="#000000ff" height="5" width="5" y="91" x="70"/>
		<rect fill="#000000ff" height="5" width="5" y="126" x="70"/>
		<rect fill="#000000ff" height="5" width="5" y="147" x="70"/>
		<rect fill="#000000ff" height="5" width="5" y="161" x="70"/>
		<rect fill="#000000ff" height="5" width="5" y="182" x="70"/>
		<rect fill="#000000ff" height="5" width="5" y="196" x="70"/>
		<rect fill="#000000ff" height="5" width="5" y="210" x="70"/>
		<rect fill="#000000ff" height="5" width="5" y="217" x="70"/>
		<rect fill="#000000ff" height="5" width="5" y="21" x="77"/>
		<rect fill="#000000ff" height="5" width="5" y="28" x="77"/>
		<rect fill="#000000ff" height="5" width="5" y="35" x="77"/>
		<rect fill="#000000ff" height="5" width="5" y="56" x="77"/>
		<rect fill="#000000ff" height="5" width="5" y="63" x="77"/>
		<rect fill="#000000ff" height="5" width="5" y="70" x="77"/>
		<rect fill="#000000ff" height="5" width="5" y="77" x="77"/>
		<rect fill="#000000ff" height="5" width="5" y="91" x="77"/>
		<rect fill="#000000ff" height="5" width="5" y="105" x="77"/>
		<rect fill="#000000ff" height="5" width="5" y="119" x="77"/>
		<rect fill="#000000ff" height="5" width="5" y="126" x="77"/>
		<rect fill="#000000ff" height="5" width="5" y="133" x="77"/>
		<rect fill="#000000ff" height="5" width="5" y="140" x="77"/>
		<rect fill="#000000ff" height="5" width="5" y="147" x="77"/>
		<rect fill="#000000ff" height="5" width="5" y="154" x="77"/>
		<rect fill="#000000ff" height="5" width="5" y="189" x="77"/>
		<rect fill="#000000ff" height="5" width="5" y="196" x="77"/>
		<rect fill="#000000ff" height="5" width="5" y="203" x="77"/>
		<rect fill="#000000ff" height="5" width="5" y="217" x="77"/>
		<rect fill="#000000ff" height="5" width="5" y="224" x="77"/>
		<rect fill="#000000ff" height="5" width="5" y="245" x="77"/>
		<rect fill="#000000ff" height="5" width="5" y="252" x="77"/>
		<rect fill="#000000ff" height="5" width="5" y="259" x="77"/>
		<rect fill="#000000ff" height="5" width="5" y="35" x="84"/>
		<rect fill="#000000ff" height="5" width="5" y="56" x="84"/>
		<rect fill="#000000ff" height="5" width="5" y="70" x="84"/>
		<rect fill="#000000ff" height="5" width="5" y="84" x="84"/>
		<rect fill="#000000ff" height="5" width="5" y="91" x="84"/>
		<rect fill="#000000ff" height="5" width="5" y="98" x="84"/>
		<rect fill="#000000ff" height="5" width="5" y="105" x="84"/>
		<rect fill="#000000ff" height="5" width="5" y="119" x="84"/>
		<rect fill="#000000ff" height="5" width="5" y="126" x="84"/>
		<rect fill="#000000ff" height="5" width="5" y="147" x="84"/>
		<rect fill="#000000ff" height="5" width="5" y="161" x="84"/>
		<rect fill="#000000ff" height="5" width="5" y="168" x="84"/>
		<rect fill="#000000ff" height="5" width="5" y="175" x="84"/>
		<rect fill="#000000ff" height="5" width="5" y="182" x="84"/>
		<rect fill="#000000ff" height="5" width="5" y="189" x="84"/>
		<rect fill="#000000ff" height="5" width="5" y="196" x="84"/>
		<rect fill="#000000ff" height="5" width="5" y="224" x="84"/>
		<rect fill="#000000ff" height="5" width="5" y="245" x="84"/>
		<rect fill="#000000ff" height="5" width="5" y="28" x="91"/>
		<rect fill="#000000ff" height="5" width="5" y="35" x="91"/>
		<rect fill="#000000ff" height="5" width="5" y="42" x="91"/>
		<rect fill="#000000ff" height="5" width="5" y="49" x="91"/>
		<rect fill="#000000ff" height="5" width="5" y="56" x="91"/>
		<rect fill="#000000ff" height="5" width="5" y="63" x="91"/>
		<rect fill="#000000ff" height="5" width="5" y="70" x="91"/>
		<rect fill="#000000ff" height="5" width="5" y="77" x="91"/>
		<rect fill="#000000ff" height="5" width="5" y="91" x="91"/>
		<rect fill="#000000ff" height="5" width="5" y="98" x="91"/>
		<rect fill="#000000ff" height="5" width="5" y="105" x="91"/>
		<rect fill="#000000ff" height="5" width="5" y="112" x="91"/>
		<rect fill="#000000ff" height="5" width="5" y="126" x="91"/>
		<rect fill="#000000ff" height="5" width="5" y="133" x="91"/>
		<rect fill="#000000ff" height="5" width="5" y="147" x="91"/>
		<rect fill="#000000ff" height="5" width="5" y="154" x="91"/>
		<rect fill="#000000ff" height="5" width="5" y="175" x="91"/>
		<rect fill="#000000ff" height="5" width="5" y="189" x="91"/>
		<rect fill="#000000ff" height="5" width="5" y="196" x="91"/>
		<rect fill="#000000ff" height="5" width="5" y="217" x="91"/>
		<rect fill="#000000ff" height="5" width="5" y="224" x="91"/>
		<rect fill="#000000ff" height="5" width="5" y="231" x="91"/>
		<rect fill="#000000ff" height="5" width="5" y="238" x="91"/>
		<rect fill="#000000ff" height="5" width="5" y="252" x="91"/>
		<rect fill="#000000ff" height="5" width="5" y="266" x="91"/>
		<rect fill="#000000ff" height="5" width="5" y="35" x="98"/>
		<rect fill="#000000ff" height="5" width="5" y="42" x="98"/>
		<rect fill="#000000ff" height="5" width="5" y="49" x="98"/>
		<rect fill="#000000ff" height="5" width="5" y="70" x="98"/>
		<rect fill="#000000ff" height="5" width="5" y="77" x="98"/>
		<rect fill="#000000ff" height="5" width="5" y="91" x="98"/>
		<rect fill="#000000ff" height="5" width="5" y="112" x="98"/>
		<rect fill="#000000ff" height="5" width="5" y="119" x="98"/>
		<rect fill="#000000ff" height="5" width="5" y="126" x="98"/>
		<rect fill="#000000ff" height="5" width="5" y="154" x="98"/>
		<rect fill="#000000ff" height="5" width="5" y="168" x="98"/>
		<rect fill="#000000ff" height="5" width="5" y="196" x="98"/>
		<rect fill="#000000ff" height="5" width="5" y="203" x="98"/>
		<rect fill="#000000ff" height="5" width="5" y="217" x="98"/>
		<rect fill="#000000ff" height="5" width="5" y="224" x="98"/>
		<rect fill="#000000ff" height="5" width="5" y="28" x="105"/>
		<rect fill="#000000ff" height="5" width="5" y="35" x="105"/>
		<rect fill="#000000ff" height="5" width="5" y="42" x="105"/>
		<rect fill="#000000ff" height="5" width="5" y="49" x="105"/>
		<rect fill="#000000ff" height="5" width="5" y="63" x="105"/>
		<rect fill="#000000ff" height="5" width="5" y="70" x="105"/>
		<rect fill="#000000ff" height="5" width="5" y="77" x="105"/>
		<rect fill="#000000ff" height="5" width="5" y="84" x="105"/>
		<rect fill="#000000ff" height="5" width="5" y="112" x="105"/>
		<rect fill="#000000ff" height="5" width="5" y="119" x="105"/>
		<rect fill="#000000ff" height="5" width="5" y="126" x="105"/>
		<rect fill="#000000ff" height="5" width="5" y="147" x="105"/>
		<rect fill="#000000ff" height="5" width="5" y="175" x="105"/>
		<rect fill="#000000ff" height="5" width="5" y="182" x="105"/>
		<rect fill="#000000ff" height="5" width="5" y="189" x="105"/>
		<rect fill="#000000ff" height="5" width="5" y="217" x="105"/>
		<rect fill="#000000ff" height="5" width="5" y="231" x="105"/>
		<rect fill="#000000ff" height="5" width="5" y="245" x="105"/>
		<rect fill="#000000ff" height="5" width="5" y="252" x="105"/>
		<rect fill="#000000ff" height="5" width="5" y="259" x="105"/>
		<rect fill="#000000ff" height="5" width="5" y="266" x="105"/>
		<rect fill="#000000ff" height="5" width="5" y="273" x="105"/>
		<rect fill="#000000ff" height="5" width="5" y="49" x="112"/>
		<rect fill="#000000ff" height="5" width="5" y="77" x="112"/>
		<rect fill="#000000ff" height="5" width="5" y="84" x="112"/>
		<rect fill="#000000ff" height="5" width="5" y="98" x="112"/>
		<rect fill="#000000ff" height="5" width="5" y="105" x="112"/>
		<rect fill="#000000ff" height="5" width="5" y="126" x="112"/>
		<rect fill="#000000ff" height="5" width="5" y="133" x="112"/>
		<rect fill="#000000ff" height="5" width="5" y="147" x="112"/>
		<rect fill="#000000ff" height="5" width="5" y="154" x="112"/>
		<rect fill="#000000ff" height="5" width="5" y="161" x="112"/>
		<rect fill="#000000ff" height="5" width="5" y="168" x="112"/>
		<rect fill="#000000ff" height="5" width="5" y="175" x="112"/>
		<rect fill="#000000ff" height="5" width="5" y="182" x="112"/>
		<rect fill="#000000ff" height="5" width="5" y="189" x="112"/>
		<rect fill="#000000ff" height="5" width="5" y="210" x="112"/>
		<rect fill="#000000ff" height="5" width="5" y="238" x="112"/>
		<rect fill="#000000ff" height="5" width="5" y="245" x="112"/>
		<rect fill="#000000ff" height="5" width="5" y="259" x="112"/>
		<rect fill="#000000ff" height="5" width="5" y="273" x="112"/>
		<rect fill="#000000ff" height="5" width="5" y="35" x="119"/>
		<rect fill="#000000ff" height="5" width="5" y="42" x="119"/>
		<rect fill="#000000ff" height="5" width="5" y="56" x="119"/>
		<rect fill="#000000ff" height="5" width="5" y="63" x="119"/>
		<rect fill="#000000ff" height="5" width="5" y="70" x="119"/>
		<rect fill="#000000ff" height="5" width="5" y="84" x="119"/>
		<rect fill="#000000ff" height="5" width="5" y="105" x="119"/>
		<rect fill="#000000ff" height="5" width="5" y="112" x="119"/>
		<rect fill="#000000ff" height="5" width="5" y="119" x="119"/>
		<rect fill="#000000ff" height="5" width="5" y="126" x="119"/>
		<rect fill="#000000ff" height="5" width="5" y="140" x="119"/>
		<rect fill="#000000ff" height="5" width="5" y="175" x="119"/>
		<rect fill="#000000ff" height="5" width="5" y="189" x="119"/>
		<rect fill="#000000ff" height="5" width="5" y="196" x="119"/>
		<rect fill="#000000ff" height="5" width="5" y="203" x="119"/>
		<rect fill="#000000ff" height="5" width="5" y="224" x="119"/>
		<rect fill="#000000ff" height="5" width="5" y="245" x="119"/>
		<rect fill="#000000ff" height="5" width="5" y="252" x="119"/>
		<rect fill="#000000ff" height="5" width="5" y="273" x="119"/>
		<rect fill="#000000ff" height="5" width="5" y="21" x="126"/>
		<rect fill="#000000ff" height="5" width="5" y="35" x="126"/>
		<rect fill="#000000ff" height="5" width="5" y="77" x="126"/>
		<rect fill="#000000ff" height="5" width="5" y="84" x="126"/>
		<rect fill="#000000ff" height="5" width="5" y="91" x="126"/>
		<rect fill="#000000ff" height="5" width="5" y="105" x="126"/>
		<rect fill="#000000ff" height="5" width="5" y="119" x="126"/>
		<rect fill="#000000ff" height="5" width="5" y="126" x="126"/>
		<rect fill="#000000ff" height="5" width="5" y="133" x="126"/>
		<rect fill="#000000ff" height="5" width="5" y="147" x="126"/>
		<rect fill="#000000ff" height="5" width="5" y="161" x="126"/>
		<rect fill="#000000ff" height="5" width="5" y="175" x="126"/>
		<rect fill="#000000ff" height="5" width="5" y="182" x="126"/>
		<rect fill="#000000ff" height="5" width="5" y="203" x="126"/>
		<rect fill="#000000ff" height="5" width="5" y="210" x="126"/>
		<rect fill="#000000ff" height="5" width="5" y="238" x="126"/>
		<rect fill="#000000ff" height="5" width="5" y="259" x="126"/>
		<rect fill="#000000ff" height="5" width="5" y="35" x="133"/>
		<rect fill="#000000ff" height="5" width="5" y="63" x="133"/>
		<rect fill="#000000ff" height="5" width="5" y="77" x="133"/>
		<rect fill="#000000ff" height="5" width="5" y="112" x="133"/>
		<rect fill="#000000ff" height="5" width="5" y="126" x="133"/>
		<rect fill="#000000ff" height="5" width="5" y="133" x="133"/>
		<rect fill="#000000ff" height="5" width="5" y="147" x="133"/>
		<rect fill="#000000ff" height="5" width="5" y="154" x="133"/>
		<rect fill="#000000ff" height="5" width="5" y="161" x="133"/>
		<rect fill="#000000ff" height="5" width="5" y="168" x="133"/>
		<rect fill="#000000ff" height="5" width="5" y="175" x="133"/>
		<rect fill="#000000ff" height="5" width="5" y="196" x="133"/>
		<rect fill="#000000ff" height="5" width="5" y="217" x="133"/>
		<rect fill="#000000ff" height="5" width="5" y="224" x="133"/>
		<rect fill="#000000ff" height="5" width="5" y="231" x="133"/>
		<rect fill="#000000ff" height="5" width="5" y="245" x="133"/>
		<rect fill="#000000ff" height="5" width="5" y="273" x="133"/>
		<rect fill="#000000ff" height="5" width="5" y="28" x="140"/>
		<rect fill="#000000ff" height="5" width="5" y="56" x="140"/>
		<rect fill="#000000ff" height="5" width="5" y="70" x="140"/>
		<rect fill="#000000ff" height="5" width="5" y="105" x="140"/>
		<rect fill="#000000ff" height="5" width="5" y="119" x="140"/>
		<rect fill="#000000ff" height="5" width="5" y="126" x="140"/>
		<rect fill="#000000ff" height="5" width="5" y="133" x="140"/>
		<rect fill="#000000ff" height="5" width="5" y="140" x="140"/>
		<rect fill="#000000ff" height="5" width="5" y="168" x="140"/>
		<rect fill="#000000ff" height="5" width="5" y="175" x="140"/>
		<rect fill="#000000ff" height="5" width="5" y="182" x="140"/>
		<rect fill="#000000ff" height="5" width="5" y="189" x="140"/>
		<rect fill="#000000ff" height="5" width="5" y="203" x="140"/>
		<rect fill="#000000ff" height="5" width="5" y="210" x="140"/>
		<rect fill="#000000ff" height="5" width="5" y="217" x="140"/>
		<rect fill="#000000ff" height="5" width="5" y="224" x="140"/>
		<rect fill="#000000ff" height="5" width="5" y="245" x="140"/>
		<rect fill="#000000ff" height="5" width="5" y="28" x="147"/>
		<rect fill="#000000ff" height="5" width="5" y="42" x="147"/>
		<rect fill="#000000ff" height="5" width="5" y="56" x="147"/>
		<rect fill="#000000ff" height="5" width="5" y="63" x="147"/>
		<rect fill="#000000ff" height="5" width="5" y="77" x="147"/>
		<rect fill="#000000ff" height="5" width="5" y="91" x="147"/>
		<rect fill="#000000ff" height="5" width="5" y="98" x="147"/>
		<rect fill="#000000ff" height="5" width="5" y="126" x="147"/>
		<rect fill="#000000ff" height="5" width="5" y="133" x="147"/>
		<rect fill="#000000ff" height="5" width="5" y="182" x="147"/>
		<rect fill="#000000ff" height="5" width="5" y="203" x="147"/>
		<rect fill="#000000ff" height="5" width="5" y="210" x="147"/>
		<rect fill="#000000ff" height="5" width="5" y="217" x="147"/>
		<rect fill="#000000ff" height="5" width="5" y="224" x="147"/>
		<rect fill="#000000ff" height="5" width="5" y="231" x="147"/>
		<rect fill="#000000ff" height="5" width="5" y="252" x="147"/>
		<rect fill="#000000ff" height="5" width="5" y="259" x="147"/>
		<rect fill="#000000ff" height="5" width="5" y="266" x="147"/>
		<rect fill="#000000ff" height="5" width="5" y="28" x="154"/>
		<rect fill="#000000ff" height="5" width="5" y="42" x="154"/>
		<rect fill="#000000ff" height="5" width="5" y="49" x="154"/>
		<rect fill="#000000ff" height="5" width="5" y="84" x="154"/>
		<rect fill="#000000ff" height="5" width="5" y="91" x="154"/>
		<rect fill="#000000ff" height="5" width="5" y="98" x="154"/>
		<rect fill="#000000ff" height="5" width="5" y="168" x="154"/>
		<rect fill="#000000ff" height="5" width="5" y="175" x="154"/>
		<rect fill="#000000ff" height="5" width="5" y="189" x="154"/>
		<rect fill="#000000ff" height="5" width="5" y="203" x="154"/>
		<rect fill="#000000ff" height="5" width="5" y="210" x="154"/>
		<rect fill="#000000ff" height="5" width="5" y="217" x="154"/>
		<rect fill="#000000ff" height="5" width="5" y="231" x="154"/>
		<rect fill="#000000ff" height="5" width="5" y="238" x="154"/>
		<rect fill="#000000ff" height="5" width="5" y="245" x="154"/>
		<rect fill="#000000ff" height="5" width="5" y="259" x="154"/>
		<rect fill="#000000ff" height="5" width="5" y="273" x="154"/>
		<rect fill="#000000ff" height="5" width="5" y="28" x="161"/>
		<rect fill="#000000ff" height="5" width="5" y="42" x="161"/>
		<rect fill="#000000ff" height="5" width="5" y="56" x="161"/>
		<rect fill="#000000ff" height="5" width="5" y="63" x="161"/>
		<rect fill="#000000ff" height="5" width="5" y="70" x="161"/>
		<rect fill="#000000ff" height="5" width="5" y="105" x="161"/>
		<rect fill="#000000ff" height="5" width="5" y="147" x="161"/>
		<rect fill="#000000ff" height="5" width="5" y="154" x="161"/>
		<rect fill="#000000ff" height="5" width="5" y="161" x="161"/>
		<rect fill="#000000ff" height="5" width="5" y="168" x="161"/>
		<rect fill="#000000ff" height="5" width="5" y="217" x="161"/>
		<rect fill="#000000ff" height="5" width="5" y="266" x="161"/>
		<rect fill="#000000ff" height="5" width="5" y="21" x="168"/>
		<rect fill="#000000ff" height="5" width="5" y="35" x="168"/>
		<rect fill="#000000ff" height="5" width="5" y="49" x="168"/>
		<rect fill="#000000ff" height="5" width="5" y="56" x="168"/>
		<rect fill="#000000ff" height="5" width="5" y="70" x="168"/>
		<rect fill="#000000ff" height="5" width="5" y="77" x="168"/>
		<rect fill="#000000ff" height="5" width="5" y="105" x="168"/>
		<rect fill="#000000ff" height="5" width="5" y="119" x="168"/>
		<rect fill="#000000ff" height="5" width="5" y="133" x="168"/>
		<rect fill="#000000ff" height="5" width="5" y="140" x="168"/>
		<rect fill="#000000ff" height="5" width="5" y="154" x="168"/>
		<rect fill="#000000ff" height="5" width="5" y="161" x="168"/>
		<rect fill="#000000ff" height="5" width="5" y="168" x="168"/>
		<rect fill="#000000ff" height="5" width="5" y="182" x="168"/>
		<rect fill="#000000ff" height="5" width="5" y="189" x="168"/>
		<rect fill="#000000ff" height="5" width="5" y="203" x="168"/>
		<rect fill="#000000ff" height="5" width="5" y="210" x="168"/>
		<rect fill="#000000ff" height="5" width="5" y="217" x="168"/>
		<rect fill="#000000ff" height="5" width="5" y="238" x="168"/>
		<rect fill="#000000ff" height="5" width="5" y="245" x="168"/>
		<rect fill="#000000ff" height="5" width="5" y="259" x="168"/>
		<rect fill="#000000ff" height="5" width="5" y="266" x="168"/>
		<rect fill="#000000ff" height="5" width="5" y="42" x="175"/>
		<rect fill="#000000ff" height="5" width="5" y="49" x="175"/>
		<rect fill="#000000ff" height="5" width="5" y="63" x="175"/>
		<rect fill="#000000ff" height="5" width="5" y="105" x="175"/>
		<rect fill="#000000ff" height="5" width="5" y="112" x="175"/>
		<rect fill="#000000ff" height="5" width="5" y="126" x="175"/>
		<rect fill="#000000ff" height="5" width="5" y="140" x="175"/>
		<rect fill="#000000ff" height="5" width="5" y="182" x="175"/>
		<rect fill="#000000ff" height="5" width="5" y="189" x="175"/>
		<rect fill="#000000ff" height="5" width="5" y="245" x="175"/>
		<rect fill="#000000ff" height="5" width="5" y="266" x="175"/>
		<rect fill="#000000ff" height="5" width="5" y="273" x="175"/>
		<rect fill="#000000ff" height="5" width="5" y="21" x="182"/>
		<rect fill="#000000ff" height="5" width="5" y="28" x="182"/>
		<rect fill="#000000ff" height="5" width="5" y="42" x="182"/>
		<rect fill="#000000ff" height="5" width="5" y="84" x="182"/>
		<rect fill="#000000ff" height="5" width="5" y="98" x="182"/>
		<rect fill="#000000ff" height="5" width="5" y="105" x="182"/>
		<rect fill="#000000ff" height="5" width="5" y="119" x="182"/>
		<rect fill="#000000ff" height="5" width="5" y="126" x="182"/>
		<rect fill="#000000ff" height="5" width="5" y="133" x="182"/>
		<rect fill="#000000ff" height="5" width="5" y="140" x="182"/>
		<rect fill="#000000ff" height="5" width="5" y="168" x="182"/>
		<rect fill="#000000ff" height="5" width="5" y="175" x="182"/>
		<rect fill="#000000ff" height="5" width="5" y="189" x="182"/>
		<rect fill="#000000ff" height="5" width="5" y="203" x="182"/>
		<rect fill="#000000ff" height="5" width="5" y="252" x="182"/>
		<rect fill="#000000ff" height="5" width="5" y="259" x="182"/>
		<rect fill="#000000ff" height="5" width="5" y="266" x="182"/>
		<rect fill="#000000ff" height="5" width="5" y="21" x="189"/>
		<rect fill="#000000ff" height="5" width="5" y="42" x="189"/>
		<rect fill="#000000ff" height="5" width="5" y="49" x="189"/>
		<rect fill="#000000ff" height="5" width="5" y="63" x="189"/>
		<rect fill="#000000ff" height="5" width="5" y="98" x="189"/>
		<rect fill="#000000ff" height="5" width="5" y="119" x="189"/>
		<rect fill="#000000ff" height="5" width="5" y="126" x="189"/>
		<rect fill="#000000ff" height="5" width="5" y="133" x="189"/>
		<rect fill="#000000ff" height="5" width="5" y="140" x="189"/>
		<rect fill="#000000ff" height="5" width="5" y="154" x="189"/>
		<rect fill="#000000ff" height="5" width="5" y="168" x="189"/>
		<rect fill="#000000ff" height="5" width="5" y="182" x="189"/>
		<rect fill="#000000ff" height="5" width="5" y="189" x="189"/>
		<rect fill="#000000ff" height="5" width="5" y="196" x="189"/>
		<rect fill="#000000ff" height="5" width="5" y="203" x="189"/>
		<rect fill="#000000ff" height="5" width="5" y="231" x="189"/>
		<rect fill="#000000ff" height="5" width="5" y="259" x="189"/>
		<rect fill="#000000ff" height="5" width="5" y="273" x="189"/>
		<rect fill="#000000ff" height="5" width="5" y="28" x="196"/>
		<rect fill="#000000ff" height="5" width="5" y="56" x="196"/>
		<rect fill="#000000ff" height="5" width="5" y="70" x="196"/>
		<rect fill="#000000ff" height="5" width="5" y="91" x="196"/>
		<rect fill="#000000ff" height="5" width="5" y="98" x="196"/>
		<rect fill="#000000ff" height="5" width="5" y="105" x="196"/>
		<rect fill="#000000ff" height="5" width="5" y="119" x="196"/>
		<rect fill="#000000ff" height="5" width="5" y="133" x="196"/>
		<rect fill="#000000ff" height="5" width="5" y="175" x="196"/>
		<rect fill="#000000ff" height="5" width="5" y="189" x="196"/>
		<rect fill="#000000ff" height="5" width="5" y="203" x="196"/>
		<rect fill="#000000ff" height="5" width="5" y="217" x="196"/>
		<rect fill="#000000ff" height="5" width="5" y="231" x="196"/>
		<rect fill="#000000ff" height="5" width="5" y="238" x="196"/>
		<rect fill="#000000ff" height="5" width="5" y="245" x="196"/>
		<rect fill="#000000ff" height="5" width="5" y="28" x="203"/>
		<rect fill="#000000ff" height="5" width="5" y="49" x="203"/>
		<rect fill="#000000ff" height="5" width="5" y="63" x="203"/>
		<rect fill="#000000ff" height="5" width="5" y="70" x="203"/>
		<rect fill="#000000ff" height="5" width="5" y="84" x="203"/>
		<rect fill="#000000ff" height="5" width="5" y="105" x="203"/>
		<rect fill="#000000ff" height="5" width="5" y="112" x="203"/>
		<rect fill="#000000ff" height="5" width="5" y="119" x="203"/>
		<rect fill="#000000ff" height="5" width="5" y="140" x="203"/>
		<rect fill="#000000ff" height="5" width="5" y="147" x="203"/>
		<rect fill="#000000ff" height="5" width="5" y="168" x="203"/>
		<rect fill="#000000ff" height="5" width="5" y="182" x="203"/>
		<rect fill="#000000ff" height="5" width="5" y="196" x="203"/>
		<rect fill="#000000ff" height="5" width="5" y="203" x="203"/>
		<rect fill="#000000ff" height="5" width="5" y="210" x="203"/>
		<rect fill="#000000ff" height="5" width="5" y="217" x="203"/>
		<rect fill="#000000ff" height="5" width="5" y="224" x="203"/>
		<rect fill="#000000ff" height="5" width="5" y="231" x="203"/>
		<rect fill="#000000ff" height="5" width="5" y="245" x="203"/>
		<rect fill="#000000ff" height="5" width="5" y="252" x="203"/>
		<rect fill="#000000ff" height="5" width="5" y="259" x="203"/>
		<rect fill="#000000ff" height="5" width="5" y="266" x="203"/>
		<rect fill="#000000ff" height="5" width="5" y="42" x="210"/>
		<rect fill="#000000ff" height="5" width="5" y="77" x="210"/>
		<rect fill="#000000ff" height="5" width="5" y="84" x="210"/>
		<rect fill="#000000ff" height="5" width="5" y="98" x="210"/>
		<rect fill="#000000ff" height="5" width="5" y="105" x="210"/>
		<rect fill="#000000ff" height="5" width="5" y="119" x="210"/>
		<rect fill="#000000ff" height="5" width="5" y="133" x="210"/>
		<rect fill="#000000ff" height="5" width="5" y="140" x="210"/>
		<rect fill="#000000ff" height="5" width="5" y="147" x="210"/>
		<rect fill="#000000ff" height="5" width="5" y="161" x="210"/>
		<rect fill="#000000ff" height="5" width="5" y="189" x="210"/>
		<rect fill="#000000ff" height="5" width="5" y="203" x="210"/>
		<rect fill="#000000ff" height="5" width="5" y="217" x="210"/>
		<rect fill="#000000ff" height="5" width="5" y="231" x="210"/>
		<rect fill="#000000ff" height="5" width="5" y="238" x="210"/>
		<rect fill="#000000ff" height="5" width="5" y="259" x="210"/>
		<rect fill="#000000ff" height="5" width="5" y="273" x="210"/>
		<rect fill="#000000ff" height="5" width="5" y="21" x="217"/>
		<rect fill="#000000ff" height="5" width="5" y="42" x="217"/>
		<rect fill="#000000ff" height="5" width="5" y="49" x="217"/>
		<rect fill="#000000ff" height="5" width="5" y="63" x="217"/>
		<rect fill="#000000ff" height="5" width="5" y="84" x="217"/>
		<rect fill="#000000ff" height="5" width="5" y="98" x="217"/>
		<rect fill="#000000ff" height="5" width="5" y="105" x="217"/>
		<rect fill="#000000ff" height="5" width="5" y="112" x="217"/>
		<rect fill="#000000ff" height="5" width="5" y="119" x="217"/>
		<rect fill="#000000ff" height="5" width="5" y="126" x="217"/>
		<rect fill="#000000ff" height="5" width="5" y="133" x="217"/>
		<rect fill="#000000ff" height="5" width="5" y="147" x="217"/>
		<rect fill="#000000ff" height="5" width="5" y="154" x="217"/>
		<rect fill="#000000ff" height="5" width="5" y="175" x="217"/>
		<rect fill="#000000ff" height="5" width="5" y="189" x="217"/>
		<rect fill="#000000ff" height="5" width="5" y="210" x="217"/>
		<rect fill="#000000ff" height="5" width="5" y="217" x="217"/>
		<rect fill="#000000ff" height="5" width="5" y="224" x="217"/>
		<rect fill="#000000ff" height="5" width="5" y="231" x="217"/>
		<rect fill="#000000ff" height="5" width="5" y="238" x="217"/>
		<rect fill="#000000ff" height="5" width="5" y="245" x="217"/>
		<rect fill="#000000ff" height="5" width="5" y="252" x="217"/>
		<rect fill="#000000ff" height="5" width="5" y="77" x="224"/>
		<rect fill="#000000ff" height="5" width="5" y="91" x="224"/>
		<rect fill="#000000ff" height="5" width="5" y="98" x="224"/>
		<rect fill="#000000ff" height="5" width="5" y="105" x="224"/>
		<rect fill="#000000ff" height="5" width="5" y="133" x="224"/>
		<rect fill="#000000ff" height="5" width="5" y="147" x="224"/>
		<rect fill="#000000ff" height="5" width="5" y="154" x="224"/>
		<rect fill="#000000ff" height="5" width="5" y="168" x="224"/>
		<rect fill="#000000ff" height="5" width="5" y="175" x="224"/>
		<rect fill="#000000ff" height="5" width="5" y="182" x="224"/>
		<rect fill="#000000ff" height="5" width="5" y="189" x="224"/>
		<rect fill="#000000ff" height="5" width="5" y="196" x="224"/>
		<rect fill="#000000ff" height="5" width="5" y="203" x="224"/>
		<rect fill="#000000ff" height="5" width="5" y="210" x="224"/>
		<rect fill="#000000ff" height="5" width="5" y="217" x="224"/>
		<rect fill="#000000ff" height="5" width="5" y="245" x="224"/>
		<rect fill="#000000ff" height="5" width="5" y="266" x="224"/>
		<rect fill="#000000ff" height="5" width="5" y="273" x="224"/>
		<rect fill="#000000ff" height="5" width="5" y="21" x="231"/>
		<rect fill="#000000ff" height="5" width="5" y="28" x="231"/>
		<rect fill="#000000ff" height="5" width="5" y="35" x="231"/>
		<rect fill="#000000ff" height="5" width="5" y="42" x="231"/>
		<rect fill="#000000ff" height="5" width="5" y="49" x="231"/>
		<rect fill="#000000ff" height="5" width="5" y="56" x="231"/>
		<rect fill="#000000ff" height="5" width="5" y="63" x="231"/>
		<rect fill="#000000ff" height="5" width="5" y="77" x="231"/>
		<rect fill="#000000ff" height="5" width="5" y="91" x="231"/>
		<rect fill="#000000ff" height="5" width="5" y="105" x="231"/>
		<rect fill="#000000ff" height="5" width="5" y="112" x="231"/>
		<rect fill="#000000ff" height="5" width="5" y="119" x="231"/>
		<rect fill="#000000ff" height="5" width="5" y="147" x="231"/>
		<rect fill="#000000ff" height="5" width="5" y="154" x="231"/>
		<rect fill="#000000ff" height="5" width="5" y="161" x="231"/>
		<rect fill="#000000ff" height="5" width="5" y="175" x="231"/>
		<rect fill="#000000ff" height="5" width="5" y="182" x="231"/>
		<rect fill="#000000ff" height="5" width="5" y="189" x="231"/>
		<rect fill="#000000ff" height="5" width="5" y="196" x="231"/>
		<rect fill="#000000ff" height="5" width="5" y="203" x="231"/>
		<rect fill="#000000ff" height="5" width="5" y="217" x="231"/>
		<rect fill="#000000ff" height="5" width="5" y="231" x="231"/>
		<rect fill="#000000ff" height="5" width="5" y="245" x="231"/>
		<rect fill="#000000ff" height="5" width="5" y="252" x="231"/>
		<rect fill="#000000ff" height="5" width="5" y="259" x="231"/>
		<rect fill="#000000ff" height="5" width="5" y="266" x="231"/>
		<rect fill="#000000ff" height="5" width="5" y="21" x="238"/>
		<rect fill="#000000ff" height="5" width="5" y="63" x="238"/>
		<rect fill="#000000ff" height="5" width="5" y="77" x="238"/>
		<rect fill="#000000ff" height="5" width="5" y="91" x="238"/>
		<rect fill="#000000ff" height="5" width="5" y="98" x="238"/>
		<rect fill="#000000ff" height="5" width="5" y="112" x="238"/>
		<rect fill="#000000ff" height="5" width="5" y="126" x="238"/>
		<rect fill="#000000ff" height="5" width="5" y="140" x="238"/>
		<rect fill="#000000ff" height="5" width="5" y="154" x="238"/>
		<rect fill="#000000ff" height="5" width="5" y="168" x="238"/>
		<rect fill="#000000ff" height="5" width="5" y="175" x="238"/>
		<rect fill="#000000ff" height="5" width="5" y="182" x="238"/>
		<rect fill="#000000ff" height="5" width="5" y="203" x="238"/>
		<rect fill="#000000ff" height="5" width="5" y="217" x="238"/>
		<rect fill="#000000ff" height="5" width="5" y="245" x="238"/>
		<rect fill="#000000ff" height="5" width="5" y="252" x="238"/>
		<rect fill="#000000ff" height="5" width="5" y="259" x="238"/>
		<rect fill="#000000ff" height="5" width="5" y="21" x="245"/>
		<rect fill="#000000ff" height="5" width="5" y="35" x="245"/>
		<rect fill="#000000ff" height="5" width="5" y="42" x="245"/>
		<rect fill="#000000ff" height="5" width="5" y="49" x="245"/>
		<rect fill="#000000ff" height="5" width="5" y="63" x="245"/>
		<rect fill="#000000ff" height="5" width="5" y="91" x="245"/>
		<rect fill="#000000ff" height="5" width="5" y="105" x="245"/>
		<rect fill="#000000ff" height="5" width="5" y="133" x="245"/>
		<rect fill="#000000ff" height="5" width="5" y="140" x="245"/>
		<rect fill="#000000ff" height="5" width="5" y="147" x="245"/>
		<rect fill="#000000ff" height="5" width="5" y="175" x="245"/>
		<rect fill="#000000ff" height="5" width="5" y="196" x="245"/>
		<rect fill="#000000ff" height="5" width="5" y="203" x="245"/>
		<rect fill="#000000ff" height="5" width="5" y="217" x="245"/>
		<rect fill="#000000ff" height="5" width="5" y="224" x="245"/>
		<rect fill="#000000ff" height="5" width="5" y="231" x="245"/>
		<rect fill="#000000ff" height="5" width="5" y="238" x="245"/>
		<rect fill="#000000ff" height="5" width="5" y="245" x="245"/>
		<rect fill="#000000ff" height="5" width="5" y="252" x="245"/>
		<rect fill="#000000ff" height="5" width="5" y="259" x="245"/>
		<rect fill="#000000ff" height="5" width="5" y="266" x="245"/>
		<rect fill="#000000ff" height="5" width="5" y="21" x="252"/>
		<rect fill="#000000ff" height="5" width="5" y="35" x="252"/>
		<rect fill="#000000ff" height="5" width="5" y="42" x="252"/>
		<rect fill="#000000ff" height="5" width="5" y="49" x="252"/>
		<rect fill="#000000ff" height="5" width="5" y="63" x="252"/>
		<rect fill="#000000ff" height="5" width="5" y="84" x="252"/>
		<rect fill="#000000ff" height="5" width="5" y="98" x="252"/>
		<rect fill="#000000ff" height="5" width="5" y="112" x="252"/>
		<rect fill="#000000ff" height="5" width="5" y="119" x="252"/>
		<rect fill="#000000ff" height="5" width="5" y="126" x="252"/>
		<rect fill="#000000ff" height="5" width="5" y="154" x="252"/>
		<rect fill="#000000ff" height="5" width="5" y="161" x="252"/>
		<rect fill="#000000ff" height="5" width="5" y="182" x="252"/>
		<rect fill="#000000ff" height="5" width="5" y="189" x="252"/>
		<rect fill="#000000ff" height="5" width="5" y="196" x="252"/>
		<rect fill="#000000ff" height="5" width="5" y="231" x="252"/>
		<rect fill="#000000ff" height="5" width="5" y="238" x="252"/>
		<rect fill="#000000ff" height="5" width="5" y="245" x="252"/>
		<rect fill="#000000ff" height="5" width="5" y="259" x="252"/>
		<rect fill="#000000ff" height="5" width="5" y="266" x="252"/>
		<rect fill="#000000ff" height="5" width="5" y="21" x="259"/>
		<rect fill="#000000ff" height="5" width="5" y="35" x="259"/>
		<rect fill="#000000ff" height="5" width="5" y="42" x="259"/>
		<rect fill="#000000ff" height="5" width="5" y="49" x="259"/>
		<rect fill="#000000ff" height="5" width="5" y="63" x="259"/>
		<rect fill="#000000ff" height="5" width="5" y="77" x="259"/>
		<rect fill="#000000ff" height="5" width="5" y="91" x="259"/>
		<rect fill="#000000ff" height="5" width="5" y="119" x="259"/>
		<rect fill="#000000ff" height="5" width="5" y="126" x="259"/>
		<rect fill="#000000ff" height="5" width="5" y="133" x="259"/>
		<rect fill="#000000ff" height="5" width="5" y="147" x="259"/>
		<rect fill="#000000ff" height="5" width="5" y="154" x="259"/>
		<rect fill="#000000ff" height="5" width="5" y="175" x="259"/>
		<rect fill="#000000ff" height="5" width="5" y="189" x="259"/>
		<rect fill="#000000ff" height="5" width="5" y="203" x="259"/>
		<rect fill="#000000ff" height="5" width="5" y="217" x="259"/>
		<rect fill="#000000ff" height="5" width="5" y="231" x="259"/>
		<rect fill="#000000ff" height="5" width="5" y="238" x="259"/>
		<rect fill="#000000ff" height="5" width="5" y="259" x="259"/>
		<rect fill="#000000ff" height="5" width="5" y="266" x="259"/>
		<rect fill="#000000ff" height="5" width="5" y="21" x="266"/>
		<rect fill="#000000ff" height="5" width="5" y="63" x="266"/>
		<rect fill="#000000ff" height="5" width="5" y="77" x="266"/>
		<rect fill="#000000ff" height="5" width="5" y="84" x="266"/>
		<rect fill="#000000ff" height="5" width="5" y="91" x="266"/>
		<rect fill="#000000ff" height="5" width="5" y="112" x="266"/>
		<rect fill="#000000ff" height="5" width="5" y="133" x="266"/>
		<rect fill="#000000ff" height="5" width="5" y="147" x="266"/>
		<rect fill="#000000ff" height="5" width="5" y="168" x="266"/>
		<rect fill="#000000ff" height="5" width="5" y="175" x="266"/>
		<rect fill="#000000ff" height="5" width="5" y="189" x="266"/>
		<rect fill="#000000ff" height="5" width="5" y="196" x="266"/>
		<rect fill="#000000ff" height="5" width="5" y="203" x="266"/>
		<rect fill="#000000ff" height="5" width="5" y="217" x="266"/>
		<rect fill="#000000ff" height="5" width="5" y="224" x="266"/>
		<rect fill="#000000ff" height="5" width="5" y="231" x="266"/>
		<rect fill="#000000ff" height="5" width="5" y="245" x="266"/>
		<rect fill="#000000ff" height="5" width="5" y="252" x="266"/>
		<rect fill="#000000ff" height="5" width="5" y="266" x="266"/>
		<rect fill="#000000ff" height="5" width="5" y="273" x="266"/>
		<rect fill="#000000ff" height="5" width="5" y="21" x="273"/>
		<rect fill="#000000ff" height="5" width="5" y="28" x="273"/>
		<rect fill="#000000ff" height="5" width="5" y="35" x="273"/>
		<rect fill="#000000ff" height="5" width="5" y="42" x="273"/>
		<rect fill="#000000ff" height="5" width="5" y="49" x="273"/>
		<rect fill="#000000ff" height="5" width="5" y="56" x="273"/>
		<rect fill="#000000ff" height="5" width="5" y="63" x="273"/>
		<rect fill="#000000ff" height="5" width="5" y="77" x="273"/>
		<rect fill="#000000ff" height="5" width="5" y="105" x="273"/>
		<rect fill="#000000ff" height="5" width="5" y="112" x="273"/>
		<rect fill="#000000ff" height="5" width="5" y="133" x="273"/>
		<rect fill="#000000ff" height="5" width="5" y="140" x="273"/>
		<rect fill="#000000ff" height="5" width="5" y="147" x="273"/>
		<rect fill="#000000ff" height="5" width="5" y="175" x="273"/>
		<rect fill="#000000ff" height="5" width="5" y="189" x="273"/>
		<rect fill="#000000ff" height="5" width="5" y="196" x="273"/>
		<rect fill="#000000ff" height="5" width="5" y="217" x="273"/>
		<rect fill="#000000ff" height="5" width="5" y="224" x="273"/>
		<rect fill="#000000ff" height="5" width="5" y="231" x="273"/>
		<rect fill="#000000ff" height="5" width="5" y="245" x="273"/>
		<rect fill="#000000ff" height="5" width="5" y="252" x="273"/>
		<rect fill="#000000ff" height="5" width="5" y="259" x="273"/>
		<rect fill="#000000ff" height="5" width="5" y="273" x="273"/>

	</g>
</svg>