<?xml version="1.0" encoding="utf-8"?>
<svg xmlns="http://www.w3.org/2000/svg" xmlns:xlink="http://www.w3.org/1999/xlink" width="500" height="500" viewBox="0 0 500 500">

	<symbol id="txt" viewBox="0 0 3050 1024"><path d="M3047.733168 222.899918c4.052938 25.329568 1.01326 57.751347-2.026418 86.120391-9.119034 137.792686-15.19839 265.453484-28.37026 412.364697-11.145452 118.542169-7.092616 132.726691-30.396678 150.963948-27.357 22.289992-100.309171 16.21094-119.560397 13.171363 15.19839-177.306675 35.462876-343.468404 46.608328-528.880549 3.039678-65.856817 11.145452-121.581746-54.714102-126.647639-61.806617-3.039577-56.740521-2.026317-191.499308-2.026317-128.679431 0-132.732267-1.013158-189.472788-1.013158-32.423198 0-65.859555-7.092312-72.952069-24.316309-4.052938-11.144945-1.01326-34.448197 4.052938-54.71177 3.039678-12.158205 6.079356-24.316309 10.132192-36.474514l143.877766 0c-3.039678 16.21094-5.066096 20.263574-8.105774 31.40862-1.01326 5.065893 0 7.092312 3.039678 7.092312l398.196915 0C3000.111682 149.950891 3042.667072 175.280459 3047.733168 222.899918L3047.733168 222.899918zM2849.141346 328.270826c-3.039678 21.276833-5.066096 47.61956-8.105774 70.92271l-149.957108 0c-4.052938 39.51409-10.132192 80.041339-14.18513 123.608063 51.674424 0 110.441363-1.013158 166.168725-1.013158l-6.079356 69.909451-165.155463 0c-5.066096 48.632719-10.132192 104.357648-17.224808 154.003525l52.687632 0c4.052938-20.263574 7.092616-46.6063 10.132192-70.92271l109.42816 0c-4.052938 36.474514-7.092616 88.146809-20.264486 125.634481-16.211548 49.645877-143.87772 42.553565-227.975342 42.553565-72.952069 0-174.274499 3.039577-213.790212-28.369044-35.462876-27.355885-18.238068-97.265437-10.132192-139.819003l113.481055 0c-3.039678 25.329568-4.052938 53.698612-7.092616 70.92271l61.806646 0c5.066096-47.61956 13.17187-104.357648 18.238068-154.003525l-184.406714 0c3.039678-23.30315 4.052938-45.593142 7.092616-68.896292 60.793458 0 120.573657-1.013158 181.367014-1.013158 5.066096-35.461355 10.132192-82.067656 15.19839-122.594904-25.330582 0-30.396678-1.013158-31.409938 0-7.092616 3.039577-14.18513 11.144945-43.56865 24.316309-39.515712 19.250415-71.93891 23.30315-120.573657 32.421779 4.052938-25.329568 7.092616-51.672194 10.132192-77.001762 45.595068-21.276833 80.044685-52.685454 105.375267-95.239019l101.32237 0c-5.066096 13.171363-10.132192 28.369044-17.224808 44.579984L2849.141266 328.270826zM2231.074875 113.476377c60.793458-8.10547 135.771945 21.276833 127.666171 89.159967-12.158712 102.331331-246.21341 94.225861-218.856308-24.316309C2149.003772 140.832263 2181.426868 120.568588 2231.074875 113.476377L2231.074875 113.476377zM2308.079881 462.010675c3.039678 73.962186-15.19839 150.963948-34.449616 222.899817-19.251226 72.949027-37.489294 139.819003-56.740521 200.609825l-143.877766 0c20.264486-64.843557 39.515712-135.766268 62.819877-208.715295 21.277746-69.909451 49.648006-139.819003 64.846295-204.66256 13.17187-59.777664-22.290904-103.344489-74.978588-111.449959 4.052938-27.355885 5.066096-53.698612 12.158712-74.975445C2228.035197 310.033467 2303.013785 356.639869 2308.079881 462.010675L2308.079881 462.010675zM1880.499458 273.558954l188.459608 0-8.105774 81.054497-901.769094 0c4.052938-24.316309 7.092616-56.738189 10.132192-81.054497l185.419937 0c-4.052938-11.144945-12.158712-34.448197-17.224808-46.6063l137.798423 0 14.18513 46.6063 273.570399 0 34.449616-46.6063 111.454607 0C1903.803622 238.0977 1888.605232 258.361273 1880.499458 273.558954L1880.499458 273.558954zM1703.18528 143.871839l358.68119 0c-3.039678 20.263574-4.052938 41.540407-7.092616 64.843557l-854.14758 0c2.026418-21.276833 5.066096-43.566825 8.105774-64.843557l346.522506 0c3.039678-12.158205 4.052938-23.30315 7.092616-34.448197l146.917437 0C1706.224958 120.568588 1706.224958 131.713634 1703.18528 143.871839L1703.18528 143.871839zM2015.258245 715.305954c9.119034 11.144945 2.026418 51.672194-3.039678 84.094074l-145.904213 0c3.039678-21.276833 4.052938-45.593142 7.092616-68.896292-15.19839 8.10547-15.19839 8.10547-68.899232 32.421779-49.648006 22.289992-54.714102 27.355885-70.925651 32.421779-21.277746 5.065893-27.357 5.065893-77.005007 5.065893-55.727261 0-65.859555-1.013158-73.965329-7.092312-12.158712-9.118628-26.343842-58.764505-34.449616-80.041339l147.93066 0c4.052938 16.21094 6.079356 33.434937 14.18513 50.659035 3.039678 3.039577 4.052938 5.065893 11.145452 4.052735 57.75378-27.355885 98.282651-45.593142 138.811623-62.81724 3.039678-1.013158 39.515712-1.013158 91.190137-1.013158C1986.887984 704.161009 2004.112792 704.161009 2015.258245 715.305954L2015.258245 715.305954zM1712.304314 825.742755l299.914216 0c-3.039678 21.276833-4.052938 37.487672-7.092616 60.790822l-469.122574 0c-65.859555 0-209.737274 8.10547-220.882726-46.6063-8.105774-39.51409 2.026418-94.225861 5.066096-129.687216l138.811647 0c-4.052938 35.461355-9.119034 72.949027-9.119034 102.331331 0 7.092312 4.052938 8.10547 9.119034 11.144945 3.039678 1.013158 6.079356 2.026317 9.119034 2.026317L1712.304273 825.742653zM1961.557402 437.694366c12.158712 35.461355 4.052938 73.962186 0 113.476276s-9.119034 72.949027-14.18513 112.463118l-709.256591 0c16.211548-174.2672-2.026418-279.638006 101.322329-279.638006l284.71586 0 243.173688 0C1908.869718 383.995754 1950.411848 406.285746 1961.557402 437.694366L1961.557402 437.694366zM1821.732519 592.711049c4.052938-37.487672 8.105774-84.094074 13.17187-124.621323-16.211548-7.092312-27.357-13.171363-50.661165-13.171363l-166.168687 0-223.922438 0-4.052938 41.540407 341.456387 0-8.105774 60.790822-338.416716 0c-1.01326 12.158205-1.01326 23.30315-4.052938 35.461355L1821.732433 592.710948zM1156.044561 709.226902l135.771976 0c-3.039678 25.329568-4.052938 51.672194-7.092616 79.02818s-2.026418 58.764505-13.17187 74.975445c-23.304164 31.40862-132.732267 18.237257-135.771945 18.237257C1142.872589 821.69002 1147.938685 761.912356 1156.044561 709.226902L1156.044561 709.226902zM1103.356877 435.667948c20.264486 47.61956 42.55539 94.225861 38.502453 160.082576-11.145452 152.990366-147.930657 263.427066-314.099383 255.321697-144.890979-8.10547-230.00176-88.146809-271.543992-208.715295 30.396678-28.369044 106.388527-22.289992 133.745527 2.026317 11.145452 11.144945 13.17187 23.30315 22.290904 34.448197 27.357 32.421779 67.885973 57.751347 121.586815 60.790822 152.996754 8.10547 227.975342-173.25394 129.692589-271.532536-88.150459-88.146809-281.676185-44.579984-285.729122 97.265437-23.304164 32.421779-73.965329 53.698612-127.666171 40.527249-8.105774-154.003525 75.991747-234.044863 184.406692-279.638006-22.290904-22.289992-38.502453-34.448197-81.057944-66.869975-32.423198-24.316309-49.648006-34.448197-85.110781-66.869975-48.634746-45.593142-55.727261-136.779426-4.052938-186.425303 91.190137 102.331331 212.776952 176.293516 320.178739 265.453484-31.409938-44.579984-86.124041-90.173126-133.745527-133.739951-13.17187-12.158205-39.515712-31.40862-42.55539-44.579984-8.105774-35.461355 38.502453-80.041339 58.766939-93.212702 67.885973 126.647639 168.195143 222.899817 249.252987 336.376194 0 1.013158 1.01326 2.026317 2.026418 3.039577l2.026418 3.039577-2.026418-3.039577c-36.476034-67.883134-82.071103-140.832161-123.613335-209.728453 16.211548-24.316309 40.528972-40.527249 68.899232-52.685454C995.955191 205.67582 1051.682452 317.125779 1103.356877 435.667948L1103.356877 435.667948zM563.308671 246.203068c46.608328 16.21094 24.317323 78.014921 11.145452 121.581746-59.780199 59.777664-96.256233 191.491197-58.766939 299.901579-27.357 35.461355-65.859555 55.724929-101.322329 81.054497 39.515712 48.632719 78.018266 92.199443 117.533979 139.819003l-149.957108 0-72.952069-77.001762c-90.176877 48.632719-189.472788 86.120391-308.020027 109.423541l14.18513-58.764505c85.110781-31.40862 158.06285-73.962186 226.962082-121.581746-35.462876-40.527249-68.899232-78.014921-105.375267-121.581746 19.251226-96.252178 35.462876-191.491197 54.714102-285.717057-85.110781 0-150.970335 14.184522-154.010013-87.133549l169.208358 0 3.039678-15.19768c3.039678-9.118628 4.052938-20.263574 7.092616-32.421779 3.039678-13.171363 6.079356-29.382303 11.145452-47.61956l135.771976 0c-7.092616 31.40862-13.17187 62.81724-21.277746 94.225861C414.364754 245.18991 490.356501 245.18991 563.308671 246.203068L563.308671 246.203068zM444.761433 333.336719l-121.586844 0c-12.158712 55.724929-50.661165 247.216227-50.661165 251.268962 0 0 53.700843 65.856817 64.846295 77.001762 23.304164-21.276833 52.687583-54.71177 54.714102-56.738189C392.07385 601.829678 432.602822 394.127541 444.761433 333.336719z"></path></symbol>
	<g id="qr">
		<rect fill="#ffffffff" height="500" width="500" y="0" x="0"/>
		<rect fill="#000000ff" height="12" width="12" y="28" x="28"/>
		<rect fill="#000000ff" height="12" width="12" y="40" x="28"/>
		<rect fill="#000000ff" height="12" width="12" y="52" x="28"/>
		<rect fill="#000000ff" height="12" width="12" y="64" x="28"/>
		<rect fill="#000000ff" height="12" width="12" y="76" x="28"/>
		<rect fill="#000000ff" height="12" width="12" y="88" x="28"/>
		<rect fill="#000000ff" height="12" width="12" y="100" x="28"/>
		<rect fill="#000000ff" height="12" width="12" y="388" x="28"/>
		<rect fill="#000000ff" height="12" width="12" y="400" x="28"/>
		<rect fill="#000000ff" height="12" width="12" y="412" x="28"/>
		<rect fill="#000000ff" height="12" width="12" y="424" x="28"/>
		<rect fill="#000000ff" height="12" width="12" y="436" x="28"/>
		<rect fill="#000000ff" height="12" width="12" y="448" x="28"/>
		<rect fill="#000000ff" height="12" width="12" y="460" x="28"/>
		<rect fill="#000000ff" height="12" width="12" y="28" x="40"/>
		<rect fill="#000000ff" height="12" width="12" y="100" x="40"/>
		<rect fill="#000000ff" height="12" width="12" y="388" x="40"/>
		<rect fill="#000000ff" height="12" width="12" y="460" x="40"/>
		<rect fill="#000000ff" height="12" width="12" y="28" x="52"/>
		<rect fill="#000000ff" height="12" width="12" y="52" x="52"/>
		<rect fill="#000000ff" height="12" width="12" y="64" x="52"/>
		<rect fill="#000000ff" height="12" width="12" y="76" x="52"/>
		<rect fill="#000000ff" height="12" width="12" y="100" x="52"/>
		<rect fill="#000000ff" height="12" width="12" y="388" x="52"/>
		<rect fill="#000000ff" height="12" width="12" y="412" x="52"/>
		<rect fill="#000000ff" height="12" width="12" y="424" x="52"/>
		<rect fill="#000000ff" height="12" width="12" y="436" x="52"/>
		<rect fill="#000000ff" height="12" width="12" y="460" x="52"/>
		<rect fill="#000000ff" height="12" width="12" y="28" x="64"/>
		<rect fill="#000000ff" height="12" width="12" y="52" x="64"/>
		<rect fill="#000000ff" height="12" width="12" y="64" x="64"/>
		<rect fill="#000000ff" height="12" width="12" y="76" x="64"/>
		<rect fill="#000000ff" height="12" width="12" y="100" x="64"/>
		<rect fill="#000000ff" height="12" width="12" y="388" x="64"/>
		<rect fill="#000000ff" height="12" width="12" y="412" x="64"/>
		<rect fill="#000000ff" height="12" width="12" y="424" x="64"/>
		<rect fill="#000000ff" height="12" width="12" y="436" x="64"/>
		<rect fill="#000000ff" height="12" width="12" y="460" x="64"/>
		<rect fill="#000000ff" height="12" width="12" y="28" x="76"/>
		<rect fill="#000000ff" height="12" width="12" y="52" x="76"/>
		<rect fill="#000000ff" height="12" width="12" y="64" x="76"/>
		<rect fill="#000000ff" height="12" width="12" y="76" x="76"/>
		<rect fill="#000000ff" height="12" width="12" y="100" x="76"/>
		<rect fill="#000000ff" height="12" width="12" y="388" x="76"/>
		<rect fill="#000000ff" height="12" width="12" y="412" x="76"/>
		<rect fill="#000000ff" height="12" width="12" y="424" x="76"/>
		<rect fill="#000000ff" height="12" width="12" y="436" x="76"/>
		<rect fill="#000000ff" height="12" width="12" y="460" x="76"/>
		<rect fill="#000000ff" height="12" width="12" y="28" x="88"/>
		<rect fill="#000000ff" height="12" width="12" y="100" x="88"/>
		<rect fill="#000000ff" height="12" width="12" y="388" x="88"/>
		<rect fill="#000000ff" height="12" width="12" y="460" x="88"/>
		<rect fill="#000000ff" height="12" width="12" y="28" x="100"/>
		<rect fill="#000000ff" height="12" width="12" y="40" x="100"/>
		<rect fill="#000000ff" height="12" width="12" y="52" x="100"/>
		<rect fill="#000000ff" height="12" width="12" y="64" x="100"/>
		<rect fill="#000000ff" height="12" width="12" y="76" x="100"/>
		<rect fill="#000000ff" height="12" width="12" y="88" x="100"/>
		<rect fill="#000000ff" height="12" width="12" y="100" x="100"/>
		<rect fill="#000000ff" height="12" width="12" y="388" x="100"/>
		<rect fill="#000000ff" height="12" width="12" y="400" x="100"/>
		<rect fill="#000000ff" height="12" width="12" y="412" x="100"/>
		<rect fill="#000000ff" height="12" width="12" y="424" x="100"/>
		<rect fill="#000000ff" height="12" width="12" y="436" x="100"/>
		<rect fill="#000000ff" height="12" width="12" y="448" x="100"/>
		<rect fill="#000000ff" height="12" width="12" y="460" x="100"/>
		<rect fill="#000000ff" height="12" width="12" y="28" x="388"/>
		<rect fill="#000000ff" height="12" width="12" y="40" x="388"/>
		<rect fill="#000000ff" height="12" width="12" y="52" x="388"/>
		<rect fill="#000000ff" height="12" width="12" y="64" x="388"/>
		<rect fill="#000000ff" height="12" width="12" y="76" x="388"/>
		<rect fill="#000000ff" height="12" width="12" y="88" x="388"/>
		<rect fill="#000000ff" height="12" width="12" y="100" x="388"/>
		<rect fill="#000000ff" height="12" width="12" y="28" x="400"/>
		<rect fill="#000000ff" height="12" width="12" y="100" x="400"/>
		<rect fill="#000000ff" height="12" width="12" y="28" x="412"/>
		<rect fill="#000000ff" height="12" width="12" y="52" x="412"/>
		<rect fill="#000000ff" height="12" width="12" y="64" x="412"/>
		<rect fill="#000000ff" height="12" width="12" y="76" x="412"/>
		<rect fill="#000000ff" height="12" width="12" y="100" x="412"/>
		<rect fill="#000000ff" height="12" width="12" y="28" x="424"/>
		<rect fill="#000000ff" height="12" width="12" y="52" x="424"/>
		<rect fill="#000000ff" height="12" width="12" y="64" x="424"/>
		<rect fill="#000000ff" height="12" width="12" y="76" x="424"/>
		<rect fill="#000000ff" height="12" width="12" y="100" x="424"/>
		<rect fill="#000000ff" height="12" width="12" y="28" x="436"/>
		<rect fill="#000000ff" height="12" width="12" y="52" x="436"/>
		<rect fill="#000000ff" height="12" width="12" y="64" x="436"/>
		<rect fill="#000000ff" height="12" width="12" y="76" x="436"/>
		<rect fill="#000000ff" height="12" width="12" y="100" x="436"/>
		<rect fill="#000000ff" height="12" width="12" y="28" x="448"/>
		<rect fill="#000000ff" height="12" width="12" y="100" x="448"/>
		<rect fill="#000000ff" height="12" width="12" y="28" x="460"/>
		<rect fill="#000000ff" height="12" width="12" y="40" x="460"/>
		<rect fill="#000000ff" height="12" width="12" y="52" x="460"/>
		<rect fill="#000000ff" height="12" width="12" y="64" x="460"/>
		<rect fill="#000000ff" height="12" width="12" y="76" x="460"/>
		<rect fill="#000000ff" height="12" width="12" y="88" x="460"/>
		<rect fill="#000000ff" height="12" width="12" y="100" x="460"/>
		<use xlink:href="#txt" x="268" y="172" width="36" height="12"/>
		<use xlink:href="#txt" x="280" y="316" width="36" height="12"/>
		<use xlink:href="#txt" x="304" y="220" width="36" height="12"/>
		<use xlink:href="#txt" x="412" y="448" width="36" height="12"/>
		<use xlink:href="#txt" x="436" y="244" width="36" height="12"/>
		<polygon points="34.0,136 28,148.0 40.0,148.0 "  style="fill:#000000ff;fill-rule:nonzero;" />
		<polygon points="34.0,172 28,184.0 40.0,184.0 "  style="fill:#000000ff;fill-rule:nonzero;" />
		<polygon points="34.0,244.6 30.4,255.88 39.4,248.68 28.6,248.68 37.6,255.88 "  style="fill:#000000ff;fill-rule:nonzero;" />
		<polygon points="34.0,304 28,316.0 40.0,316.0 "  style="fill:#000000ff;fill-rule:nonzero;" />
		<polygon points="34.0,328.6 30.4,339.88 39.4,332.68 28.6,332.68 37.6,339.88 "  style="fill:#000000ff;fill-rule:nonzero;" />
		<polygon points="34.0,340 28,352.0 40.0,352.0 "  style="fill:#000000ff;fill-rule:nonzero;" />
		<polygon points="34.0,352 28,364.0 40.0,364.0 "  style="fill:#000000ff;fill-rule:nonzero;" />
		<polygon points="34.0,364 28,376.0 40.0,376.0 "  style="fill:#000000ff;fill-rule:nonzero;" />
		<polygon points="46.0,196 40,208.0 52.0,208.0 "  style="fill:#000000ff;fill-rule:nonzero;" />
		<polygon points="46.0,208 40,220.0 52.0,220.0 "  style="fill:#000000ff;fill-rule:nonzero;" />
		<polygon points="46.0,244 40,256.0 52.0,256.0 "  style="fill:#000000ff;fill-rule:nonzero;" />
		<polygon points="46.0,292.6 42.4,303.88 51.4,296.68 40.6,296.68 49.6,303.88 "  style="fill:#000000ff;fill-rule:nonzero;" />
		<polygon points="46.0,304 40,316.0 52.0,316.0 "  style="fill:#000000ff;fill-rule:nonzero;" />
		<polygon points="46.0,328.6 42.4,339.88 51.4,332.68 40.6,332.68 49.6,339.88 "  style="fill:#000000ff;fill-rule:nonzero;" />
		<polygon points="58.0,124.6 54.4,135.88 63.4,128.68 52.6,128.68 61.6,135.88 "  style="fill:#000000ff;fill-rule:nonzero;" />
		<polygon points="58.0,148 52,160.0 64.0,160.0 "  style="fill:#000000ff;fill-rule:nonzero;" />
		<polygon points="58.0,172.6 54.4,183.88 63.4,176.68 52.6,176.68 61.6,183.88 "  style="fill:#000000ff;fill-rule:nonzero;" />
		<text fill="#000000ff" font-size="12" y="208" x="52">小</text>
		<polygon points="58.0,232.6 54.4,243.88 63.4,236.68 52.6,236.68 61.6,243.88 "  style="fill:#000000ff;fill-rule:nonzero;" />
		<polygon points="58.0,256.6 54.4,267.88 63.4,260.68 52.6,260.68 61.6,267.88 "  style="fill:#000000ff;fill-rule:nonzero;" />
		<polygon points="58.0,268 52,280.0 64.0,280.0 "  style="fill:#000000ff;fill-rule:nonzero;" />
		<polygon points="58.0,280.6 54.4,291.88 63.4,284.68 52.6,284.68 61.6,291.88 "  style="fill:#000000ff;fill-rule:nonzero;" />
		<polygon points="58.0,292.6 54.4,303.88 63.4,296.68 52.6,296.68 61.6,303.88 "  style="fill:#000000ff;fill-rule:nonzero;" />
		<polygon points="58.0,340.6 54.4,351.88 63.4,344.68 52.6,344.68 61.6,351.88 "  style="fill:#000000ff;fill-rule:nonzero;" />
		<polygon points="58.0,352.6 54.4,363.88 63.4,356.68 52.6,356.68 61.6,363.88 "  style="fill:#000000ff;fill-rule:nonzero;" />
		<polygon points="58.0,364.6 54.4,375.88 63.4,368.68 52.6,368.68 61.6,375.88 "  style="fill:#000000ff;fill-rule:nonzero;" />
		<text fill="#000000ff" font-size="12" y="136" x="64">灰</text>
		<polygon points="70.0,172.6 66.4,183.88 75.4,176.68 64.6,176.68 73.6,183.88 "  style="fill:#000000ff;fill-rule:nonzero;" />
		<polygon points="70.0,184.6 66.4,195.88 75.4,188.68 64.6,188.68 73.6,195.88 "  style="fill:#000000ff;fill-rule:nonzero;" />
		<polygon points="70.0,196 64,208.0 76.0,208.0 "  style="fill:#000000ff;fill-rule:nonzero;" />
		<polygon points="70.0,208 64,220.0 76.0,220.0 "  style="fill:#000000ff;fill-rule:nonzero;" />
		<polygon points="70.0,232.6 66.4,243.88 75.4,236.68 64.6,236.68 73.6,243.88 "  style="fill:#000000ff;fill-rule:nonzero;" />
		<polygon points="70.0,244 64,256.0 76.0,256.0 "  style="fill:#000000ff;fill-rule:nonzero;" />
		<polygon points="70.0,268 64,280.0 76.0,280.0 "  style="fill:#000000ff;fill-rule:nonzero;" />
		<polygon points="70.0,328.6 66.4,339.88 75.4,332.68 64.6,332.68 73.6,339.88 "  style="fill:#000000ff;fill-rule:nonzero;" />
		<polygon points="70.0,352.6 66.4,363.88 75.4,356.68 64.6,356.68 73.6,363.88 "  style="fill:#000000ff;fill-rule:nonzero;" />
		<polygon points="82.0,124 76,136.0 88.0,136.0 "  style="fill:#000000ff;fill-rule:nonzero;" />
		<polygon points="82.0,136 76,148.0 88.0,148.0 "  style="fill:#000000ff;fill-rule:nonzero;" />
		<polygon points="82.0,148 76,160.0 88.0,160.0 "  style="fill:#000000ff;fill-rule:nonzero;" />
		<polygon points="82.0,160 76,172.0 88.0,172.0 "  style="fill:#000000ff;fill-rule:nonzero;" />
		<polygon points="82.0,172.6 78.4,183.88 87.4,176.68 76.6,176.68 85.6,183.88 "  style="fill:#000000ff;fill-rule:nonzero;" />
		<polygon points="82.0,184.6 78.4,195.88 87.4,188.68 76.6,188.68 85.6,195.88 "  style="fill:#000000ff;fill-rule:nonzero;" />
		<polygon points="82.0,196 76,208.0 88.0,208.0 "  style="fill:#000000ff;fill-rule:nonzero;" />
		<polygon points="82.0,208 76,220.0 88.0,220.0 "  style="fill:#000000ff;fill-rule:nonzero;" />
		<polygon points="82.0,232 76,244.0 88.0,244.0 "  style="fill:#000000ff;fill-rule:nonzero;" />
		<polygon points="82.0,292 76,304.0 88.0,304.0 "  style="fill:#000000ff;fill-rule:nonzero;" />
		<polygon points="82.0,328 76,340.0 88.0,340.0 "  style="fill:#000000ff;fill-rule:nonzero;" />
		<polygon points="82.0,340.6 78.4,351.88 87.4,344.68 76.6,344.68 85.6,351.88 "  style="fill:#000000ff;fill-rule:nonzero;" />
		<polygon points="82.0,352 76,364.0 88.0,364.0 "  style="fill:#000000ff;fill-rule:nonzero;" />
		<polygon points="82.0,364.6 78.4,375.88 87.4,368.68 76.6,368.68 85.6,375.88 "  style="fill:#000000ff;fill-rule:nonzero;" />
		<polygon points="94.0,148 88,160.0 100.0,160.0 "  style="fill:#000000ff;fill-rule:nonzero;" />
		<polygon points="94.0,160.6 90.4,171.88 99.4,164.68 88.6,164.68 97.6,171.88 "  style="fill:#000000ff;fill-rule:nonzero;" />
		<polygon points="94.0,184 88,196.0 100.0,196.0 "  style="fill:#000000ff;fill-rule:nonzero;" />
		<polygon points="94.0,196 88,208.0 100.0,208.0 "  style="fill:#000000ff;fill-rule:nonzero;" />
		<polygon points="94.0,208 88,220.0 100.0,220.0 "  style="fill:#000000ff;fill-rule:nonzero;" />
		<polygon points="94.0,220 88,232.0 100.0,232.0 "  style="fill:#000000ff;fill-rule:nonzero;" />
		<polygon points="94.0,232 88,244.0 100.0,244.0 "  style="fill:#000000ff;fill-rule:nonzero;" />
		<polygon points="94.0,280 88,292.0 100.0,292.0 "  style="fill:#000000ff;fill-rule:nonzero;" />
		<polygon points="94.0,304 88,316.0 100.0,316.0 "  style="fill:#000000ff;fill-rule:nonzero;" />
		<polygon points="94.0,328 88,340.0 100.0,340.0 "  style="fill:#000000ff;fill-rule:nonzero;" />
		<polygon points="106.0,124 100,136.0 112.0,136.0 "  style="fill:#000000ff;fill-rule:nonzero;" />
		<polygon points="106.0,148 100,160.0 112.0,160.0 "  style="fill:#000000ff;fill-rule:nonzero;" />
		<polygon points="106.0,172.6 102.4,183.88 111.4,176.68 100.6,176.68 109.6,183.88 "  style="fill:#000000ff;fill-rule:nonzero;" />
		<polygon points="106.0,196.6 102.4,207.88 111.4,200.68 100.6,200.68 109.6,207.88 "  style="fill:#000000ff;fill-rule:nonzero;" />
		<polygon points="106.0,220.6 102.4,231.88 111.4,224.68 100.6,224.68 109.6,231.88 "  style="fill:#000000ff;fill-rule:nonzero;" />
		<polygon points="106.0,244 100,256.0 112.0,256.0 "  style="fill:#000000ff;fill-rule:nonzero;" />
		<polygon points="106.0,268 100,280.0 112.0,280.0 "  style="fill:#000000ff;fill-rule:nonzero;" />
		<polygon points="106.0,292 100,304.0 112.0,304.0 "  style="fill:#000000ff;fill-rule:nonzero;" />
		<polygon points="106.0,316.6 102.4,327.88 111.4,320.68 100.6,320.68 109.6,327.88 "  style="fill:#000000ff;fill-rule:nonzero;" />
		<polygon points="106.0,340.6 102.4,351.88 111.4,344.68 100.6,344.68 109.6,351.88 "  style="fill:#000000ff;fill-rule:nonzero;" />
		<polygon points="106.0,364.6 102.4,375.88 111.4,368.68 100.6,368.68 109.6,375.88 "  style="fill:#000000ff;fill-rule:nonzero;" />
		<polygon points="118.0,148 112,160.0 124.0,160.0 "  style="fill:#000000ff;fill-rule:nonzero;" />
		<polygon points="118.0,208 112,220.0 124.0,220.0 "  style="fill:#000000ff;fill-rule:nonzero;" />
		<polygon points="118.0,244.6 114.4,255.88 123.4,248.68 112.6,248.68 121.6,255.88 "  style="fill:#000000ff;fill-rule:nonzero;" />
		<polygon points="118.0,268 112,280.0 124.0,280.0 "  style="fill:#000000ff;fill-rule:nonzero;" />
		<polygon points="118.0,304 112,316.0 124.0,316.0 "  style="fill:#000000ff;fill-rule:nonzero;" />
		<polygon points="118.0,328.6 114.4,339.88 123.4,332.68 112.6,332.68 121.6,339.88 "  style="fill:#000000ff;fill-rule:nonzero;" />
		<polygon points="118.0,352.6 114.4,363.88 123.4,356.68 112.6,356.68 121.6,363.88 "  style="fill:#000000ff;fill-rule:nonzero;" />
		<polygon points="118.0,364.6 114.4,375.88 123.4,368.68 112.6,368.68 121.6,375.88 "  style="fill:#000000ff;fill-rule:nonzero;" />
		<polygon points="130.0,28.6 126.4,39.88 135.4,32.68 124.6,32.68 133.6,39.88 "  style="fill:#000000ff;fill-rule:nonzero;" />
		<polygon points="130.0,40 124,52.0 136.0,52.0 "  style="fill:#000000ff;fill-rule:nonzero;" />
		<polygon points="130.0,52 124,64.0 136.0,64.0 "  style="fill:#000000ff;fill-rule:nonzero;" />
		<polygon points="130.0,88.6 126.4,99.88 135.4,92.68 124.6,92.68 133.6,99.88 "  style="fill:#000000ff;fill-rule:nonzero;" />
		<polygon points="130.0,100.6 126.4,111.88 135.4,104.68 124.6,104.68 133.6,111.88 "  style="fill:#000000ff;fill-rule:nonzero;" />
		<polygon points="130.0,112.6 126.4,123.88 135.4,116.68 124.6,116.68 133.6,123.88 "  style="fill:#000000ff;fill-rule:nonzero;" />
		<polygon points="130.0,124 124,136.0 136.0,136.0 "  style="fill:#000000ff;fill-rule:nonzero;" />
		<polygon points="130.0,148.6 126.4,159.88 135.4,152.68 124.6,152.68 133.6,159.88 "  style="fill:#000000ff;fill-rule:nonzero;" />
		<polygon points="130.0,172 124,184.0 136.0,184.0 "  style="fill:#000000ff;fill-rule:nonzero;" />
		<polygon points="130.0,196.6 126.4,207.88 135.4,200.68 124.6,200.68 133.6,207.88 "  style="fill:#000000ff;fill-rule:nonzero;" />
		<polygon points="130.0,208.6 126.4,219.88 135.4,212.68 124.6,212.68 133.6,219.88 "  style="fill:#000000ff;fill-rule:nonzero;" />
		<polygon points="130.0,220 124,232.0 136.0,232.0 "  style="fill:#000000ff;fill-rule:nonzero;" />
		<polygon points="130.0,232 124,244.0 136.0,244.0 "  style="fill:#000000ff;fill-rule:nonzero;" />
		<polygon points="130.0,244.6 126.4,255.88 135.4,248.68 124.6,248.68 133.6,255.88 "  style="fill:#000000ff;fill-rule:nonzero;" />
		<polygon points="130.0,256.6 126.4,267.88 135.4,260.68 124.6,260.68 133.6,267.88 "  style="fill:#000000ff;fill-rule:nonzero;" />
		<polygon points="130.0,316.6 126.4,327.88 135.4,320.68 124.6,320.68 133.6,327.88 "  style="fill:#000000ff;fill-rule:nonzero;" />
		<polygon points="130.0,328 124,340.0 136.0,340.0 "  style="fill:#000000ff;fill-rule:nonzero;" />
		<polygon points="130.0,340.6 126.4,351.88 135.4,344.68 124.6,344.68 133.6,351.88 "  style="fill:#000000ff;fill-rule:nonzero;" />
		<polygon points="130.0,364.6 126.4,375.88 135.4,368.68 124.6,368.68 133.6,375.88 "  style="fill:#000000ff;fill-rule:nonzero;" />
		<polygon points="130.0,376.6 126.4,387.88 135.4,380.68 124.6,380.68 133.6,387.88 "  style="fill:#000000ff;fill-rule:nonzero;" />
		<polygon points="130.0,412 124,424.0 136.0,424.0 "  style="fill:#000000ff;fill-rule:nonzero;" />
		<polygon points="130.0,424.6 126.4,435.88 135.4,428.68 124.6,428.68 133.6,435.88 "  style="fill:#000000ff;fill-rule:nonzero;" />
		<polygon points="130.0,436 124,448.0 136.0,448.0 "  style="fill:#000000ff;fill-rule:nonzero;" />
		<polygon points="142.0,52.6 138.4,63.88 147.4,56.68 136.6,56.68 145.6,63.88 "  style="fill:#000000ff;fill-rule:nonzero;" />
		<polygon points="142.0,88 136,100.0 148.0,100.0 "  style="fill:#000000ff;fill-rule:nonzero;" />
		<polygon points="142.0,112.6 138.4,123.88 147.4,116.68 136.6,116.68 145.6,123.88 "  style="fill:#000000ff;fill-rule:nonzero;" />
		<polygon points="142.0,136.6 138.4,147.88 147.4,140.68 136.6,140.68 145.6,147.88 "  style="fill:#000000ff;fill-rule:nonzero;" />
		<polygon points="142.0,148.6 138.4,159.88 147.4,152.68 136.6,152.68 145.6,159.88 "  style="fill:#000000ff;fill-rule:nonzero;" />
		<polygon points="142.0,160 136,172.0 148.0,172.0 "  style="fill:#000000ff;fill-rule:nonzero;" />
		<polygon points="142.0,172 136,184.0 148.0,184.0 "  style="fill:#000000ff;fill-rule:nonzero;" />
		<polygon points="142.0,196 136,208.0 148.0,208.0 "  style="fill:#000000ff;fill-rule:nonzero;" />
		<polygon points="142.0,208.6 138.4,219.88 147.4,212.68 136.6,212.68 145.6,219.88 "  style="fill:#000000ff;fill-rule:nonzero;" />
		<polygon points="142.0,244.6 138.4,255.88 147.4,248.68 136.6,248.68 145.6,255.88 "  style="fill:#000000ff;fill-rule:nonzero;" />
		<polygon points="142.0,268.6 138.4,279.88 147.4,272.68 136.6,272.68 145.6,279.88 "  style="fill:#000000ff;fill-rule:nonzero;" />
		<polygon points="142.0,280.6 138.4,291.88 147.4,284.68 136.6,284.68 145.6,291.88 "  style="fill:#000000ff;fill-rule:nonzero;" />
		<polygon points="142.0,292.6 138.4,303.88 147.4,296.68 136.6,296.68 145.6,303.88 "  style="fill:#000000ff;fill-rule:nonzero;" />
		<polygon points="142.0,304.6 138.4,315.88 147.4,308.68 136.6,308.68 145.6,315.88 "  style="fill:#000000ff;fill-rule:nonzero;" />
		<polygon points="142.0,316.6 138.4,327.88 147.4,320.68 136.6,320.68 145.6,327.88 "  style="fill:#000000ff;fill-rule:nonzero;" />
		<polygon points="142.0,328.6 138.4,339.88 147.4,332.68 136.6,332.68 145.6,339.88 "  style="fill:#000000ff;fill-rule:nonzero;" />
		<polygon points="142.0,376.6 138.4,387.88 147.4,380.68 136.6,380.68 145.6,387.88 "  style="fill:#000000ff;fill-rule:nonzero;" />
		<polygon points="142.0,412.6 138.4,423.88 147.4,416.68 136.6,416.68 145.6,423.88 "  style="fill:#000000ff;fill-rule:nonzero;" />
		<polygon points="154.0,40 148,52.0 160.0,52.0 "  style="fill:#000000ff;fill-rule:nonzero;" />
		<polygon points="154.0,52.6 150.4,63.88 159.4,56.68 148.6,56.68 157.6,63.88 "  style="fill:#000000ff;fill-rule:nonzero;" />
		<polygon points="154.0,64.6 150.4,75.88 159.4,68.68 148.6,68.68 157.6,75.88 "  style="fill:#000000ff;fill-rule:nonzero;" />
		<polygon points="154.0,76 148,88.0 160.0,88.0 "  style="fill:#000000ff;fill-rule:nonzero;" />
		<polygon points="154.0,88 148,100.0 160.0,100.0 "  style="fill:#000000ff;fill-rule:nonzero;" />
		<polygon points="154.0,100 148,112.0 160.0,112.0 "  style="fill:#000000ff;fill-rule:nonzero;" />
		<polygon points="154.0,112.6 150.4,123.88 159.4,116.68 148.6,116.68 157.6,123.88 "  style="fill:#000000ff;fill-rule:nonzero;" />
		<polygon points="154.0,124 148,136.0 160.0,136.0 "  style="fill:#000000ff;fill-rule:nonzero;" />
		<polygon points="154.0,148.6 150.4,159.88 159.4,152.68 148.6,152.68 157.6,159.88 "  style="fill:#000000ff;fill-rule:nonzero;" />
		<polygon points="154.0,160 148,172.0 160.0,172.0 "  style="fill:#000000ff;fill-rule:nonzero;" />
		<polygon points="154.0,172.6 150.4,183.88 159.4,176.68 148.6,176.68 157.6,183.88 "  style="fill:#000000ff;fill-rule:nonzero;" />
		<polygon points="154.0,184.6 150.4,195.88 159.4,188.68 148.6,188.68 157.6,195.88 "  style="fill:#000000ff;fill-rule:nonzero;" />
		<polygon points="154.0,208 148,220.0 160.0,220.0 "  style="fill:#000000ff;fill-rule:nonzero;" />
		<polygon points="154.0,220.6 150.4,231.88 159.4,224.68 148.6,224.68 157.6,231.88 "  style="fill:#000000ff;fill-rule:nonzero;" />
		<polygon points="154.0,244 148,256.0 160.0,256.0 "  style="fill:#000000ff;fill-rule:nonzero;" />
		<polygon points="154.0,256 148,268.0 160.0,268.0 "  style="fill:#000000ff;fill-rule:nonzero;" />
		<polygon points="154.0,292 148,304.0 160.0,304.0 "  style="fill:#000000ff;fill-rule:nonzero;" />
		<polygon points="154.0,316.6 150.4,327.88 159.4,320.68 148.6,320.68 157.6,327.88 "  style="fill:#000000ff;fill-rule:nonzero;" />
		<polygon points="154.0,328 148,340.0 160.0,340.0 "  style="fill:#000000ff;fill-rule:nonzero;" />
		<polygon points="154.0,364.6 150.4,375.88 159.4,368.68 148.6,368.68 157.6,375.88 "  style="fill:#000000ff;fill-rule:nonzero;" />
		<polygon points="154.0,376.6 150.4,387.88 159.4,380.68 148.6,380.68 157.6,387.88 "  style="fill:#000000ff;fill-rule:nonzero;" />
		<polygon points="154.0,388.6 150.4,399.88 159.4,392.68 148.6,392.68 157.6,399.88 "  style="fill:#000000ff;fill-rule:nonzero;" />
		<polygon points="154.0,400.6 150.4,411.88 159.4,404.68 148.6,404.68 157.6,411.88 "  style="fill:#000000ff;fill-rule:nonzero;" />
		<polygon points="154.0,424.6 150.4,435.88 159.4,428.68 148.6,428.68 157.6,435.88 "  style="fill:#000000ff;fill-rule:nonzero;" />
		<polygon points="154.0,448 148,460.0 160.0,460.0 "  style="fill:#000000ff;fill-rule:nonzero;" />
		<polygon points="166.0,52 160,64.0 172.0,64.0 "  style="fill:#000000ff;fill-rule:nonzero;" />
		<polygon points="166.0,64.6 162.4,75.88 171.4,68.68 160.6,68.68 169.6,75.88 "  style="fill:#000000ff;fill-rule:nonzero;" />
		<polygon points="166.0,76.6 162.4,87.88 171.4,80.68 160.6,80.68 169.6,87.88 "  style="fill:#000000ff;fill-rule:nonzero;" />
		<polygon points="166.0,112.6 162.4,123.88 171.4,116.68 160.6,116.68 169.6,123.88 "  style="fill:#000000ff;fill-rule:nonzero;" />
		<polygon points="166.0,124.6 162.4,135.88 171.4,128.68 160.6,128.68 169.6,135.88 "  style="fill:#000000ff;fill-rule:nonzero;" />
		<polygon points="166.0,148.6 162.4,159.88 171.4,152.68 160.6,152.68 169.6,159.88 "  style="fill:#000000ff;fill-rule:nonzero;" />
		<polygon points="166.0,184 160,196.0 172.0,196.0 "  style="fill:#000000ff;fill-rule:nonzero;" />
		<polygon points="166.0,196 160,208.0 172.0,208.0 "  style="fill:#000000ff;fill-rule:nonzero;" />
		<polygon points="166.0,208 160,220.0 172.0,220.0 "  style="fill:#000000ff;fill-rule:nonzero;" />
		<polygon points="166.0,256.6 162.4,267.88 171.4,260.68 160.6,260.68 169.6,267.88 "  style="fill:#000000ff;fill-rule:nonzero;" />
		<polygon points="166.0,280.6 162.4,291.88 171.4,284.68 160.6,284.68 169.6,291.88 "  style="fill:#000000ff;fill-rule:nonzero;" />
		<polygon points="166.0,328.6 162.4,339.88 171.4,332.68 160.6,332.68 169.6,339.88 "  style="fill:#000000ff;fill-rule:nonzero;" />
		<polygon points="166.0,340.6 162.4,351.88 171.4,344.68 160.6,344.68 169.6,351.88 "  style="fill:#000000ff;fill-rule:nonzero;" />
		<polygon points="166.0,364 160,376.0 172.0,376.0 "  style="fill:#000000ff;fill-rule:nonzero;" />
		<text fill="#000000ff" font-size="12" y="388" x="160">小</text>
		<polygon points="178.0,40 172,52.0 184.0,52.0 "  style="fill:#000000ff;fill-rule:nonzero;" />
		<polygon points="178.0,52.6 174.4,63.88 183.4,56.68 172.6,56.68 181.6,63.88 "  style="fill:#000000ff;fill-rule:nonzero;" />
		<polygon points="178.0,64.6 174.4,75.88 183.4,68.68 172.6,68.68 181.6,75.88 "  style="fill:#000000ff;fill-rule:nonzero;" />
		<polygon points="178.0,76.6 174.4,87.88 183.4,80.68 172.6,80.68 181.6,87.88 "  style="fill:#000000ff;fill-rule:nonzero;" />
		<polygon points="178.0,100 172,112.0 184.0,112.0 "  style="fill:#000000ff;fill-rule:nonzero;" />
		<polygon points="178.0,112.6 174.4,123.88 183.4,116.68 172.6,116.68 181.6,123.88 "  style="fill:#000000ff;fill-rule:nonzero;" />
		<polygon points="178.0,124.6 174.4,135.88 183.4,128.68 172.6,128.68 181.6,135.88 "  style="fill:#000000ff;fill-rule:nonzero;" />
		<polygon points="178.0,136.6 174.4,147.88 183.4,140.68 172.6,140.68 181.6,147.88 "  style="fill:#000000ff;fill-rule:nonzero;" />
		<polygon points="178.0,184 172,196.0 184.0,196.0 "  style="fill:#000000ff;fill-rule:nonzero;" />
		<polygon points="178.0,196.6 174.4,207.88 183.4,200.68 172.6,200.68 181.6,207.88 "  style="fill:#000000ff;fill-rule:nonzero;" />
		<polygon points="178.0,208 172,220.0 184.0,220.0 "  style="fill:#000000ff;fill-rule:nonzero;" />
		<polygon points="178.0,244.6 174.4,255.88 183.4,248.68 172.6,248.68 181.6,255.88 "  style="fill:#000000ff;fill-rule:nonzero;" />
		<polygon points="178.0,292 172,304.0 184.0,304.0 "  style="fill:#000000ff;fill-rule:nonzero;" />
		<polygon points="178.0,304.6 174.4,315.88 183.4,308.68 172.6,308.68 181.6,315.88 "  style="fill:#000000ff;fill-rule:nonzero;" />
		<polygon points="178.0,316 172,328.0 184.0,328.0 "  style="fill:#000000ff;fill-rule:nonzero;" />
		<polygon points="178.0,364 172,376.0 184.0,376.0 "  style="fill:#000000ff;fill-rule:nonzero;" />
		<polygon points="178.0,388.6 174.4,399.88 183.4,392.68 172.6,392.68 181.6,399.88 "  style="fill:#000000ff;fill-rule:nonzero;" />
		<polygon points="178.0,412.6 174.4,423.88 183.4,416.68 172.6,416.68 181.6,423.88 "  style="fill:#000000ff;fill-rule:nonzero;" />
		<polygon points="178.0,424.6 174.4,435.88 183.4,428.68 172.6,428.68 181.6,435.88 "  style="fill:#000000ff;fill-rule:nonzero;" />
		<polygon points="178.0,436.6 174.4,447.88 183.4,440.68 172.6,440.68 181.6,447.88 "  style="fill:#000000ff;fill-rule:nonzero;" />
		<polygon points="178.0,448.6 174.4,459.88 183.4,452.68 172.6,452.68 181.6,459.88 "  style="fill:#000000ff;fill-rule:nonzero;" />
		<polygon points="178.0,460 172,472.0 184.0,472.0 "  style="fill:#000000ff;fill-rule:nonzero;" />
		<polygon points="190.0,76 184,88.0 196.0,88.0 "  style="fill:#000000ff;fill-rule:nonzero;" />
		<polygon points="190.0,124.6 186.4,135.88 195.4,128.68 184.6,128.68 193.6,135.88 "  style="fill:#000000ff;fill-rule:nonzero;" />
		<polygon points="190.0,136 184,148.0 196.0,148.0 "  style="fill:#000000ff;fill-rule:nonzero;" />
		<polygon points="190.0,160 184,172.0 196.0,172.0 "  style="fill:#000000ff;fill-rule:nonzero;" />
		<polygon points="190.0,172.6 186.4,183.88 195.4,176.68 184.6,176.68 193.6,183.88 "  style="fill:#000000ff;fill-rule:nonzero;" />
		<text fill="#000000ff" font-size="12" y="220" x="184">灰</text>
		<polygon points="190.0,220 184,232.0 196.0,232.0 "  style="fill:#000000ff;fill-rule:nonzero;" />
		<polygon points="190.0,244 184,256.0 196.0,256.0 "  style="fill:#000000ff;fill-rule:nonzero;" />
		<polygon points="190.0,256.6 186.4,267.88 195.4,260.68 184.6,260.68 193.6,267.88 "  style="fill:#000000ff;fill-rule:nonzero;" />
		<polygon points="190.0,268.6 186.4,279.88 195.4,272.68 184.6,272.68 193.6,279.88 "  style="fill:#000000ff;fill-rule:nonzero;" />
		<polygon points="190.0,280.6 186.4,291.88 195.4,284.68 184.6,284.68 193.6,291.88 "  style="fill:#000000ff;fill-rule:nonzero;" />
		<polygon points="190.0,292 184,304.0 196.0,304.0 "  style="fill:#000000ff;fill-rule:nonzero;" />
		<polygon points="190.0,304.6 186.4,315.88 195.4,308.68 184.6,308.68 193.6,315.88 "  style="fill:#000000ff;fill-rule:nonzero;" />
		<polygon points="190.0,316 184,328.0 196.0,328.0 "  style="fill:#000000ff;fill-rule:nonzero;" />
		<polygon points="190.0,352.6 186.4,363.88 195.4,356.68 184.6,356.68 193.6,363.88 "  style="fill:#000000ff;fill-rule:nonzero;" />
		<polygon points="190.0,400 184,412.0 196.0,412.0 "  style="fill:#000000ff;fill-rule:nonzero;" />
		<polygon points="190.0,412.6 186.4,423.88 195.4,416.68 184.6,416.68 193.6,423.88 "  style="fill:#000000ff;fill-rule:nonzero;" />
		<polygon points="190.0,436.6 186.4,447.88 195.4,440.68 184.6,440.68 193.6,447.88 "  style="fill:#000000ff;fill-rule:nonzero;" />
		<polygon points="190.0,460 184,472.0 196.0,472.0 "  style="fill:#000000ff;fill-rule:nonzero;" />
		<polygon points="202.0,52.6 198.4,63.88 207.4,56.68 196.6,56.68 205.6,63.88 "  style="fill:#000000ff;fill-rule:nonzero;" />
		<polygon points="202.0,64 196,76.0 208.0,76.0 "  style="fill:#000000ff;fill-rule:nonzero;" />
		<polygon points="202.0,88.6 198.4,99.88 207.4,92.68 196.6,92.68 205.6,99.88 "  style="fill:#000000ff;fill-rule:nonzero;" />
		<polygon points="202.0,100.6 198.4,111.88 207.4,104.68 196.6,104.68 205.6,111.88 "  style="fill:#000000ff;fill-rule:nonzero;" />
		<polygon points="202.0,112 196,124.0 208.0,124.0 "  style="fill:#000000ff;fill-rule:nonzero;" />
		<polygon points="202.0,136 196,148.0 208.0,148.0 "  style="fill:#000000ff;fill-rule:nonzero;" />
		<polygon points="202.0,172 196,184.0 208.0,184.0 "  style="fill:#000000ff;fill-rule:nonzero;" />
		<polygon points="202.0,184.6 198.4,195.88 207.4,188.68 196.6,188.68 205.6,195.88 "  style="fill:#000000ff;fill-rule:nonzero;" />
		<polygon points="202.0,196 196,208.0 208.0,208.0 "  style="fill:#000000ff;fill-rule:nonzero;" />
		<polygon points="202.0,208 196,220.0 208.0,220.0 "  style="fill:#000000ff;fill-rule:nonzero;" />
		<polygon points="202.0,232.6 198.4,243.88 207.4,236.68 196.6,236.68 205.6,243.88 "  style="fill:#000000ff;fill-rule:nonzero;" />
		<polygon points="202.0,292 196,304.0 208.0,304.0 "  style="fill:#000000ff;fill-rule:nonzero;" />
		<polygon points="202.0,316.6 198.4,327.88 207.4,320.68 196.6,320.68 205.6,327.88 "  style="fill:#000000ff;fill-rule:nonzero;" />
		<polygon points="202.0,328.6 198.4,339.88 207.4,332.68 196.6,332.68 205.6,339.88 "  style="fill:#000000ff;fill-rule:nonzero;" />
		<polygon points="202.0,340.6 198.4,351.88 207.4,344.68 196.6,344.68 205.6,351.88 "  style="fill:#000000ff;fill-rule:nonzero;" />
		<polygon points="202.0,376.6 198.4,387.88 207.4,380.68 196.6,380.68 205.6,387.88 "  style="fill:#000000ff;fill-rule:nonzero;" />
		<polygon points="202.0,412.6 198.4,423.88 207.4,416.68 196.6,416.68 205.6,423.88 "  style="fill:#000000ff;fill-rule:nonzero;" />
		<polygon points="202.0,424.6 198.4,435.88 207.4,428.68 196.6,428.68 205.6,435.88 "  style="fill:#000000ff;fill-rule:nonzero;" />
		<polygon points="202.0,460.6 198.4,471.88 207.4,464.68 196.6,464.68 205.6,471.88 "  style="fill:#000000ff;fill-rule:nonzero;" />
		<polygon points="214.0,28.6 210.4,39.88 219.4,32.68 208.6,32.68 217.6,39.88 "  style="fill:#000000ff;fill-rule:nonzero;" />
		<polygon points="214.0,52 208,64.0 220.0,64.0 "  style="fill:#000000ff;fill-rule:nonzero;" />
		<polygon points="214.0,124.6 210.4,135.88 219.4,128.68 208.6,128.68 217.6,135.88 "  style="fill:#000000ff;fill-rule:nonzero;" />
		<polygon points="214.0,136.6 210.4,147.88 219.4,140.68 208.6,140.68 217.6,147.88 "  style="fill:#000000ff;fill-rule:nonzero;" />
		<polygon points="214.0,148.6 210.4,159.88 219.4,152.68 208.6,152.68 217.6,159.88 "  style="fill:#000000ff;fill-rule:nonzero;" />
		<polygon points="214.0,172 208,184.0 220.0,184.0 "  style="fill:#000000ff;fill-rule:nonzero;" />
		<polygon points="214.0,196.6 210.4,207.88 219.4,200.68 208.6,200.68 217.6,207.88 "  style="fill:#000000ff;fill-rule:nonzero;" />
		<polygon points="214.0,208 208,220.0 220.0,220.0 "  style="fill:#000000ff;fill-rule:nonzero;" />
		<polygon points="214.0,220.6 210.4,231.88 219.4,224.68 208.6,224.68 217.6,231.88 "  style="fill:#000000ff;fill-rule:nonzero;" />
		<polygon points="214.0,244.6 210.4,255.88 219.4,248.68 208.6,248.68 217.6,255.88 "  style="fill:#000000ff;fill-rule:nonzero;" />
		<polygon points="214.0,268.6 210.4,279.88 219.4,272.68 208.6,272.68 217.6,279.88 "  style="fill:#000000ff;fill-rule:nonzero;" />
		<polygon points="214.0,292.6 210.4,303.88 219.4,296.68 208.6,296.68 217.6,303.88 "  style="fill:#000000ff;fill-rule:nonzero;" />
		<polygon points="214.0,304 208,316.0 220.0,316.0 "  style="fill:#000000ff;fill-rule:nonzero;" />
		<polygon points="214.0,340 208,352.0 220.0,352.0 "  style="fill:#000000ff;fill-rule:nonzero;" />
		<polygon points="214.0,352.6 210.4,363.88 219.4,356.68 208.6,356.68 217.6,363.88 "  style="fill:#000000ff;fill-rule:nonzero;" />
		<polygon points="214.0,400.6 210.4,411.88 219.4,404.68 208.6,404.68 217.6,411.88 "  style="fill:#000000ff;fill-rule:nonzero;" />
		<polygon points="214.0,436 208,448.0 220.0,448.0 "  style="fill:#000000ff;fill-rule:nonzero;" />
		<polygon points="226.0,52 220,64.0 232.0,64.0 "  style="fill:#000000ff;fill-rule:nonzero;" />
		<polygon points="226.0,100 220,112.0 232.0,112.0 "  style="fill:#000000ff;fill-rule:nonzero;" />
		<polygon points="226.0,124.6 222.4,135.88 231.4,128.68 220.6,128.68 229.6,135.88 "  style="fill:#000000ff;fill-rule:nonzero;" />
		<polygon points="226.0,184.6 222.4,195.88 231.4,188.68 220.6,188.68 229.6,195.88 "  style="fill:#000000ff;fill-rule:nonzero;" />
		<polygon points="226.0,208.6 222.4,219.88 231.4,212.68 220.6,212.68 229.6,219.88 "  style="fill:#000000ff;fill-rule:nonzero;" />
		<polygon points="226.0,220 220,232.0 232.0,232.0 "  style="fill:#000000ff;fill-rule:nonzero;" />
		<polygon points="226.0,244 220,256.0 232.0,256.0 "  style="fill:#000000ff;fill-rule:nonzero;" />
		<polygon points="226.0,256 220,268.0 232.0,268.0 "  style="fill:#000000ff;fill-rule:nonzero;" />
		<polygon points="226.0,268 220,280.0 232.0,280.0 "  style="fill:#000000ff;fill-rule:nonzero;" />
		<polygon points="226.0,280.6 222.4,291.88 231.4,284.68 220.6,284.68 229.6,291.88 "  style="fill:#000000ff;fill-rule:nonzero;" />
		<polygon points="226.0,292.6 222.4,303.88 231.4,296.68 220.6,296.68 229.6,303.88 "  style="fill:#000000ff;fill-rule:nonzero;" />
		<polygon points="226.0,328.6 222.4,339.88 231.4,332.68 220.6,332.68 229.6,339.88 "  style="fill:#000000ff;fill-rule:nonzero;" />
		<polygon points="226.0,364.6 222.4,375.88 231.4,368.68 220.6,368.68 229.6,375.88 "  style="fill:#000000ff;fill-rule:nonzero;" />
		<polygon points="226.0,376.6 222.4,387.88 231.4,380.68 220.6,380.68 229.6,387.88 "  style="fill:#000000ff;fill-rule:nonzero;" />
		<polygon points="226.0,388 220,400.0 232.0,400.0 "  style="fill:#000000ff;fill-rule:nonzero;" />
		<polygon points="226.0,412.6 222.4,423.88 231.4,416.68 220.6,416.68 229.6,423.88 "  style="fill:#000000ff;fill-rule:nonzero;" />
		<polygon points="226.0,460.6 222.4,471.88 231.4,464.68 220.6,464.68 229.6,471.88 "  style="fill:#000000ff;fill-rule:nonzero;" />
		<polygon points="238.0,40.6 234.4,51.88 243.4,44.68 232.6,44.68 241.6,51.88 "  style="fill:#000000ff;fill-rule:nonzero;" />
		<polygon points="238.0,88 232,100.0 244.0,100.0 "  style="fill:#000000ff;fill-rule:nonzero;" />
		<polygon points="238.0,112.6 234.4,123.88 243.4,116.68 232.6,116.68 241.6,123.88 "  style="fill:#000000ff;fill-rule:nonzero;" />
		<polygon points="238.0,172 232,184.0 244.0,184.0 "  style="fill:#000000ff;fill-rule:nonzero;" />
		<polygon points="238.0,196 232,208.0 244.0,208.0 "  style="fill:#000000ff;fill-rule:nonzero;" />
		<polygon points="238.0,208.6 234.4,219.88 243.4,212.68 232.6,212.68 241.6,219.88 "  style="fill:#000000ff;fill-rule:nonzero;" />
		<polygon points="238.0,220 232,232.0 244.0,232.0 "  style="fill:#000000ff;fill-rule:nonzero;" />
		<polygon points="238.0,232.6 234.4,243.88 243.4,236.68 232.6,236.68 241.6,243.88 "  style="fill:#000000ff;fill-rule:nonzero;" />
		<polygon points="238.0,280.6 234.4,291.88 243.4,284.68 232.6,284.68 241.6,291.88 "  style="fill:#000000ff;fill-rule:nonzero;" />
		<polygon points="238.0,292 232,304.0 244.0,304.0 "  style="fill:#000000ff;fill-rule:nonzero;" />
		<polygon points="238.0,304.6 234.4,315.88 243.4,308.68 232.6,308.68 241.6,315.88 "  style="fill:#000000ff;fill-rule:nonzero;" />
		<polygon points="238.0,316.6 234.4,327.88 243.4,320.68 232.6,320.68 241.6,327.88 "  style="fill:#000000ff;fill-rule:nonzero;" />
		<polygon points="238.0,340.6 234.4,351.88 243.4,344.68 232.6,344.68 241.6,351.88 "  style="fill:#000000ff;fill-rule:nonzero;" />
		<polygon points="238.0,352.6 234.4,363.88 243.4,356.68 232.6,356.68 241.6,363.88 "  style="fill:#000000ff;fill-rule:nonzero;" />
		<polygon points="238.0,364 232,376.0 244.0,376.0 "  style="fill:#000000ff;fill-rule:nonzero;" />
		<polygon points="238.0,376 232,388.0 244.0,388.0 "  style="fill:#000000ff;fill-rule:nonzero;" />
		<polygon points="238.0,412 232,424.0 244.0,424.0 "  style="fill:#000000ff;fill-rule:nonzero;" />
		<polygon points="250.0,40 244,52.0 256.0,52.0 "  style="fill:#000000ff;fill-rule:nonzero;" />
		<polygon points="250.0,64 244,76.0 256.0,76.0 "  style="fill:#000000ff;fill-rule:nonzero;" />
		<polygon points="250.0,88 244,100.0 256.0,100.0 "  style="fill:#000000ff;fill-rule:nonzero;" />
		<polygon points="250.0,100 244,112.0 256.0,112.0 "  style="fill:#000000ff;fill-rule:nonzero;" />
		<polygon points="250.0,124.6 246.4,135.88 255.4,128.68 244.6,128.68 253.6,135.88 "  style="fill:#000000ff;fill-rule:nonzero;" />
		<polygon points="250.0,148 244,160.0 256.0,160.0 "  style="fill:#000000ff;fill-rule:nonzero;" />
		<polygon points="250.0,160 244,172.0 256.0,172.0 "  style="fill:#000000ff;fill-rule:nonzero;" />
		<polygon points="250.0,208 244,220.0 256.0,220.0 "  style="fill:#000000ff;fill-rule:nonzero;" />
		<polygon points="250.0,220.6 246.4,231.88 255.4,224.68 244.6,224.68 253.6,231.88 "  style="fill:#000000ff;fill-rule:nonzero;" />
		<polygon points="250.0,304 244,316.0 256.0,316.0 "  style="fill:#000000ff;fill-rule:nonzero;" />
		<polygon points="250.0,340.6 246.4,351.88 255.4,344.68 244.6,344.68 253.6,351.88 "  style="fill:#000000ff;fill-rule:nonzero;" />
		<polygon points="250.0,352 244,364.0 256.0,364.0 "  style="fill:#000000ff;fill-rule:nonzero;" />
		<polygon points="250.0,364 244,376.0 256.0,376.0 "  style="fill:#000000ff;fill-rule:nonzero;" />
		<polygon points="250.0,376.6 246.4,387.88 255.4,380.68 244.6,380.68 253.6,387.88 "  style="fill:#000000ff;fill-rule:nonzero;" />
		<polygon points="250.0,388 244,400.0 256.0,400.0 "  style="fill:#000000ff;fill-rule:nonzero;" />
		<polygon points="250.0,424.6 246.4,435.88 255.4,428.68 244.6,428.68 253.6,435.88 "  style="fill:#000000ff;fill-rule:nonzero;" />
		<polygon points="250.0,436 244,448.0 256.0,448.0 "  style="fill:#000000ff;fill-rule:nonzero;" />
		<polygon points="250.0,448 244,460.0 256.0,460.0 "  style="fill:#000000ff;fill-rule:nonzero;" />
		<polygon points="262.0,40.6 258.4,51.88 267.4,44.68 256.6,44.68 265.6,51.88 "  style="fill:#000000ff;fill-rule:nonzero;" />
		<polygon points="262.0,64.6 258.4,75.88 267.4,68.68 256.6,68.68 265.6,75.88 "  style="fill:#000000ff;fill-rule:nonzero;" />
		<polygon points="262.0,76.6 258.4,87.88 267.4,80.68 256.6,80.68 265.6,87.88 "  style="fill:#000000ff;fill-rule:nonzero;" />
		<polygon points="262.0,136 256,148.0 268.0,148.0 "  style="fill:#000000ff;fill-rule:nonzero;" />
		<polygon points="262.0,148 256,160.0 268.0,160.0 "  style="fill:#000000ff;fill-rule:nonzero;" />
		<polygon points="262.0,160 256,172.0 268.0,172.0 "  style="fill:#000000ff;fill-rule:nonzero;" />
		<polygon points="262.0,280.6 258.4,291.88 267.4,284.68 256.6,284.68 265.6,291.88 "  style="fill:#000000ff;fill-rule:nonzero;" />
		<polygon points="262.0,292 256,304.0 268.0,304.0 "  style="fill:#000000ff;fill-rule:nonzero;" />
		<polygon points="262.0,316.6 258.4,327.88 267.4,320.68 256.6,320.68 265.6,327.88 "  style="fill:#000000ff;fill-rule:nonzero;" />
		<polygon points="262.0,340.6 258.4,351.88 267.4,344.68 256.6,344.68 265.6,351.88 "  style="fill:#000000ff;fill-rule:nonzero;" />
		<polygon points="262.0,352 256,364.0 268.0,364.0 "  style="fill:#000000ff;fill-rule:nonzero;" />
		<polygon points="262.0,364.6 258.4,375.88 267.4,368.68 256.6,368.68 265.6,375.88 "  style="fill:#000000ff;fill-rule:nonzero;" />
		<polygon points="262.0,388 256,400.0 268.0,400.0 "  style="fill:#000000ff;fill-rule:nonzero;" />
		<polygon points="262.0,400.6 258.4,411.88 267.4,404.68 256.6,404.68 265.6,411.88 "  style="fill:#000000ff;fill-rule:nonzero;" />
		<polygon points="262.0,412.6 258.4,423.88 267.4,416.68 256.6,416.68 265.6,423.88 "  style="fill:#000000ff;fill-rule:nonzero;" />
		<polygon points="262.0,436 256,448.0 268.0,448.0 "  style="fill:#000000ff;fill-rule:nonzero;" />
		<polygon points="262.0,460.6 258.4,471.88 267.4,464.68 256.6,464.68 265.6,471.88 "  style="fill:#000000ff;fill-rule:nonzero;" />
		<polygon points="274.0,40 268,52.0 280.0,52.0 "  style="fill:#000000ff;fill-rule:nonzero;" />
		<polygon points="274.0,64 268,76.0 280.0,76.0 "  style="fill:#000000ff;fill-rule:nonzero;" />
		<polygon points="274.0,88.6 270.4,99.88 279.4,92.68 268.6,92.68 277.6,99.88 "  style="fill:#000000ff;fill-rule:nonzero;" />
		<polygon points="274.0,100.6 270.4,111.88 279.4,104.68 268.6,104.68 277.6,111.88 "  style="fill:#000000ff;fill-rule:nonzero;" />
		<polygon points="274.0,112 268,124.0 280.0,124.0 "  style="fill:#000000ff;fill-rule:nonzero;" />
		<polygon points="274.0,244.6 270.4,255.88 279.4,248.68 268.6,248.68 277.6,255.88 "  style="fill:#000000ff;fill-rule:nonzero;" />
		<polygon points="274.0,256.6 270.4,267.88 279.4,260.68 268.6,260.68 277.6,267.88 "  style="fill:#000000ff;fill-rule:nonzero;" />
		<polygon points="274.0,268.6 270.4,279.88 279.4,272.68 268.6,272.68 277.6,279.88 "  style="fill:#000000ff;fill-rule:nonzero;" />
		<polygon points="274.0,280.6 270.4,291.88 279.4,284.68 268.6,284.68 277.6,291.88 "  style="fill:#000000ff;fill-rule:nonzero;" />
		<polygon points="274.0,364.6 270.4,375.88 279.4,368.68 268.6,368.68 277.6,375.88 "  style="fill:#000000ff;fill-rule:nonzero;" />
		<polygon points="274.0,448.6 270.4,459.88 279.4,452.68 268.6,452.68 277.6,459.88 "  style="fill:#000000ff;fill-rule:nonzero;" />
		<polygon points="286.0,28 280,40.0 292.0,40.0 "  style="fill:#000000ff;fill-rule:nonzero;" />
		<polygon points="286.0,52 280,64.0 292.0,64.0 "  style="fill:#000000ff;fill-rule:nonzero;" />
		<polygon points="286.0,76.6 282.4,87.88 291.4,80.68 280.6,80.68 289.6,87.88 "  style="fill:#000000ff;fill-rule:nonzero;" />
		<polygon points="286.0,88 280,100.0 292.0,100.0 "  style="fill:#000000ff;fill-rule:nonzero;" />
		<polygon points="286.0,112.6 282.4,123.88 291.4,116.68 280.6,116.68 289.6,123.88 "  style="fill:#000000ff;fill-rule:nonzero;" />
		<polygon points="286.0,124.6 282.4,135.88 291.4,128.68 280.6,128.68 289.6,135.88 "  style="fill:#000000ff;fill-rule:nonzero;" />
		<polygon points="286.0,196.6 282.4,207.88 291.4,200.68 280.6,200.68 289.6,207.88 "  style="fill:#000000ff;fill-rule:nonzero;" />
		<polygon points="286.0,220.6 282.4,231.88 291.4,224.68 280.6,224.68 289.6,231.88 "  style="fill:#000000ff;fill-rule:nonzero;" />
		<polygon points="286.0,232 280,244.0 292.0,244.0 "  style="fill:#000000ff;fill-rule:nonzero;" />
		<polygon points="286.0,256 280,268.0 292.0,268.0 "  style="fill:#000000ff;fill-rule:nonzero;" />
		<polygon points="286.0,268 280,280.0 292.0,280.0 "  style="fill:#000000ff;fill-rule:nonzero;" />
		<polygon points="286.0,280.6 282.4,291.88 291.4,284.68 280.6,284.68 289.6,291.88 "  style="fill:#000000ff;fill-rule:nonzero;" />
		<polygon points="286.0,304.6 282.4,315.88 291.4,308.68 280.6,308.68 289.6,315.88 "  style="fill:#000000ff;fill-rule:nonzero;" />
		<polygon points="286.0,340.6 282.4,351.88 291.4,344.68 280.6,344.68 289.6,351.88 "  style="fill:#000000ff;fill-rule:nonzero;" />
		<text fill="#000000ff" font-size="12" y="364" x="280">小</text>
		<polygon points="286.0,364.6 282.4,375.88 291.4,368.68 280.6,368.68 289.6,375.88 "  style="fill:#000000ff;fill-rule:nonzero;" />
		<polygon points="286.0,400.6 282.4,411.88 291.4,404.68 280.6,404.68 289.6,411.88 "  style="fill:#000000ff;fill-rule:nonzero;" />
		<polygon points="286.0,412.6 282.4,423.88 291.4,416.68 280.6,416.68 289.6,423.88 "  style="fill:#000000ff;fill-rule:nonzero;" />
		<polygon points="286.0,436 280,448.0 292.0,448.0 "  style="fill:#000000ff;fill-rule:nonzero;" />
		<polygon points="286.0,448 280,460.0 292.0,460.0 "  style="fill:#000000ff;fill-rule:nonzero;" />
		<polygon points="298.0,64 292,76.0 304.0,76.0 "  style="fill:#000000ff;fill-rule:nonzero;" />
		<polygon points="298.0,76 292,88.0 304.0,88.0 "  style="fill:#000000ff;fill-rule:nonzero;" />
		<polygon points="298.0,100 292,112.0 304.0,112.0 "  style="fill:#000000ff;fill-rule:nonzero;" />
		<polygon points="298.0,184 292,196.0 304.0,196.0 "  style="fill:#000000ff;fill-rule:nonzero;" />
		<polygon points="298.0,208 292,220.0 304.0,220.0 "  style="fill:#000000ff;fill-rule:nonzero;" />
		<polygon points="298.0,232.6 294.4,243.88 303.4,236.68 292.6,236.68 301.6,243.88 "  style="fill:#000000ff;fill-rule:nonzero;" />
		<polygon points="298.0,304.6 294.4,315.88 303.4,308.68 292.6,308.68 301.6,315.88 "  style="fill:#000000ff;fill-rule:nonzero;" />
		<polygon points="298.0,412 292,424.0 304.0,424.0 "  style="fill:#000000ff;fill-rule:nonzero;" />
		<polygon points="298.0,448 292,460.0 304.0,460.0 "  style="fill:#000000ff;fill-rule:nonzero;" />
		<polygon points="298.0,460.6 294.4,471.88 303.4,464.68 292.6,464.68 301.6,471.88 "  style="fill:#000000ff;fill-rule:nonzero;" />
		<polygon points="310.0,28.6 306.4,39.88 315.4,32.68 304.6,32.68 313.6,39.88 "  style="fill:#000000ff;fill-rule:nonzero;" />
		<polygon points="310.0,40.6 306.4,51.88 315.4,44.68 304.6,44.68 313.6,51.88 "  style="fill:#000000ff;fill-rule:nonzero;" />
		<polygon points="310.0,64 304,76.0 316.0,76.0 "  style="fill:#000000ff;fill-rule:nonzero;" />
		<polygon points="310.0,136.6 306.4,147.88 315.4,140.68 304.6,140.68 313.6,147.88 "  style="fill:#000000ff;fill-rule:nonzero;" />
		<polygon points="310.0,160.6 306.4,171.88 315.4,164.68 304.6,164.68 313.6,171.88 "  style="fill:#000000ff;fill-rule:nonzero;" />
		<polygon points="310.0,172.6 306.4,183.88 315.4,176.68 304.6,176.68 313.6,183.88 "  style="fill:#000000ff;fill-rule:nonzero;" />
		<polygon points="310.0,196 304,208.0 316.0,208.0 "  style="fill:#000000ff;fill-rule:nonzero;" />
		<polygon points="310.0,208.6 306.4,219.88 315.4,212.68 304.6,212.68 313.6,219.88 "  style="fill:#000000ff;fill-rule:nonzero;" />
		<polygon points="310.0,232 304,244.0 316.0,244.0 "  style="fill:#000000ff;fill-rule:nonzero;" />
		<polygon points="310.0,280 304,292.0 316.0,292.0 "  style="fill:#000000ff;fill-rule:nonzero;" />
		<polygon points="310.0,292.6 306.4,303.88 315.4,296.68 304.6,296.68 313.6,303.88 "  style="fill:#000000ff;fill-rule:nonzero;" />
		<polygon points="310.0,340.6 306.4,351.88 315.4,344.68 304.6,344.68 313.6,351.88 "  style="fill:#000000ff;fill-rule:nonzero;" />
		<polygon points="310.0,424.6 306.4,435.88 315.4,428.68 304.6,428.68 313.6,435.88 "  style="fill:#000000ff;fill-rule:nonzero;" />
		<polygon points="310.0,436.6 306.4,447.88 315.4,440.68 304.6,440.68 313.6,447.88 "  style="fill:#000000ff;fill-rule:nonzero;" />
		<polygon points="310.0,448 304,460.0 316.0,460.0 "  style="fill:#000000ff;fill-rule:nonzero;" />
		<polygon points="322.0,28 316,40.0 328.0,40.0 "  style="fill:#000000ff;fill-rule:nonzero;" />
		<polygon points="322.0,64.6 318.4,75.88 327.4,68.68 316.6,68.68 325.6,75.88 "  style="fill:#000000ff;fill-rule:nonzero;" />
		<polygon points="322.0,76 316,88.0 328.0,88.0 "  style="fill:#000000ff;fill-rule:nonzero;" />
		<polygon points="322.0,100 316,112.0 328.0,112.0 "  style="fill:#000000ff;fill-rule:nonzero;" />
		<polygon points="322.0,160.6 318.4,171.88 327.4,164.68 316.6,164.68 325.6,171.88 "  style="fill:#000000ff;fill-rule:nonzero;" />
		<polygon points="322.0,196 316,208.0 328.0,208.0 "  style="fill:#000000ff;fill-rule:nonzero;" />
		<polygon points="322.0,208.6 318.4,219.88 327.4,212.68 316.6,212.68 325.6,219.88 "  style="fill:#000000ff;fill-rule:nonzero;" />
		<polygon points="322.0,232.6 318.4,243.88 327.4,236.68 316.6,236.68 325.6,243.88 "  style="fill:#000000ff;fill-rule:nonzero;" />
		<polygon points="322.0,256.6 318.4,267.88 327.4,260.68 316.6,260.68 325.6,267.88 "  style="fill:#000000ff;fill-rule:nonzero;" />
		<polygon points="322.0,280 316,292.0 328.0,292.0 "  style="fill:#000000ff;fill-rule:nonzero;" />
		<polygon points="322.0,304 316,316.0 328.0,316.0 "  style="fill:#000000ff;fill-rule:nonzero;" />
		<polygon points="322.0,316.6 318.4,327.88 327.4,320.68 316.6,320.68 325.6,327.88 "  style="fill:#000000ff;fill-rule:nonzero;" />
		<polygon points="322.0,328.6 318.4,339.88 327.4,332.68 316.6,332.68 325.6,339.88 "  style="fill:#000000ff;fill-rule:nonzero;" />
		<polygon points="322.0,340.6 318.4,351.88 327.4,344.68 316.6,344.68 325.6,351.88 "  style="fill:#000000ff;fill-rule:nonzero;" />
		<polygon points="322.0,388 316,400.0 328.0,400.0 "  style="fill:#000000ff;fill-rule:nonzero;" />
		<text fill="#000000ff" font-size="12" y="448" x="316">灰</text>
		<polygon points="322.0,460.6 318.4,471.88 327.4,464.68 316.6,464.68 325.6,471.88 "  style="fill:#000000ff;fill-rule:nonzero;" />
		<polygon points="334.0,40.6 330.4,51.88 339.4,44.68 328.6,44.68 337.6,51.88 "  style="fill:#000000ff;fill-rule:nonzero;" />
		<polygon points="334.0,88 328,100.0 340.0,100.0 "  style="fill:#000000ff;fill-rule:nonzero;" />
		<polygon points="334.0,112.6 330.4,123.88 339.4,116.68 328.6,116.68 337.6,123.88 "  style="fill:#000000ff;fill-rule:nonzero;" />
		<polygon points="334.0,148 328,160.0 340.0,160.0 "  style="fill:#000000ff;fill-rule:nonzero;" />
		<polygon points="334.0,160.6 330.4,171.88 339.4,164.68 328.6,164.68 337.6,171.88 "  style="fill:#000000ff;fill-rule:nonzero;" />
		<polygon points="334.0,172.6 330.4,183.88 339.4,176.68 328.6,176.68 337.6,183.88 "  style="fill:#000000ff;fill-rule:nonzero;" />
		<polygon points="334.0,196.6 330.4,207.88 339.4,200.68 328.6,200.68 337.6,207.88 "  style="fill:#000000ff;fill-rule:nonzero;" />
		<polygon points="334.0,292.6 330.4,303.88 339.4,296.68 328.6,296.68 337.6,303.88 "  style="fill:#000000ff;fill-rule:nonzero;" />
		<polygon points="334.0,316 328,328.0 340.0,328.0 "  style="fill:#000000ff;fill-rule:nonzero;" />
		<polygon points="334.0,340.6 330.4,351.88 339.4,344.68 328.6,344.68 337.6,351.88 "  style="fill:#000000ff;fill-rule:nonzero;" />
		<polygon points="334.0,364.6 330.4,375.88 339.4,368.68 328.6,368.68 337.6,375.88 "  style="fill:#000000ff;fill-rule:nonzero;" />
		<polygon points="334.0,388 328,400.0 340.0,400.0 "  style="fill:#000000ff;fill-rule:nonzero;" />
		<polygon points="334.0,400 328,412.0 340.0,412.0 "  style="fill:#000000ff;fill-rule:nonzero;" />
		<polygon points="334.0,412.6 330.4,423.88 339.4,416.68 328.6,416.68 337.6,423.88 "  style="fill:#000000ff;fill-rule:nonzero;" />
		<polygon points="346.0,40.6 342.4,51.88 351.4,44.68 340.6,44.68 349.6,51.88 "  style="fill:#000000ff;fill-rule:nonzero;" />
		<polygon points="346.0,76 340,88.0 352.0,88.0 "  style="fill:#000000ff;fill-rule:nonzero;" />
		<polygon points="346.0,100.6 342.4,111.88 351.4,104.68 340.6,104.68 349.6,111.88 "  style="fill:#000000ff;fill-rule:nonzero;" />
		<polygon points="346.0,112.6 342.4,123.88 351.4,116.68 340.6,116.68 349.6,123.88 "  style="fill:#000000ff;fill-rule:nonzero;" />
		<polygon points="346.0,136.6 342.4,147.88 351.4,140.68 340.6,140.68 349.6,147.88 "  style="fill:#000000ff;fill-rule:nonzero;" />
		<polygon points="346.0,172.6 342.4,183.88 351.4,176.68 340.6,176.68 349.6,183.88 "  style="fill:#000000ff;fill-rule:nonzero;" />
		<polygon points="346.0,184.6 342.4,195.88 351.4,188.68 340.6,188.68 349.6,195.88 "  style="fill:#000000ff;fill-rule:nonzero;" />
		<polygon points="346.0,196.6 342.4,207.88 351.4,200.68 340.6,200.68 349.6,207.88 "  style="fill:#000000ff;fill-rule:nonzero;" />
		<polygon points="346.0,232.6 342.4,243.88 351.4,236.68 340.6,236.68 349.6,243.88 "  style="fill:#000000ff;fill-rule:nonzero;" />
		<polygon points="346.0,244 340,256.0 352.0,256.0 "  style="fill:#000000ff;fill-rule:nonzero;" />
		<polygon points="346.0,280.6 342.4,291.88 351.4,284.68 340.6,284.68 349.6,291.88 "  style="fill:#000000ff;fill-rule:nonzero;" />
		<polygon points="346.0,304.6 342.4,315.88 351.4,308.68 340.6,308.68 349.6,315.88 "  style="fill:#000000ff;fill-rule:nonzero;" />
		<polygon points="346.0,328 340,340.0 352.0,340.0 "  style="fill:#000000ff;fill-rule:nonzero;" />
		<polygon points="346.0,340 340,352.0 352.0,352.0 "  style="fill:#000000ff;fill-rule:nonzero;" />
		<polygon points="346.0,352 340,364.0 352.0,364.0 "  style="fill:#000000ff;fill-rule:nonzero;" />
		<polygon points="346.0,364 340,376.0 352.0,376.0 "  style="fill:#000000ff;fill-rule:nonzero;" />
		<polygon points="346.0,376.6 342.4,387.88 351.4,380.68 340.6,380.68 349.6,387.88 "  style="fill:#000000ff;fill-rule:nonzero;" />
		<polygon points="346.0,388 340,400.0 352.0,400.0 "  style="fill:#000000ff;fill-rule:nonzero;" />
		<polygon points="346.0,412 340,424.0 352.0,424.0 "  style="fill:#000000ff;fill-rule:nonzero;" />
		<polygon points="346.0,424 340,436.0 352.0,436.0 "  style="fill:#000000ff;fill-rule:nonzero;" />
		<polygon points="346.0,436 340,448.0 352.0,448.0 "  style="fill:#000000ff;fill-rule:nonzero;" />
		<polygon points="346.0,448.6 342.4,459.88 351.4,452.68 340.6,452.68 349.6,459.88 "  style="fill:#000000ff;fill-rule:nonzero;" />
		<polygon points="358.0,64 352,76.0 364.0,76.0 "  style="fill:#000000ff;fill-rule:nonzero;" />
		<polygon points="358.0,124.6 354.4,135.88 363.4,128.68 352.6,128.68 361.6,135.88 "  style="fill:#000000ff;fill-rule:nonzero;" />
		<polygon points="358.0,136 352,148.0 364.0,148.0 "  style="fill:#000000ff;fill-rule:nonzero;" />
		<polygon points="358.0,160 352,172.0 364.0,172.0 "  style="fill:#000000ff;fill-rule:nonzero;" />
		<polygon points="358.0,172 352,184.0 364.0,184.0 "  style="fill:#000000ff;fill-rule:nonzero;" />
		<polygon points="358.0,196.6 354.4,207.88 363.4,200.68 352.6,200.68 361.6,207.88 "  style="fill:#000000ff;fill-rule:nonzero;" />
		<polygon points="358.0,220 352,232.0 364.0,232.0 "  style="fill:#000000ff;fill-rule:nonzero;" />
		<polygon points="358.0,232.6 354.4,243.88 363.4,236.68 352.6,236.68 361.6,243.88 "  style="fill:#000000ff;fill-rule:nonzero;" />
		<polygon points="358.0,244 352,256.0 364.0,256.0 "  style="fill:#000000ff;fill-rule:nonzero;" />
		<polygon points="358.0,268.6 354.4,279.88 363.4,272.68 352.6,272.68 361.6,279.88 "  style="fill:#000000ff;fill-rule:nonzero;" />
		<polygon points="358.0,316.6 354.4,327.88 363.4,320.68 352.6,320.68 361.6,327.88 "  style="fill:#000000ff;fill-rule:nonzero;" />
		<polygon points="358.0,340 352,352.0 364.0,352.0 "  style="fill:#000000ff;fill-rule:nonzero;" />
		<polygon points="358.0,364.6 354.4,375.88 363.4,368.68 352.6,368.68 361.6,375.88 "  style="fill:#000000ff;fill-rule:nonzero;" />
		<polygon points="358.0,388 352,400.0 364.0,400.0 "  style="fill:#000000ff;fill-rule:nonzero;" />
		<polygon points="358.0,400.6 354.4,411.88 363.4,404.68 352.6,404.68 361.6,411.88 "  style="fill:#000000ff;fill-rule:nonzero;" />
		<polygon points="358.0,436 352,448.0 364.0,448.0 "  style="fill:#000000ff;fill-rule:nonzero;" />
		<polygon points="358.0,460.6 354.4,471.88 363.4,464.68 352.6,464.68 361.6,471.88 "  style="fill:#000000ff;fill-rule:nonzero;" />
		<polygon points="370.0,28.6 366.4,39.88 375.4,32.68 364.6,32.68 373.6,39.88 "  style="fill:#000000ff;fill-rule:nonzero;" />
		<polygon points="370.0,64 364,76.0 376.0,76.0 "  style="fill:#000000ff;fill-rule:nonzero;" />
		<polygon points="370.0,76.6 366.4,87.88 375.4,80.68 364.6,80.68 373.6,87.88 "  style="fill:#000000ff;fill-rule:nonzero;" />
		<polygon points="370.0,100.6 366.4,111.88 375.4,104.68 364.6,104.68 373.6,111.88 "  style="fill:#000000ff;fill-rule:nonzero;" />
		<polygon points="370.0,136.6 366.4,147.88 375.4,140.68 364.6,140.68 373.6,147.88 "  style="fill:#000000ff;fill-rule:nonzero;" />
		<polygon points="370.0,160.6 366.4,171.88 375.4,164.68 364.6,164.68 373.6,171.88 "  style="fill:#000000ff;fill-rule:nonzero;" />
		<polygon points="370.0,172.6 366.4,183.88 375.4,176.68 364.6,176.68 373.6,183.88 "  style="fill:#000000ff;fill-rule:nonzero;" />
		<polygon points="370.0,184.6 366.4,195.88 375.4,188.68 364.6,188.68 373.6,195.88 "  style="fill:#000000ff;fill-rule:nonzero;" />
		<polygon points="370.0,196.6 366.4,207.88 375.4,200.68 364.6,200.68 373.6,207.88 "  style="fill:#000000ff;fill-rule:nonzero;" />
		<polygon points="370.0,208 364,220.0 376.0,220.0 "  style="fill:#000000ff;fill-rule:nonzero;" />
		<polygon points="370.0,220.6 366.4,231.88 375.4,224.68 364.6,224.68 373.6,231.88 "  style="fill:#000000ff;fill-rule:nonzero;" />
		<polygon points="370.0,244.6 366.4,255.88 375.4,248.68 364.6,248.68 373.6,255.88 "  style="fill:#000000ff;fill-rule:nonzero;" />
		<polygon points="370.0,256 364,268.0 376.0,268.0 "  style="fill:#000000ff;fill-rule:nonzero;" />
		<polygon points="370.0,292.6 366.4,303.88 375.4,296.68 364.6,296.68 373.6,303.88 "  style="fill:#000000ff;fill-rule:nonzero;" />
		<polygon points="370.0,316 364,328.0 376.0,328.0 "  style="fill:#000000ff;fill-rule:nonzero;" />
		<polygon points="370.0,352 364,364.0 376.0,364.0 "  style="fill:#000000ff;fill-rule:nonzero;" />
		<polygon points="370.0,364 364,376.0 376.0,376.0 "  style="fill:#000000ff;fill-rule:nonzero;" />
		<polygon points="370.0,376 364,388.0 376.0,388.0 "  style="fill:#000000ff;fill-rule:nonzero;" />
		<polygon points="370.0,388 364,400.0 376.0,400.0 "  style="fill:#000000ff;fill-rule:nonzero;" />
		<polygon points="370.0,400 364,412.0 376.0,412.0 "  style="fill:#000000ff;fill-rule:nonzero;" />
		<polygon points="370.0,412.6 366.4,423.88 375.4,416.68 364.6,416.68 373.6,423.88 "  style="fill:#000000ff;fill-rule:nonzero;" />
		<polygon points="370.0,424 364,436.0 376.0,436.0 "  style="fill:#000000ff;fill-rule:nonzero;" />
		<polygon points="382.0,124 376,136.0 388.0,136.0 "  style="fill:#000000ff;fill-rule:nonzero;" />
		<polygon points="382.0,148.6 378.4,159.88 387.4,152.68 376.6,152.68 385.6,159.88 "  style="fill:#000000ff;fill-rule:nonzero;" />
		<polygon points="382.0,160 376,172.0 388.0,172.0 "  style="fill:#000000ff;fill-rule:nonzero;" />
		<polygon points="382.0,172.6 378.4,183.88 387.4,176.68 376.6,176.68 385.6,183.88 "  style="fill:#000000ff;fill-rule:nonzero;" />
		<polygon points="382.0,220.6 378.4,231.88 387.4,224.68 376.6,224.68 385.6,231.88 "  style="fill:#000000ff;fill-rule:nonzero;" />
		<polygon points="382.0,244.6 378.4,255.88 387.4,248.68 376.6,248.68 385.6,255.88 "  style="fill:#000000ff;fill-rule:nonzero;" />
		<polygon points="382.0,256.6 378.4,267.88 387.4,260.68 376.6,260.68 385.6,267.88 "  style="fill:#000000ff;fill-rule:nonzero;" />
		<polygon points="382.0,280 376,292.0 388.0,292.0 "  style="fill:#000000ff;fill-rule:nonzero;" />
		<polygon points="382.0,292.6 378.4,303.88 387.4,296.68 376.6,296.68 385.6,303.88 "  style="fill:#000000ff;fill-rule:nonzero;" />
		<polygon points="382.0,304.6 378.4,315.88 387.4,308.68 376.6,308.68 385.6,315.88 "  style="fill:#000000ff;fill-rule:nonzero;" />
		<polygon points="382.0,316 376,328.0 388.0,328.0 "  style="fill:#000000ff;fill-rule:nonzero;" />
		<polygon points="382.0,328.6 378.4,339.88 387.4,332.68 376.6,332.68 385.6,339.88 "  style="fill:#000000ff;fill-rule:nonzero;" />
		<polygon points="382.0,340 376,352.0 388.0,352.0 "  style="fill:#000000ff;fill-rule:nonzero;" />
		<polygon points="382.0,352 376,364.0 388.0,364.0 "  style="fill:#000000ff;fill-rule:nonzero;" />
		<polygon points="382.0,364 376,376.0 388.0,376.0 "  style="fill:#000000ff;fill-rule:nonzero;" />
		<polygon points="382.0,412 376,424.0 388.0,424.0 "  style="fill:#000000ff;fill-rule:nonzero;" />
		<polygon points="382.0,448.6 378.4,459.88 387.4,452.68 376.6,452.68 385.6,459.88 "  style="fill:#000000ff;fill-rule:nonzero;" />
		<polygon points="382.0,460.6 378.4,471.88 387.4,464.68 376.6,464.68 385.6,471.88 "  style="fill:#000000ff;fill-rule:nonzero;" />
		<polygon points="394.0,124.6 390.4,135.88 399.4,128.68 388.6,128.68 397.6,135.88 "  style="fill:#000000ff;fill-rule:nonzero;" />
		<polygon points="394.0,148.6 390.4,159.88 399.4,152.68 388.6,152.68 397.6,159.88 "  style="fill:#000000ff;fill-rule:nonzero;" />
		<polygon points="394.0,172.6 390.4,183.88 399.4,176.68 388.6,176.68 397.6,183.88 "  style="fill:#000000ff;fill-rule:nonzero;" />
		<polygon points="394.0,184 388,196.0 400.0,196.0 "  style="fill:#000000ff;fill-rule:nonzero;" />
		<polygon points="394.0,196.6 390.4,207.88 399.4,200.68 388.6,200.68 397.6,207.88 "  style="fill:#000000ff;fill-rule:nonzero;" />
		<polygon points="394.0,244.6 390.4,255.88 399.4,248.68 388.6,248.68 397.6,255.88 "  style="fill:#000000ff;fill-rule:nonzero;" />
		<polygon points="394.0,256 388,268.0 400.0,268.0 "  style="fill:#000000ff;fill-rule:nonzero;" />
		<polygon points="394.0,268 388,280.0 400.0,280.0 "  style="fill:#000000ff;fill-rule:nonzero;" />
		<polygon points="394.0,292.6 390.4,303.88 399.4,296.68 388.6,296.68 397.6,303.88 "  style="fill:#000000ff;fill-rule:nonzero;" />
		<polygon points="394.0,304 388,316.0 400.0,316.0 "  style="fill:#000000ff;fill-rule:nonzero;" />
		<polygon points="394.0,316.6 390.4,327.88 399.4,320.68 388.6,320.68 397.6,327.88 "  style="fill:#000000ff;fill-rule:nonzero;" />
		<polygon points="394.0,328 388,340.0 400.0,340.0 "  style="fill:#000000ff;fill-rule:nonzero;" />
		<polygon points="394.0,340.6 390.4,351.88 399.4,344.68 388.6,344.68 397.6,351.88 "  style="fill:#000000ff;fill-rule:nonzero;" />
		<polygon points="394.0,364 388,376.0 400.0,376.0 "  style="fill:#000000ff;fill-rule:nonzero;" />
		<polygon points="394.0,388 388,400.0 400.0,400.0 "  style="fill:#000000ff;fill-rule:nonzero;" />
		<polygon points="394.0,412.6 390.4,423.88 399.4,416.68 388.6,416.68 397.6,423.88 "  style="fill:#000000ff;fill-rule:nonzero;" />
		<polygon points="394.0,424 388,436.0 400.0,436.0 "  style="fill:#000000ff;fill-rule:nonzero;" />
		<polygon points="394.0,436 388,448.0 400.0,448.0 "  style="fill:#000000ff;fill-rule:nonzero;" />
		<polygon points="394.0,448.6 390.4,459.88 399.4,452.68 388.6,452.68 397.6,459.88 "  style="fill:#000000ff;fill-rule:nonzero;" />
		<polygon points="406.0,124 400,136.0 412.0,136.0 "  style="fill:#000000ff;fill-rule:nonzero;" />
		<polygon points="406.0,148 400,160.0 412.0,160.0 "  style="fill:#000000ff;fill-rule:nonzero;" />
		<polygon points="406.0,160 400,172.0 412.0,172.0 "  style="fill:#000000ff;fill-rule:nonzero;" />
		<polygon points="406.0,184 400,196.0 412.0,196.0 "  style="fill:#000000ff;fill-rule:nonzero;" />
		<polygon points="406.0,208.6 402.4,219.88 411.4,212.68 400.6,212.68 409.6,219.88 "  style="fill:#000000ff;fill-rule:nonzero;" />
		<polygon points="406.0,232.6 402.4,243.88 411.4,236.68 400.6,236.68 409.6,243.88 "  style="fill:#000000ff;fill-rule:nonzero;" />
		<polygon points="406.0,256.6 402.4,267.88 411.4,260.68 400.6,260.68 409.6,267.88 "  style="fill:#000000ff;fill-rule:nonzero;" />
		<polygon points="406.0,280 400,292.0 412.0,292.0 "  style="fill:#000000ff;fill-rule:nonzero;" />
		<polygon points="406.0,292.6 402.4,303.88 411.4,296.68 400.6,296.68 409.6,303.88 "  style="fill:#000000ff;fill-rule:nonzero;" />
		<polygon points="406.0,304.6 402.4,315.88 411.4,308.68 400.6,308.68 409.6,315.88 "  style="fill:#000000ff;fill-rule:nonzero;" />
		<polygon points="406.0,340.6 402.4,351.88 411.4,344.68 400.6,344.68 409.6,351.88 "  style="fill:#000000ff;fill-rule:nonzero;" />
		<polygon points="406.0,364.6 402.4,375.88 411.4,368.68 400.6,368.68 409.6,375.88 "  style="fill:#000000ff;fill-rule:nonzero;" />
		<polygon points="406.0,412 400,424.0 412.0,424.0 "  style="fill:#000000ff;fill-rule:nonzero;" />
		<polygon points="406.0,424 400,436.0 412.0,436.0 "  style="fill:#000000ff;fill-rule:nonzero;" />
		<polygon points="406.0,436 400,448.0 412.0,448.0 "  style="fill:#000000ff;fill-rule:nonzero;" />
		<polygon points="418.0,148 412,160.0 424.0,160.0 "  style="fill:#000000ff;fill-rule:nonzero;" />
		<polygon points="418.0,172.6 414.4,183.88 423.4,176.68 412.6,176.68 421.6,183.88 "  style="fill:#000000ff;fill-rule:nonzero;" />
		<polygon points="418.0,220 412,232.0 424.0,232.0 "  style="fill:#000000ff;fill-rule:nonzero;" />
		<polygon points="418.0,232.6 414.4,243.88 423.4,236.68 412.6,236.68 421.6,243.88 "  style="fill:#000000ff;fill-rule:nonzero;" />
		<polygon points="418.0,244.6 414.4,255.88 423.4,248.68 412.6,248.68 421.6,255.88 "  style="fill:#000000ff;fill-rule:nonzero;" />
		<polygon points="418.0,292 412,304.0 424.0,304.0 "  style="fill:#000000ff;fill-rule:nonzero;" />
		<polygon points="418.0,328 412,340.0 424.0,340.0 "  style="fill:#000000ff;fill-rule:nonzero;" />
		<polygon points="418.0,340 412,352.0 424.0,352.0 "  style="fill:#000000ff;fill-rule:nonzero;" />
		<polygon points="418.0,364.6 414.4,375.88 423.4,368.68 412.6,368.68 421.6,375.88 "  style="fill:#000000ff;fill-rule:nonzero;" />
		<polygon points="418.0,376.6 414.4,387.88 423.4,380.68 412.6,380.68 421.6,387.88 "  style="fill:#000000ff;fill-rule:nonzero;" />
		<polygon points="418.0,388.6 414.4,399.88 423.4,392.68 412.6,392.68 421.6,399.88 "  style="fill:#000000ff;fill-rule:nonzero;" />
		<polygon points="418.0,400.6 414.4,411.88 423.4,404.68 412.6,404.68 421.6,411.88 "  style="fill:#000000ff;fill-rule:nonzero;" />
		<polygon points="418.0,412 412,424.0 424.0,424.0 "  style="fill:#000000ff;fill-rule:nonzero;" />
		<polygon points="418.0,424.6 414.4,435.88 423.4,428.68 412.6,428.68 421.6,435.88 "  style="fill:#000000ff;fill-rule:nonzero;" />
		<polygon points="418.0,436.6 414.4,447.88 423.4,440.68 412.6,440.68 421.6,447.88 "  style="fill:#000000ff;fill-rule:nonzero;" />
		<polygon points="430.0,136 424,148.0 436.0,148.0 "  style="fill:#000000ff;fill-rule:nonzero;" />
		<polygon points="430.0,160.6 426.4,171.88 435.4,164.68 424.6,164.68 433.6,171.88 "  style="fill:#000000ff;fill-rule:nonzero;" />
		<polygon points="430.0,184.6 426.4,195.88 435.4,188.68 424.6,188.68 433.6,195.88 "  style="fill:#000000ff;fill-rule:nonzero;" />
		<polygon points="430.0,196 424,208.0 436.0,208.0 "  style="fill:#000000ff;fill-rule:nonzero;" />
		<polygon points="430.0,208 424,220.0 436.0,220.0 "  style="fill:#000000ff;fill-rule:nonzero;" />
		<polygon points="430.0,256 424,268.0 436.0,268.0 "  style="fill:#000000ff;fill-rule:nonzero;" />
		<polygon points="430.0,268.6 426.4,279.88 435.4,272.68 424.6,272.68 433.6,279.88 "  style="fill:#000000ff;fill-rule:nonzero;" />
		<polygon points="430.0,304 424,316.0 436.0,316.0 "  style="fill:#000000ff;fill-rule:nonzero;" />
		<polygon points="430.0,316 424,328.0 436.0,328.0 "  style="fill:#000000ff;fill-rule:nonzero;" />
		<polygon points="430.0,328.6 426.4,339.88 435.4,332.68 424.6,332.68 433.6,339.88 "  style="fill:#000000ff;fill-rule:nonzero;" />
		<polygon points="430.0,388 424,400.0 436.0,400.0 "  style="fill:#000000ff;fill-rule:nonzero;" />
		<polygon points="430.0,400 424,412.0 436.0,412.0 "  style="fill:#000000ff;fill-rule:nonzero;" />
		<polygon points="430.0,412.6 426.4,423.88 435.4,416.68 424.6,416.68 433.6,423.88 "  style="fill:#000000ff;fill-rule:nonzero;" />
		<polygon points="430.0,436 424,448.0 436.0,448.0 "  style="fill:#000000ff;fill-rule:nonzero;" />
		<polygon points="442.0,124 436,136.0 448.0,136.0 "  style="fill:#000000ff;fill-rule:nonzero;" />
		<polygon points="442.0,148.6 438.4,159.88 447.4,152.68 436.6,152.68 445.6,159.88 "  style="fill:#000000ff;fill-rule:nonzero;" />
		<polygon points="442.0,196 436,208.0 448.0,208.0 "  style="fill:#000000ff;fill-rule:nonzero;" />
		<polygon points="442.0,208 436,220.0 448.0,220.0 "  style="fill:#000000ff;fill-rule:nonzero;" />
		<polygon points="442.0,220.6 438.4,231.88 447.4,224.68 436.6,224.68 445.6,231.88 "  style="fill:#000000ff;fill-rule:nonzero;" />
		<polygon points="442.0,256.6 438.4,267.88 447.4,260.68 436.6,260.68 445.6,267.88 "  style="fill:#000000ff;fill-rule:nonzero;" />
		<polygon points="442.0,292.6 438.4,303.88 447.4,296.68 436.6,296.68 445.6,303.88 "  style="fill:#000000ff;fill-rule:nonzero;" />
		<polygon points="442.0,316.6 438.4,327.88 447.4,320.68 436.6,320.68 445.6,327.88 "  style="fill:#000000ff;fill-rule:nonzero;" />
		<polygon points="442.0,340.6 438.4,351.88 447.4,344.68 436.6,344.68 445.6,351.88 "  style="fill:#000000ff;fill-rule:nonzero;" />
		<polygon points="442.0,364 436,376.0 448.0,376.0 "  style="fill:#000000ff;fill-rule:nonzero;" />
		<polygon points="442.0,388 436,400.0 448.0,400.0 "  style="fill:#000000ff;fill-rule:nonzero;" />
		<polygon points="442.0,400 436,412.0 448.0,412.0 "  style="fill:#000000ff;fill-rule:nonzero;" />
		<polygon points="442.0,436.6 438.4,447.88 447.4,440.68 436.6,440.68 445.6,447.88 "  style="fill:#000000ff;fill-rule:nonzero;" />
		<polygon points="454.0,124 448,136.0 460.0,136.0 "  style="fill:#000000ff;fill-rule:nonzero;" />
		<polygon points="454.0,136.6 450.4,147.88 459.4,140.68 448.6,140.68 457.6,147.88 "  style="fill:#000000ff;fill-rule:nonzero;" />
		<polygon points="454.0,148.6 450.4,159.88 459.4,152.68 448.6,152.68 457.6,159.88 "  style="fill:#000000ff;fill-rule:nonzero;" />
		<polygon points="454.0,184 448,196.0 460.0,196.0 "  style="fill:#000000ff;fill-rule:nonzero;" />
		<polygon points="454.0,220 448,232.0 460.0,232.0 "  style="fill:#000000ff;fill-rule:nonzero;" />
		<polygon points="454.0,280 448,292.0 460.0,292.0 "  style="fill:#000000ff;fill-rule:nonzero;" />
		<polygon points="454.0,292.6 450.4,303.88 459.4,296.68 448.6,296.68 457.6,303.88 "  style="fill:#000000ff;fill-rule:nonzero;" />
		<polygon points="454.0,316 448,328.0 460.0,328.0 "  style="fill:#000000ff;fill-rule:nonzero;" />
		<polygon points="454.0,328.6 450.4,339.88 459.4,332.68 448.6,332.68 457.6,339.88 "  style="fill:#000000ff;fill-rule:nonzero;" />
		<polygon points="454.0,340.6 450.4,351.88 459.4,344.68 448.6,344.68 457.6,351.88 "  style="fill:#000000ff;fill-rule:nonzero;" />
		<polygon points="454.0,364.6 450.4,375.88 459.4,368.68 448.6,368.68 457.6,375.88 "  style="fill:#000000ff;fill-rule:nonzero;" />
		<polygon points="454.0,376.6 450.4,387.88 459.4,380.68 448.6,380.68 457.6,387.88 "  style="fill:#000000ff;fill-rule:nonzero;" />
		<polygon points="454.0,388 448,400.0 460.0,400.0 "  style="fill:#000000ff;fill-rule:nonzero;" />
		<polygon points="454.0,412 448,424.0 460.0,424.0 "  style="fill:#000000ff;fill-rule:nonzero;" />
		<polygon points="454.0,424.6 450.4,435.88 459.4,428.68 448.6,428.68 457.6,435.88 "  style="fill:#000000ff;fill-rule:nonzero;" />
		<polygon points="454.0,448.6 450.4,459.88 459.4,452.68 448.6,452.68 457.6,459.88 "  style="fill:#000000ff;fill-rule:nonzero;" />
		<polygon points="454.0,460.6 450.4,471.88 459.4,464.68 448.6,464.68 457.6,471.88 "  style="fill:#000000ff;fill-rule:nonzero;" />
		<polygon points="466.0,124.6 462.4,135.88 471.4,128.68 460.6,128.68 469.6,135.88 "  style="fill:#000000ff;fill-rule:nonzero;" />
		<polygon points="466.0,172.6 462.4,183.88 471.4,176.68 460.6,176.68 469.6,183.88 "  style="fill:#000000ff;fill-rule:nonzero;" />
		<polygon points="466.0,184 460,196.0 472.0,196.0 "  style="fill:#000000ff;fill-rule:nonzero;" />
		<polygon points="466.0,220.6 462.4,231.88 471.4,224.68 460.6,224.68 469.6,231.88 "  style="fill:#000000ff;fill-rule:nonzero;" />
		<polygon points="466.0,232 460,244.0 472.0,244.0 "  style="fill:#000000ff;fill-rule:nonzero;" />
		<polygon points="466.0,292 460,304.0 472.0,304.0 "  style="fill:#000000ff;fill-rule:nonzero;" />
		<polygon points="466.0,316 460,328.0 472.0,328.0 "  style="fill:#000000ff;fill-rule:nonzero;" />
		<polygon points="466.0,328 460,340.0 472.0,340.0 "  style="fill:#000000ff;fill-rule:nonzero;" />
		<polygon points="466.0,364 460,376.0 472.0,376.0 "  style="fill:#000000ff;fill-rule:nonzero;" />
		<polygon points="466.0,376 460,388.0 472.0,388.0 "  style="fill:#000000ff;fill-rule:nonzero;" />
		<polygon points="466.0,388.6 462.4,399.88 471.4,392.68 460.6,392.68 469.6,399.88 "  style="fill:#000000ff;fill-rule:nonzero;" />
		<polygon points="466.0,412.6 462.4,423.88 471.4,416.68 460.6,416.68 469.6,423.88 "  style="fill:#000000ff;fill-rule:nonzero;" />
		<polygon points="466.0,424 460,436.0 472.0,436.0 "  style="fill:#000000ff;fill-rule:nonzero;" />
		<polygon points="466.0,436 460,448.0 472.0,448.0 "  style="fill:#000000ff;fill-rule:nonzero;" />
		<polygon points="466.0,460 460,472.0 472.0,472.0 "  style="fill:#000000ff;fill-rule:nonzero;" />

	</g>
</svg>