<?xml version="1.0" encoding="utf-8"?>
<svg xmlns="http://www.w3.org/2000/svg" xmlns:xlink="http://www.w3.org/1999/xlink" width="500" height="500" viewBox="0 0 500 500">

	<g id="qr">
		<rect fill="#ffffffff" x="0" y="0" width="500" height="500" />
		<use xlink:href="#地" x="28" y="28" width="12" height="12" />
		<use xlink:href="#玄" x="28" y="40" width="12" height="12" />
		<use xlink:href="#黄" x="28" y="52" width="12" height="12" />
		<use xlink:href="#宇" x="28" y="64" width="12" height="12" />
		<use xlink:href="#宙" x="28" y="76" width="12" height="12" />
		<use xlink:href="#洪" x="28" y="88" width="12" height="12" />
		<use xlink:href="#荒" x="28" y="100" width="12" height="12" />
		<use xlink:href="#日" x="28" y="136" width="12" height="12" />
		<use xlink:href="#月" x="28" y="172" width="12" height="12" />
		<use xlink:href="#盈" x="28" y="244" width="12" height="12" />
		<use xlink:href="#昃" x="28" y="304" width="12" height="12" />
		<use xlink:href="#辰" x="28" y="328" width="12" height="12" />
		<use xlink:href="#宿" x="28" y="340" width="12" height="12" />
		<use xlink:href="#列" x="28" y="352" width="12" height="12" />
		<use xlink:href="#张" x="28" y="364" width="12" height="12" />
		<use xlink:href="#寒" x="28" y="388" width="12" height="12" />
		<use xlink:href="#来" x="28" y="400" width="12" height="12" />
		<use xlink:href="#暑" x="28" y="412" width="12" height="12" />
		<use xlink:href="#往" x="28" y="424" width="12" height="12" />
		<use xlink:href="#秋" x="28" y="436" width="12" height="12" />
		<use xlink:href="#收" x="28" y="448" width="12" height="12" />
		<use xlink:href="#冬" x="28" y="460" width="12" height="12" />
		<use xlink:href="#藏" x="40" y="28" width="12" height="12" />
		<use xlink:href="#闰" x="40" y="100" width="12" height="12" />
		<use xlink:href="#余" x="40" y="196" width="12" height="12" />
		<use xlink:href="#成" x="40" y="208" width="12" height="12" />
		<use xlink:href="#岁" x="40" y="244" width="12" height="12" />
		<use xlink:href="#律" x="40" y="292" width="12" height="12" />
		<use xlink:href="#吕" x="40" y="304" width="12" height="12" />
		<use xlink:href="#调" x="40" y="328" width="12" height="12" />
		<use xlink:href="#阳" x="40" y="388" width="12" height="12" />
		<use xlink:href="#云" x="40" y="460" width="12" height="12" />
		<use xlink:href="#腾" x="52" y="28" width="12" height="12" />
		<use xlink:href="#致" x="52" y="52" width="12" height="12" />
		<use xlink:href="#雨" x="52" y="64" width="12" height="12" />
		<use xlink:href="#露" x="52" y="76" width="12" height="12" />
		<use xlink:href="#结" x="52" y="100" width="12" height="12" />
		<use xlink:href="#为" x="52" y="124" width="12" height="12" />
		<use xlink:href="#霜" x="52" y="148" width="12" height="12" />
		<use xlink:href="#金" x="52" y="172" width="12" height="12" />
		<use xlink:href="#生" x="52" y="196" width="12" height="12" />
		<use xlink:href="#丽" x="52" y="232" width="12" height="12" />
		<use xlink:href="#水" x="52" y="256" width="12" height="12" />
		<use xlink:href="#玉" x="52" y="268" width="12" height="12" />
		<use xlink:href="#出" x="52" y="280" width="12" height="12" />
		<use xlink:href="#昆" x="52" y="292" width="12" height="12" />
		<use xlink:href="#冈" x="52" y="340" width="12" height="12" />
		<use xlink:href="#剑" x="52" y="352" width="12" height="12" />
		<use xlink:href="#号" x="52" y="364" width="12" height="12" />
		<use xlink:href="#巨" x="52" y="388" width="12" height="12" />
		<use xlink:href="#阙" x="52" y="412" width="12" height="12" />
		<use xlink:href="#珠" x="52" y="424" width="12" height="12" />
		<use xlink:href="#称" x="52" y="436" width="12" height="12" />
		<use xlink:href="#夜" x="52" y="460" width="12" height="12" />
		<use xlink:href="#光" x="64" y="28" width="12" height="12" />
		<use xlink:href="#果" x="64" y="52" width="12" height="12" />
		<use xlink:href="#珍" x="64" y="64" width="12" height="12" />
		<use xlink:href="#李" x="64" y="76" width="12" height="12" />
		<use xlink:href="#柰" x="64" y="100" width="12" height="12" />
		<use xlink:href="#菜" x="64" y="124" width="12" height="12" />
		<use xlink:href="#重" x="64" y="172" width="12" height="12" />
		<use xlink:href="#芥" x="64" y="184" width="12" height="12" />
		<use xlink:href="#姜" x="64" y="196" width="12" height="12" />
		<use xlink:href="#海" x="64" y="208" width="12" height="12" />
		<use xlink:href="#咸" x="64" y="232" width="12" height="12" />
		<use xlink:href="#河" x="64" y="244" width="12" height="12" />
		<use xlink:href="#淡" x="64" y="268" width="12" height="12" />
		<use xlink:href="#鳞" x="64" y="328" width="12" height="12" />
		<use xlink:href="#潜" x="64" y="352" width="12" height="12" />
		<use xlink:href="#羽" x="64" y="388" width="12" height="12" />
		<use xlink:href="#翔" x="64" y="412" width="12" height="12" />
		<use xlink:href="#龙" x="64" y="424" width="12" height="12" />
		<use xlink:href="#师" x="64" y="436" width="12" height="12" />
		<use xlink:href="#火" x="64" y="460" width="12" height="12" />
		<use xlink:href="#帝" x="76" y="28" width="12" height="12" />
		<use xlink:href="#鸟" x="76" y="52" width="12" height="12" />
		<use xlink:href="#官" x="76" y="64" width="12" height="12" />
		<use xlink:href="#人" x="76" y="76" width="12" height="12" />
		<use xlink:href="#皇" x="76" y="100" width="12" height="12" />
		<use xlink:href="#始" x="76" y="124" width="12" height="12" />
		<use xlink:href="#制" x="76" y="136" width="12" height="12" />
		<use xlink:href="#文" x="76" y="148" width="12" height="12" />
		<use xlink:href="#字" x="76" y="160" width="12" height="12" />
		<use xlink:href="#乃" x="76" y="172" width="12" height="12" />
		<use xlink:href="#服" x="76" y="184" width="12" height="12" />
		<use xlink:href="#衣" x="76" y="196" width="12" height="12" />
		<use xlink:href="#裳" x="76" y="208" width="12" height="12" />
		<use xlink:href="#推" x="76" y="232" width="12" height="12" />
		<use xlink:href="#位" x="76" y="292" width="12" height="12" />
		<use xlink:href="#让" x="76" y="328" width="12" height="12" />
		<use xlink:href="#国" x="76" y="340" width="12" height="12" />
		<use xlink:href="#有" x="76" y="352" width="12" height="12" />
		<use xlink:href="#虞" x="76" y="364" width="12" height="12" />
		<use xlink:href="#陶" x="76" y="388" width="12" height="12" />
		<use xlink:href="#唐" x="76" y="412" width="12" height="12" />
		<use xlink:href="#吊" x="76" y="424" width="12" height="12" />
		<use xlink:href="#民" x="76" y="436" width="12" height="12" />
		<use xlink:href="#伐" x="76" y="460" width="12" height="12" />
		<use xlink:href="#罪" x="88" y="28" width="12" height="12" />
		<use xlink:href="#周" x="88" y="100" width="12" height="12" />
		<use xlink:href="#发" x="88" y="148" width="12" height="12" />
		<use xlink:href="#殷" x="88" y="160" width="12" height="12" />
		<use xlink:href="#汤" x="88" y="184" width="12" height="12" />
		<use xlink:href="#坐" x="88" y="196" width="12" height="12" />
		<use xlink:href="#朝" x="88" y="208" width="12" height="12" />
		<use xlink:href="#问" x="88" y="220" width="12" height="12" />
		<use xlink:href="#道" x="88" y="232" width="12" height="12" />
		<use xlink:href="#垂" x="88" y="280" width="12" height="12" />
		<use xlink:href="#拱" x="88" y="304" width="12" height="12" />
		<use xlink:href="#平" x="88" y="328" width="12" height="12" />
		<use xlink:href="#章" x="88" y="388" width="12" height="12" />
		<use xlink:href="#爱" x="88" y="460" width="12" height="12" />
		<use xlink:href="#育" x="100" y="28" width="12" height="12" />
		<use xlink:href="#黎" x="100" y="40" width="12" height="12" />
		<use xlink:href="#首" x="100" y="52" width="12" height="12" />
		<use xlink:href="#臣" x="100" y="64" width="12" height="12" />
		<use xlink:href="#伏" x="100" y="76" width="12" height="12" />
		<use xlink:href="#戎" x="100" y="88" width="12" height="12" />
		<use xlink:href="#羌" x="100" y="100" width="12" height="12" />
		<use xlink:href="#遐" x="100" y="124" width="12" height="12" />
		<use xlink:href="#迩" x="100" y="148" width="12" height="12" />
		<use xlink:href="#一" x="100" y="172" width="12" height="12" />
		<use xlink:href="#体" x="100" y="196" width="12" height="12" />
		<use xlink:href="#率" x="100" y="220" width="12" height="12" />
		<use xlink:href="#宾" x="100" y="244" width="12" height="12" />
		<use xlink:href="#归" x="100" y="268" width="12" height="12" />
		<use xlink:href="#王" x="100" y="292" width="12" height="12" />
		<use xlink:href="#鸣" x="100" y="316" width="12" height="12" />
		<use xlink:href="#凤" x="100" y="340" width="12" height="12" />
		<use xlink:href="#在" x="100" y="364" width="12" height="12" />
		<use xlink:href="#竹" x="100" y="388" width="12" height="12" />
		<use xlink:href="#白" x="100" y="400" width="12" height="12" />
		<use xlink:href="#驹" x="100" y="412" width="12" height="12" />
		<use xlink:href="#食" x="100" y="424" width="12" height="12" />
		<use xlink:href="#
" x="100" y="436" width="12" height="12" />
		<use xlink:href="#场" x="100" y="448" width="12" height="12" />
		<use xlink:href="#化" x="100" y="460" width="12" height="12" />
		<use xlink:href="#被" x="112" y="148" width="12" height="12" />
		<use xlink:href="#草" x="112" y="208" width="12" height="12" />
		<use xlink:href="#木" x="112" y="244" width="12" height="12" />
		<use xlink:href="#赖" x="112" y="268" width="12" height="12" />
		<use xlink:href="#及" x="112" y="304" width="12" height="12" />
		<use xlink:href="#万" x="112" y="328" width="12" height="12" />
		<use xlink:href="#方" x="112" y="352" width="12" height="12" />
		<use xlink:href="#盖" x="112" y="364" width="12" height="12" />
		<use xlink:href="#此" x="124" y="28" width="12" height="12" />
		<use xlink:href="#身" x="124" y="40" width="12" height="12" />
		<use xlink:href="#发" x="124" y="52" width="12" height="12" />
		<use xlink:href="#四" x="124" y="88" width="12" height="12" />
		<use xlink:href="#大" x="124" y="100" width="12" height="12" />
		<use xlink:href="#五" x="124" y="112" width="12" height="12" />
		<use xlink:href="#常" x="124" y="124" width="12" height="12" />
		<use xlink:href="#恭" x="124" y="148" width="12" height="12" />
		<use xlink:href="#惟" x="124" y="172" width="12" height="12" />
		<use xlink:href="#鞠" x="124" y="196" width="12" height="12" />
		<use xlink:href="#养" x="124" y="208" width="12" height="12" />
		<use xlink:href="#岂" x="124" y="220" width="12" height="12" />
		<use xlink:href="#敢" x="124" y="232" width="12" height="12" />
		<use xlink:href="#毁" x="124" y="244" width="12" height="12" />
		<use xlink:href="#伤" x="124" y="256" width="12" height="12" />
		<use xlink:href="#女" x="124" y="316" width="12" height="12" />
		<use xlink:href="#慕" x="124" y="328" width="12" height="12" />
		<use xlink:href="#贞" x="124" y="340" width="12" height="12" />
		<use xlink:href="#洁" x="124" y="364" width="12" height="12" />
		<use xlink:href="#男" x="124" y="376" width="12" height="12" />
		<use xlink:href="#效" x="124" y="412" width="12" height="12" />
		<use xlink:href="#才" x="124" y="424" width="12" height="12" />
		<use xlink:href="#良" x="124" y="436" width="12" height="12" />
		<use xlink:href="#知" x="136" y="52" width="12" height="12" />
		<use xlink:href="#过" x="136" y="88" width="12" height="12" />
		<use xlink:href="#必" x="136" y="112" width="12" height="12" />
		<use xlink:href="#改" x="136" y="136" width="12" height="12" />
		<use xlink:href="#得" x="136" y="148" width="12" height="12" />
		<use xlink:href="#能" x="136" y="160" width="12" height="12" />
		<use xlink:href="#莫" x="136" y="172" width="12" height="12" />
		<use xlink:href="#忘" x="136" y="196" width="12" height="12" />
		<use xlink:href="#罔" x="136" y="208" width="12" height="12" />
		<use xlink:href="#谈" x="136" y="244" width="12" height="12" />
		<use xlink:href="#彼" x="136" y="268" width="12" height="12" />
		<use xlink:href="#短" x="136" y="280" width="12" height="12" />
		<use xlink:href="#靡" x="136" y="292" width="12" height="12" />
		<use xlink:href="#恃" x="136" y="304" width="12" height="12" />
		<use xlink:href="#己" x="136" y="316" width="12" height="12" />
		<use xlink:href="#长" x="136" y="328" width="12" height="12" />
		<use xlink:href="#信" x="136" y="376" width="12" height="12" />
		<use xlink:href="#使" x="136" y="412" width="12" height="12" />
		<use xlink:href="#可" x="148" y="40" width="12" height="12" />
		<use xlink:href="#覆" x="148" y="52" width="12" height="12" />
		<use xlink:href="#器" x="148" y="64" width="12" height="12" />
		<use xlink:href="#欲" x="148" y="76" width="12" height="12" />
		<use xlink:href="#难" x="148" y="88" width="12" height="12" />
		<use xlink:href="#量" x="148" y="100" width="12" height="12" />
		<use xlink:href="#墨" x="148" y="112" width="12" height="12" />
		<use xlink:href="#悲" x="148" y="124" width="12" height="12" />
		<use xlink:href="#丝" x="148" y="148" width="12" height="12" />
		<use xlink:href="#染" x="148" y="160" width="12" height="12" />
		<use xlink:href="#诗" x="148" y="172" width="12" height="12" />
		<use xlink:href="#赞" x="148" y="184" width="12" height="12" />
		<use xlink:href="#羔" x="148" y="208" width="12" height="12" />
		<use xlink:href="#羊" x="148" y="220" width="12" height="12" />
		<use xlink:href="#景" x="148" y="244" width="12" height="12" />
		<use xlink:href="#行" x="148" y="256" width="12" height="12" />
		<use xlink:href="#维" x="148" y="292" width="12" height="12" />
		<use xlink:href="#贤" x="148" y="316" width="12" height="12" />
		<use xlink:href="#克" x="148" y="328" width="12" height="12" />
		<use xlink:href="#念" x="148" y="364" width="12" height="12" />
		<use xlink:href="#作" x="148" y="376" width="12" height="12" />
		<use xlink:href="#圣" x="148" y="388" width="12" height="12" />
		<use xlink:href="#德" x="148" y="400" width="12" height="12" />
		<use xlink:href="#建" x="148" y="424" width="12" height="12" />
		<use xlink:href="#名" x="148" y="448" width="12" height="12" />
		<use xlink:href="#立" x="160" y="52" width="12" height="12" />
		<use xlink:href="#形" x="160" y="64" width="12" height="12" />
		<use xlink:href="#端" x="160" y="76" width="12" height="12" />
		<use xlink:href="#表" x="160" y="112" width="12" height="12" />
		<use xlink:href="#正" x="160" y="124" width="12" height="12" />
		<use xlink:href="#空" x="160" y="148" width="12" height="12" />
		<use xlink:href="#谷" x="160" y="184" width="12" height="12" />
		<use xlink:href="#传" x="160" y="196" width="12" height="12" />
		<use xlink:href="#声" x="160" y="208" width="12" height="12" />
		<use xlink:href="#虚" x="160" y="256" width="12" height="12" />
		<use xlink:href="#堂" x="160" y="280" width="12" height="12" />
		<use xlink:href="#习" x="160" y="328" width="12" height="12" />
		<use xlink:href="#听" x="160" y="340" width="12" height="12" />
		<use xlink:href="#祸" x="160" y="364" width="12" height="12" />
		<use xlink:href="#因" x="160" y="376" width="12" height="12" />
		<use xlink:href="#恶" x="172" y="40" width="12" height="12" />
		<use xlink:href="#积" x="172" y="52" width="12" height="12" />
		<use xlink:href="#福" x="172" y="64" width="12" height="12" />
		<use xlink:href="#缘" x="172" y="76" width="12" height="12" />
		<use xlink:href="#善" x="172" y="100" width="12" height="12" />
		<use xlink:href="#庆" x="172" y="112" width="12" height="12" />
		<use xlink:href="#尺" x="172" y="124" width="12" height="12" />
		<use xlink:href="#璧" x="172" y="136" width="12" height="12" />
		<use xlink:href="#非" x="172" y="184" width="12" height="12" />
		<use xlink:href="#宝" x="172" y="196" width="12" height="12" />
		<use xlink:href="#寸" x="172" y="208" width="12" height="12" />
		<use xlink:href="#阴" x="172" y="244" width="12" height="12" />
		<use xlink:href="#是" x="172" y="292" width="12" height="12" />
		<use xlink:href="#竞" x="172" y="304" width="12" height="12" />
		<use xlink:href="#资" x="172" y="316" width="12" height="12" />
		<use xlink:href="#父" x="172" y="364" width="12" height="12" />
		<use xlink:href="#事" x="172" y="388" width="12" height="12" />
		<use xlink:href="#君" x="172" y="412" width="12" height="12" />
		<use xlink:href="#曰" x="172" y="424" width="12" height="12" />
		<use xlink:href="#严" x="172" y="436" width="12" height="12" />
		<use xlink:href="#与" x="172" y="448" width="12" height="12" />
		<use xlink:href="#敬" x="172" y="460" width="12" height="12" />
		<use xlink:href="#孝" x="184" y="76" width="12" height="12" />
		<use xlink:href="#当" x="184" y="124" width="12" height="12" />
		<use xlink:href="#竭" x="184" y="136" width="12" height="12" />
		<use xlink:href="#力" x="184" y="160" width="12" height="12" />
		<use xlink:href="#忠" x="184" y="172" width="12" height="12" />
		<use xlink:href="#则" x="184" y="208" width="12" height="12" />
		<use xlink:href="#尽" x="184" y="220" width="12" height="12" />
		<use xlink:href="#命" x="184" y="244" width="12" height="12" />
		<use xlink:href="#临" x="184" y="256" width="12" height="12" />
		<use xlink:href="#深" x="184" y="268" width="12" height="12" />
		<use xlink:href="#履" x="184" y="280" width="12" height="12" />
		<use xlink:href="#薄" x="184" y="292" width="12" height="12" />
		<use xlink:href="#夙" x="184" y="304" width="12" height="12" />
		<use xlink:href="#兴" x="184" y="316" width="12" height="12" />
		<use xlink:href="#温" x="184" y="352" width="12" height="12" />
		<use xlink:href="#凊" x="184" y="400" width="12" height="12" />
		<use xlink:href="#似" x="184" y="412" width="12" height="12" />
		<use xlink:href="#兰" x="184" y="436" width="12" height="12" />
		<use xlink:href="#斯" x="184" y="460" width="12" height="12" />
		<use xlink:href="#馨" x="196" y="52" width="12" height="12" />
		<use xlink:href="#如" x="196" y="64" width="12" height="12" />
		<use xlink:href="#松" x="196" y="88" width="12" height="12" />
		<use xlink:href="#
" x="196" y="100" width="12" height="12" />
		<use xlink:href="#之" x="196" y="112" width="12" height="12" />
		<use xlink:href="#盛" x="196" y="136" width="12" height="12" />
		<use xlink:href="#川" x="196" y="172" width="12" height="12" />
		<use xlink:href="#流" x="196" y="184" width="12" height="12" />
		<use xlink:href="#不" x="196" y="196" width="12" height="12" />
		<use xlink:href="#息" x="196" y="208" width="12" height="12" />
		<use xlink:href="#渊" x="196" y="232" width="12" height="12" />
		<use xlink:href="#澄" x="196" y="292" width="12" height="12" />
		<use xlink:href="#取" x="196" y="316" width="12" height="12" />
		<use xlink:href="#映" x="196" y="328" width="12" height="12" />
		<use xlink:href="#容" x="196" y="340" width="12" height="12" />
		<use xlink:href="#止" x="196" y="376" width="12" height="12" />
		<use xlink:href="#若" x="196" y="412" width="12" height="12" />
		<use xlink:href="#思" x="196" y="424" width="12" height="12" />
		<use xlink:href="#言" x="196" y="460" width="12" height="12" />
		<use xlink:href="#辞" x="208" y="28" width="12" height="12" />
		<use xlink:href="#安" x="208" y="52" width="12" height="12" />
		<use xlink:href="#定" x="208" y="124" width="12" height="12" />
		<use xlink:href="#笃" x="208" y="136" width="12" height="12" />
		<use xlink:href="#初" x="208" y="148" width="12" height="12" />
		<use xlink:href="#诚" x="208" y="172" width="12" height="12" />
		<use xlink:href="#美" x="208" y="196" width="12" height="12" />
		<use xlink:href="#慎" x="208" y="208" width="12" height="12" />
		<use xlink:href="#终" x="208" y="220" width="12" height="12" />
		<use xlink:href="#宜" x="208" y="244" width="12" height="12" />
		<use xlink:href="#令" x="208" y="268" width="12" height="12" />
		<use xlink:href="#荣" x="208" y="292" width="12" height="12" />
		<use xlink:href="#业" x="208" y="304" width="12" height="12" />
		<use xlink:href="#所" x="208" y="340" width="12" height="12" />
		<use xlink:href="#基" x="208" y="352" width="12" height="12" />
		<use xlink:href="#籍" x="208" y="400" width="12" height="12" />
		<use xlink:href="#甚" x="208" y="436" width="12" height="12" />
		<use xlink:href="#无" x="220" y="52" width="12" height="12" />
		<use xlink:href="#竟" x="220" y="100" width="12" height="12" />
		<use xlink:href="#学" x="220" y="124" width="12" height="12" />
		<use xlink:href="#优" x="220" y="184" width="12" height="12" />
		<use xlink:href="#登" x="220" y="208" width="12" height="12" />
		<use xlink:href="#仕" x="220" y="220" width="12" height="12" />
		<use xlink:href="#摄" x="220" y="244" width="12" height="12" />
		<use xlink:href="#职" x="220" y="256" width="12" height="12" />
		<use xlink:href="#从" x="220" y="268" width="12" height="12" />
		<use xlink:href="#政" x="220" y="280" width="12" height="12" />
		<use xlink:href="#存" x="220" y="292" width="12" height="12" />
		<use xlink:href="#以" x="220" y="328" width="12" height="12" />
		<use xlink:href="#甘" x="220" y="364" width="12" height="12" />
		<use xlink:href="#棠" x="220" y="376" width="12" height="12" />
		<use xlink:href="#去" x="220" y="388" width="12" height="12" />
		<use xlink:href="#而" x="220" y="412" width="12" height="12" />
		<use xlink:href="#益" x="220" y="460" width="12" height="12" />
		<use xlink:href="#咏" x="232" y="40" width="12" height="12" />
		<use xlink:href="#乐" x="232" y="88" width="12" height="12" />
		<use xlink:href="#殊" x="232" y="112" width="12" height="12" />
		<use xlink:href="#贵" x="232" y="172" width="12" height="12" />
		<use xlink:href="#贱" x="232" y="196" width="12" height="12" />
		<use xlink:href="#礼" x="232" y="208" width="12" height="12" />
		<use xlink:href="#别" x="232" y="220" width="12" height="12" />
		<use xlink:href="#尊" x="232" y="232" width="12" height="12" />
		<use xlink:href="#卑" x="232" y="280" width="12" height="12" />
		<use xlink:href="#上" x="232" y="292" width="12" height="12" />
		<use xlink:href="#和" x="232" y="304" width="12" height="12" />
		<use xlink:href="#下" x="232" y="316" width="12" height="12" />
		<use xlink:href="#睦" x="232" y="340" width="12" height="12" />
		<use xlink:href="#夫" x="232" y="352" width="12" height="12" />
		<use xlink:href="#唱" x="232" y="364" width="12" height="12" />
		<use xlink:href="#妇" x="232" y="376" width="12" height="12" />
		<use xlink:href="#随" x="232" y="412" width="12" height="12" />
		<use xlink:href="#外" x="244" y="40" width="12" height="12" />
		<use xlink:href="#受" x="244" y="64" width="12" height="12" />
		<use xlink:href="#傅" x="244" y="88" width="12" height="12" />
		<use xlink:href="#训" x="244" y="100" width="12" height="12" />
		<use xlink:href="#入" x="244" y="124" width="12" height="12" />
		<use xlink:href="#奉" x="244" y="148" width="12" height="12" />
		<use xlink:href="#母" x="244" y="160" width="12" height="12" />
		<use xlink:href="#仪" x="244" y="208" width="12" height="12" />
		<use xlink:href="#诸" x="244" y="220" width="12" height="12" />
		<use xlink:href="#姑" x="244" y="304" width="12" height="12" />
		<use xlink:href="#伯" x="244" y="340" width="12" height="12" />
		<use xlink:href="#叔" x="244" y="352" width="12" height="12" />
		<use xlink:href="#犹" x="244" y="364" width="12" height="12" />
		<use xlink:href="#子" x="244" y="376" width="12" height="12" />
		<use xlink:href="#比" x="244" y="388" width="12" height="12" />
		<use xlink:href="#儿" x="244" y="424" width="12" height="12" />
		<use xlink:href="#孔" x="244" y="436" width="12" height="12" />
		<use xlink:href="#怀" x="244" y="448" width="12" height="12" />
		<use xlink:href="#兄" x="256" y="40" width="12" height="12" />
		<use xlink:href="#弟" x="256" y="64" width="12" height="12" />
		<use xlink:href="#同" x="256" y="76" width="12" height="12" />
		<use xlink:href="#气" x="256" y="136" width="12" height="12" />
		<use xlink:href="#连" x="256" y="148" width="12" height="12" />
		<use xlink:href="#枝" x="256" y="160" width="12" height="12" />
		<use xlink:href="#交" x="256" y="280" width="12" height="12" />
		<use xlink:href="#友" x="256" y="292" width="12" height="12" />
		<use xlink:href="#投" x="256" y="316" width="12" height="12" />
		<use xlink:href="#分" x="256" y="340" width="12" height="12" />
		<use xlink:href="#切" x="256" y="352" width="12" height="12" />
		<use xlink:href="#磨" x="256" y="364" width="12" height="12" />
		<use xlink:href="#箴" x="256" y="388" width="12" height="12" />
		<use xlink:href="#规" x="256" y="400" width="12" height="12" />
		<use xlink:href="#仁" x="256" y="412" width="12" height="12" />
		<use xlink:href="#慈" x="256" y="436" width="12" height="12" />
		<use xlink:href="#隐" x="256" y="460" width="12" height="12" />
		<use xlink:href="#恻" x="268" y="40" width="12" height="12" />
		<use xlink:href="#造" x="268" y="64" width="12" height="12" />
		<use xlink:href="#次" x="268" y="88" width="12" height="12" />
		<use xlink:href="#弗" x="268" y="100" width="12" height="12" />
		<use xlink:href="#离" x="268" y="112" width="12" height="12" />
		<use xlink:href="#节" x="268" y="172" width="12" height="12" />
		<use xlink:href="#义" x="268" y="244" width="12" height="12" />
		<use xlink:href="#廉" x="268" y="256" width="12" height="12" />
		<use xlink:href="#退" x="268" y="268" width="12" height="12" />
		<use xlink:href="#颠" x="268" y="280" width="12" height="12" />
		<use xlink:href="#沛" x="268" y="364" width="12" height="12" />
		<use xlink:href="#匪" x="268" y="448" width="12" height="12" />
		<use xlink:href="#亏" x="280" y="28" width="12" height="12" />
		<use xlink:href="#性" x="280" y="52" width="12" height="12" />
		<use xlink:href="#静" x="280" y="76" width="12" height="12" />
		<use xlink:href="#情" x="280" y="88" width="12" height="12" />
		<use xlink:href="#逸" x="280" y="112" width="12" height="12" />
		<use xlink:href="#心" x="280" y="124" width="12" height="12" />
		<use xlink:href="#动" x="280" y="172" width="12" height="12" />
		<use xlink:href="#神" x="280" y="196" width="12" height="12" />
		<use xlink:href="#疲" x="280" y="220" width="12" height="12" />
		<use xlink:href="#守" x="280" y="232" width="12" height="12" />
		<use xlink:href="#真" x="280" y="256" width="12" height="12" />
		<use xlink:href="#志" x="280" y="268" width="12" height="12" />
		<use xlink:href="#满" x="280" y="280" width="12" height="12" />
		<use xlink:href="#逐" x="280" y="304" width="12" height="12" />
		<use xlink:href="#物" x="280" y="316" width="12" height="12" />
		<use xlink:href="#意" x="280" y="340" width="12" height="12" />
		<use xlink:href="#移" x="280" y="352" width="12" height="12" />
		<use xlink:href="#坚" x="280" y="364" width="12" height="12" />
		<use xlink:href="#持" x="280" y="400" width="12" height="12" />
		<use xlink:href="#雅" x="280" y="412" width="12" height="12" />
		<use xlink:href="#操" x="280" y="436" width="12" height="12" />
		<use xlink:href="#好" x="280" y="448" width="12" height="12" />
		<use xlink:href="#
" x="292" y="64" width="12" height="12" />
		<use xlink:href="#爵" x="292" y="76" width="12" height="12" />
		<use xlink:href="#自" x="292" y="100" width="12" height="12" />
		<use xlink:href="#縻" x="292" y="172" width="12" height="12" />
		<use xlink:href="#都" x="292" y="184" width="12" height="12" />
		<use xlink:href="#邑" x="292" y="208" width="12" height="12" />
		<use xlink:href="#华" x="292" y="232" width="12" height="12" />
		<use xlink:href="#夏" x="292" y="304" width="12" height="12" />
		<use xlink:href="#东" x="292" y="316" width="12" height="12" />
		<use xlink:href="#西" x="292" y="412" width="12" height="12" />
		<use xlink:href="#二" x="292" y="448" width="12" height="12" />
		<use xlink:href="#京" x="292" y="460" width="12" height="12" />
		<use xlink:href="#背" x="304" y="28" width="12" height="12" />
		<use xlink:href="#邙" x="304" y="40" width="12" height="12" />
		<use xlink:href="#面" x="304" y="64" width="12" height="12" />
		<use xlink:href="#洛" x="304" y="136" width="12" height="12" />
		<use xlink:href="#浮" x="304" y="160" width="12" height="12" />
		<use xlink:href="#渭" x="304" y="172" width="12" height="12" />
		<use xlink:href="#据" x="304" y="196" width="12" height="12" />
		<use xlink:href="#泾" x="304" y="208" width="12" height="12" />
		<use xlink:href="#宫" x="304" y="220" width="12" height="12" />
		<use xlink:href="#殿" x="304" y="232" width="12" height="12" />
		<use xlink:href="#盘" x="304" y="280" width="12" height="12" />
		<use xlink:href="#郁" x="304" y="292" width="12" height="12" />
		<use xlink:href="#楼" x="304" y="316" width="12" height="12" />
		<use xlink:href="#观" x="304" y="340" width="12" height="12" />
		<use xlink:href="#飞" x="304" y="424" width="12" height="12" />
		<use xlink:href="#惊" x="304" y="436" width="12" height="12" />
		<use xlink:href="#图" x="304" y="448" width="12" height="12" />
		<use xlink:href="#写" x="316" y="28" width="12" height="12" />
		<use xlink:href="#禽" x="316" y="64" width="12" height="12" />
		<use xlink:href="#兽" x="316" y="76" width="12" height="12" />
		<use xlink:href="#画" x="316" y="100" width="12" height="12" />
		<use xlink:href="#彩" x="316" y="160" width="12" height="12" />
		<use xlink:href="#仙" x="316" y="196" width="12" height="12" />
		<use xlink:href="#灵" x="316" y="208" width="12" height="12" />
		<use xlink:href="#丙" x="316" y="220" width="12" height="12" />
		<use xlink:href="#舍" x="316" y="232" width="12" height="12" />
		<use xlink:href="#旁" x="316" y="256" width="12" height="12" />
		<use xlink:href="#启" x="316" y="280" width="12" height="12" />
		<use xlink:href="#甲" x="316" y="304" width="12" height="12" />
		<use xlink:href="#帐" x="316" y="316" width="12" height="12" />
		<use xlink:href="#对" x="316" y="328" width="12" height="12" />
		<use xlink:href="#楹" x="316" y="340" width="12" height="12" />
		<use xlink:href="#肆" x="316" y="388" width="12" height="12" />
		<use xlink:href="#筵" x="316" y="436" width="12" height="12" />
		<use xlink:href="#设" x="316" y="460" width="12" height="12" />
		<use xlink:href="#席" x="328" y="40" width="12" height="12" />
		<use xlink:href="#鼓" x="328" y="88" width="12" height="12" />
		<use xlink:href="#瑟" x="328" y="112" width="12" height="12" />
		<use xlink:href="#吹" x="328" y="148" width="12" height="12" />
		<use xlink:href="#笙" x="328" y="160" width="12" height="12" />
		<use xlink:href="#升" x="328" y="172" width="12" height="12" />
		<use xlink:href="#阶" x="328" y="196" width="12" height="12" />
		<use xlink:href="#纳" x="328" y="220" width="12" height="12" />
		<use xlink:href="#陛" x="328" y="292" width="12" height="12" />
		<use xlink:href="#弁" x="328" y="316" width="12" height="12" />
		<use xlink:href="#转" x="328" y="340" width="12" height="12" />
		<use xlink:href="#疑" x="328" y="364" width="12" height="12" />
		<use xlink:href="#星" x="328" y="388" width="12" height="12" />
		<use xlink:href="#右" x="328" y="400" width="12" height="12" />
		<use xlink:href="#通" x="328" y="412" width="12" height="12" />
		<use xlink:href="#广" x="340" y="40" width="12" height="12" />
		<use xlink:href="#内" x="340" y="76" width="12" height="12" />
		<use xlink:href="#左" x="340" y="100" width="12" height="12" />
		<use xlink:href="#达" x="340" y="112" width="12" height="12" />
		<use xlink:href="#承" x="340" y="136" width="12" height="12" />
		<use xlink:href="#明" x="340" y="172" width="12" height="12" />
		<use xlink:href="#既" x="340" y="184" width="12" height="12" />
		<use xlink:href="#集" x="340" y="196" width="12" height="12" />
		<use xlink:href="#坟" x="340" y="232" width="12" height="12" />
		<use xlink:href="#典" x="340" y="244" width="12" height="12" />
		<use xlink:href="#亦" x="340" y="280" width="12" height="12" />
		<use xlink:href="#聚" x="340" y="304" width="12" height="12" />
		<use xlink:href="#群" x="340" y="328" width="12" height="12" />
		<use xlink:href="#英" x="340" y="340" width="12" height="12" />
		<use xlink:href="#杜" x="340" y="352" width="12" height="12" />
		<use xlink:href="#稿" x="340" y="364" width="12" height="12" />
		<use xlink:href="#钟" x="340" y="376" width="12" height="12" />
		<use xlink:href="#隶" x="340" y="388" width="12" height="12" />
		<use xlink:href="#漆" x="340" y="412" width="12" height="12" />
		<use xlink:href="#书" x="340" y="424" width="12" height="12" />
		<use xlink:href="#壁" x="340" y="436" width="12" height="12" />
		<use xlink:href="#经" x="340" y="448" width="12" height="12" />
		<use xlink:href="#府" x="352" y="64" width="12" height="12" />
		<use xlink:href="#罗" x="352" y="124" width="12" height="12" />
		<use xlink:href="#将" x="352" y="136" width="12" height="12" />
		<use xlink:href="#相" x="352" y="160" width="12" height="12" />
		<use xlink:href="#路" x="352" y="172" width="12" height="12" />
		<use xlink:href="#侠" x="352" y="196" width="12" height="12" />
		<use xlink:href="#槐" x="352" y="220" width="12" height="12" />
		<use xlink:href="#卿" x="352" y="232" width="12" height="12" />
		<use xlink:href="#户" x="352" y="244" width="12" height="12" />
		<use xlink:href="#封" x="352" y="268" width="12" height="12" />
		<use xlink:href="#八" x="352" y="316" width="12" height="12" />
		<use xlink:href="#县" x="352" y="340" width="12" height="12" />
		<use xlink:href="#家" x="352" y="364" width="12" height="12" />
		<use xlink:href="#给" x="352" y="388" width="12" height="12" />
		<use xlink:href="#千" x="352" y="400" width="12" height="12" />
		<use xlink:href="#兵" x="352" y="436" width="12" height="12" />
		<use xlink:href="#高" x="352" y="460" width="12" height="12" />
		<use xlink:href="#冠" x="364" y="28" width="12" height="12" />
		<use xlink:href="#陪" x="364" y="64" width="12" height="12" />
		<use xlink:href="#辇" x="364" y="76" width="12" height="12" />
		<use xlink:href="#驱" x="364" y="100" width="12" height="12" />
		<use xlink:href="#毂" x="364" y="136" width="12" height="12" />
		<use xlink:href="#振" x="364" y="160" width="12" height="12" />
		<use xlink:href="#缨" x="364" y="172" width="12" height="12" />
		<use xlink:href="#世" x="364" y="184" width="12" height="12" />
		<use xlink:href="#禄" x="364" y="196" width="12" height="12" />
		<use xlink:href="#侈" x="364" y="208" width="12" height="12" />
		<use xlink:href="#富" x="364" y="220" width="12" height="12" />
		<use xlink:href="#车" x="364" y="244" width="12" height="12" />
		<use xlink:href="#驾" x="364" y="256" width="12" height="12" />
		<use xlink:href="#肥" x="364" y="292" width="12" height="12" />
		<use xlink:href="#轻" x="364" y="316" width="12" height="12" />
		<use xlink:href="#策" x="364" y="352" width="12" height="12" />
		<use xlink:href="#功" x="364" y="364" width="12" height="12" />
		<use xlink:href="#茂" x="364" y="376" width="12" height="12" />
		<use xlink:href="#实" x="364" y="388" width="12" height="12" />
		<use xlink:href="#勒" x="364" y="400" width="12" height="12" />
		<use xlink:href="#碑" x="364" y="412" width="12" height="12" />
		<use xlink:href="#刻" x="364" y="424" width="12" height="12" />
		<use xlink:href="#铭" x="376" y="124" width="12" height="12" />
		<use xlink:href="#盘" x="376" y="148" width="12" height="12" />
		<use xlink:href="#溪" x="376" y="160" width="12" height="12" />
		<use xlink:href="#伊" x="376" y="172" width="12" height="12" />
		<use xlink:href="#尹" x="376" y="220" width="12" height="12" />
		<use xlink:href="#佐" x="376" y="244" width="12" height="12" />
		<use xlink:href="#时" x="376" y="256" width="12" height="12" />
		<use xlink:href="#阿" x="376" y="280" width="12" height="12" />
		<use xlink:href="#衡" x="376" y="292" width="12" height="12" />
		<use xlink:href="#奄" x="376" y="304" width="12" height="12" />
		<use xlink:href="#宅" x="376" y="316" width="12" height="12" />
		<use xlink:href="#曲" x="376" y="328" width="12" height="12" />
		<use xlink:href="#阜" x="376" y="340" width="12" height="12" />
		<use xlink:href="#
" x="376" y="352" width="12" height="12" />
		<use xlink:href="#微" x="376" y="364" width="12" height="12" />
		<use xlink:href="#旦" x="376" y="412" width="12" height="12" />
		<use xlink:href="#孰" x="376" y="448" width="12" height="12" />
		<use xlink:href="#营" x="376" y="460" width="12" height="12" />
		<use xlink:href="#桓" x="388" y="28" width="12" height="12" />
		<use xlink:href="#公" x="388" y="40" width="12" height="12" />
		<use xlink:href="#匡" x="388" y="52" width="12" height="12" />
		<use xlink:href="#合" x="388" y="64" width="12" height="12" />
		<use xlink:href="#济" x="388" y="76" width="12" height="12" />
		<use xlink:href="#弱" x="388" y="88" width="12" height="12" />
		<use xlink:href="#扶" x="388" y="100" width="12" height="12" />
		<use xlink:href="#倾" x="388" y="124" width="12" height="12" />
		<use xlink:href="#绮" x="388" y="148" width="12" height="12" />
		<use xlink:href="#回" x="388" y="172" width="12" height="12" />
		<use xlink:href="#汉" x="388" y="184" width="12" height="12" />
		<use xlink:href="#惠" x="388" y="196" width="12" height="12" />
		<use xlink:href="#说" x="388" y="244" width="12" height="12" />
		<use xlink:href="#感" x="388" y="256" width="12" height="12" />
		<use xlink:href="#武" x="388" y="268" width="12" height="12" />
		<use xlink:href="#丁" x="388" y="292" width="12" height="12" />
		<use xlink:href="#俊" x="388" y="304" width="12" height="12" />
		<use xlink:href="#义" x="388" y="316" width="12" height="12" />
		<use xlink:href="#密" x="388" y="328" width="12" height="12" />
		<use xlink:href="#勿" x="388" y="340" width="12" height="12" />
		<use xlink:href="#多" x="388" y="364" width="12" height="12" />
		<use xlink:href="#士" x="388" y="388" width="12" height="12" />
		<use xlink:href="#实" x="388" y="412" width="12" height="12" />
		<use xlink:href="#宁" x="388" y="424" width="12" height="12" />
		<use xlink:href="#晋" x="388" y="436" width="12" height="12" />
		<use xlink:href="#楚" x="388" y="448" width="12" height="12" />
		<use xlink:href="#更" x="400" y="28" width="12" height="12" />
		<use xlink:href="#霸" x="400" y="100" width="12" height="12" />
		<use xlink:href="#赵" x="400" y="124" width="12" height="12" />
		<use xlink:href="#魏" x="400" y="148" width="12" height="12" />
		<use xlink:href="#困" x="400" y="160" width="12" height="12" />
		<use xlink:href="#横" x="400" y="184" width="12" height="12" />
		<use xlink:href="#假" x="400" y="208" width="12" height="12" />
		<use xlink:href="#途" x="400" y="232" width="12" height="12" />
		<use xlink:href="#灭" x="400" y="256" width="12" height="12" />
		<use xlink:href="#虢" x="400" y="280" width="12" height="12" />
		<use xlink:href="#践" x="400" y="292" width="12" height="12" />
		<use xlink:href="#土" x="400" y="304" width="12" height="12" />
		<use xlink:href="#会" x="400" y="340" width="12" height="12" />
		<use xlink:href="#盟" x="400" y="364" width="12" height="12" />
		<use xlink:href="#何" x="400" y="412" width="12" height="12" />
		<use xlink:href="#遵" x="400" y="424" width="12" height="12" />
		<use xlink:href="#约" x="400" y="436" width="12" height="12" />
		<use xlink:href="#法" x="412" y="28" width="12" height="12" />
		<use xlink:href="#韩" x="412" y="52" width="12" height="12" />
		<use xlink:href="#弊" x="412" y="64" width="12" height="12" />
		<use xlink:href="#烦" x="412" y="76" width="12" height="12" />
		<use xlink:href="#刑" x="412" y="100" width="12" height="12" />
		<use xlink:href="#起" x="412" y="148" width="12" height="12" />
		<use xlink:href="#翦" x="412" y="172" width="12" height="12" />
		<use xlink:href="#颇" x="412" y="220" width="12" height="12" />
		<use xlink:href="#牧" x="412" y="232" width="12" height="12" />
		<use xlink:href="#用" x="412" y="244" width="12" height="12" />
		<use xlink:href="#军" x="412" y="292" width="12" height="12" />
		<use xlink:href="#最" x="412" y="328" width="12" height="12" />
		<use xlink:href="#精" x="412" y="340" width="12" height="12" />
		<use xlink:href="#宣" x="412" y="364" width="12" height="12" />
		<use xlink:href="#威" x="412" y="376" width="12" height="12" />
		<use xlink:href="#沙" x="412" y="388" width="12" height="12" />
		<use xlink:href="#漠" x="412" y="400" width="12" height="12" />
		<use xlink:href="#驰" x="412" y="412" width="12" height="12" />
		<use xlink:href="#誉" x="412" y="424" width="12" height="12" />
		<use xlink:href="#丹" x="412" y="436" width="12" height="12" />
		<use xlink:href="#青" x="412" y="448" width="12" height="12" />
		<use xlink:href="#九" x="424" y="28" width="12" height="12" />
		<use xlink:href="#州" x="424" y="52" width="12" height="12" />
		<use xlink:href="#禹" x="424" y="64" width="12" height="12" />
		<use xlink:href="#迹" x="424" y="76" width="12" height="12" />
		<use xlink:href="#百" x="424" y="100" width="12" height="12" />
		<use xlink:href="#郡" x="424" y="136" width="12" height="12" />
		<use xlink:href="#秦" x="424" y="160" width="12" height="12" />
		<use xlink:href="#并" x="424" y="184" width="12" height="12" />
		<use xlink:href="#岳" x="424" y="196" width="12" height="12" />
		<use xlink:href="#宗" x="424" y="208" width="12" height="12" />
		<use xlink:href="#泰" x="424" y="256" width="12" height="12" />
		<use xlink:href="#岱" x="424" y="268" width="12" height="12" />
		<use xlink:href="#禅" x="424" y="304" width="12" height="12" />
		<use xlink:href="#主" x="424" y="316" width="12" height="12" />
		<use xlink:href="#云" x="424" y="328" width="12" height="12" />
		<use xlink:href="#亭" x="424" y="388" width="12" height="12" />
		<use xlink:href="#雁" x="424" y="400" width="12" height="12" />
		<use xlink:href="#门" x="424" y="412" width="12" height="12" />
		<use xlink:href="#紫" x="424" y="436" width="12" height="12" />
		<use xlink:href="#塞" x="424" y="448" width="12" height="12" />
		<use xlink:href="#鸡" x="436" y="28" width="12" height="12" />
		<use xlink:href="#田" x="436" y="52" width="12" height="12" />
		<use xlink:href="#赤" x="436" y="64" width="12" height="12" />
		<use xlink:href="#诚" x="436" y="76" width="12" height="12" />
		<use xlink:href="#昆" x="436" y="100" width="12" height="12" />
		<use xlink:href="#池" x="436" y="124" width="12" height="12" />
		<use xlink:href="#碣" x="436" y="148" width="12" height="12" />
		<use xlink:href="#石" x="436" y="196" width="12" height="12" />
		<use xlink:href="#钜" x="436" y="208" width="12" height="12" />
		<use xlink:href="#野" x="436" y="220" width="12" height="12" />
		<use xlink:href="#洞" x="436" y="244" width="12" height="12" />
		<use xlink:href="#庭" x="436" y="256" width="12" height="12" />
		<use xlink:href="#旷" x="436" y="292" width="12" height="12" />
		<use xlink:href="#远" x="436" y="316" width="12" height="12" />
		<use xlink:href="#绵" x="436" y="340" width="12" height="12" />
		<use xlink:href="#邈" x="436" y="364" width="12" height="12" />
		<use xlink:href="#岩" x="436" y="388" width="12" height="12" />
		<use xlink:href="#岫" x="436" y="400" width="12" height="12" />
		<use xlink:href="#杳" x="436" y="436" width="12" height="12" />
		<use xlink:href="#冥" x="436" y="448" width="12" height="12" />
		<use xlink:href="#治" x="448" y="28" width="12" height="12" />
		<use xlink:href="#本" x="448" y="100" width="12" height="12" />
		<use xlink:href="#于" x="448" y="124" width="12" height="12" />
		<use xlink:href="#农" x="448" y="136" width="12" height="12" />
		<use xlink:href="#务" x="448" y="148" width="12" height="12" />
		<use xlink:href="#兹" x="448" y="184" width="12" height="12" />
		<use xlink:href="#稼" x="448" y="220" width="12" height="12" />
		<use xlink:href="#穑" x="448" y="244" width="12" height="12" />
		<use xlink:href="#俶" x="448" y="280" width="12" height="12" />
		<use xlink:href="#载" x="448" y="292" width="12" height="12" />
		<use xlink:href="#南" x="448" y="316" width="12" height="12" />
		<use xlink:href="#亩" x="448" y="328" width="12" height="12" />
		<use xlink:href="#我" x="448" y="340" width="12" height="12" />
		<use xlink:href="#艺" x="448" y="364" width="12" height="12" />
		<use xlink:href="#黍" x="448" y="376" width="12" height="12" />
		<use xlink:href="#稷" x="448" y="388" width="12" height="12" />
		<use xlink:href="#税" x="448" y="412" width="12" height="12" />
		<use xlink:href="#熟" x="448" y="424" width="12" height="12" />
		<use xlink:href="#贡" x="448" y="448" width="12" height="12" />
		<use xlink:href="#新" x="448" y="460" width="12" height="12" />
		<use xlink:href="#劝" x="460" y="28" width="12" height="12" />
		<use xlink:href="#赏" x="460" y="40" width="12" height="12" />
		<use xlink:href="#黜" x="460" y="52" width="12" height="12" />
		<use xlink:href="#陟" x="460" y="64" width="12" height="12" />
		<use xlink:href="#孟" x="460" y="76" width="12" height="12" />
		<use xlink:href="#轲" x="460" y="88" width="12" height="12" />
		<use xlink:href="#敦" x="460" y="100" width="12" height="12" />
		<use xlink:href="#
" x="460" y="124" width="12" height="12" />
		<use xlink:href="#素" x="460" y="172" width="12" height="12" />
		<use xlink:href="#史" x="460" y="184" width="12" height="12" />
		<use xlink:href="#鱼" x="460" y="220" width="12" height="12" />
		<use xlink:href="#秉" x="460" y="232" width="12" height="12" />
		<use xlink:href="#直" x="460" y="244" width="12" height="12" />
		<use xlink:href="#庶" x="460" y="292" width="12" height="12" />
		<use xlink:href="#几" x="460" y="316" width="12" height="12" />
		<use xlink:href="#中" x="460" y="328" width="12" height="12" />
		<use xlink:href="#庸" x="460" y="364" width="12" height="12" />
		<use xlink:href="#劳" x="460" y="376" width="12" height="12" />
		<use xlink:href="#谦" x="460" y="388" width="12" height="12" />
		<use xlink:href="#谨" x="460" y="412" width="12" height="12" />
		<use xlink:href="#敕" x="460" y="424" width="12" height="12" />
		<use xlink:href="#聆" x="460" y="436" width="12" height="12" />
		<use xlink:href="#音" x="460" y="460" width="12" height="12" />

	</g>
</svg>